<?xml version="1.0" encoding="utf-8"?>
<!-- Generator: Adobe Illustrator 16.0.4, SVG Export Plug-In . SVG Version: 6.00 Build 0)  -->
<!DOCTYPE svg PUBLIC "-//W3C//DTD SVG 1.1//EN" "http://www.w3.org/Graphics/SVG/1.1/DTD/svg11.dtd">
<svg version="1.1" id="Layer_1" xmlns="http://www.w3.org/2000/svg" xmlns:xlink="http://www.w3.org/1999/xlink" x="0px" y="0px"
	 width="612px" height="792px" viewBox="0 0 612 792" enable-background="new 0 0 612 792" xml:space="preserve">
<symbol  id="_x7E__Green_Bar" viewBox="-2.3 -119.4 4.6 238.801">
	<g>
		<polygon fill="#4FBC26" points="2.3,-119.4 -2.3,-119.4 -2.3,0 2.3,0 		"/>
	</g>
	<g>
		<polygon fill="#4FBC26" points="2.3,0 -2.3,0 -2.3,119.4 2.3,119.4 		"/>
	</g>
</symbol>
<symbol  id="_x7E__Tree_Black" viewBox="-278.1 -169.501 556.2 339.002">
	<g>
		<g>
			<g>
				<path d="M-126.5,59.401l1.7-0.603h0.1c0.3,1.8,0.6,3.7,0.9,5.5l-1.1,0.3c-0.5,0.2-1,0.303-1.4,0.5c-0.6,0.2-1.3,0.4-1.9,0.603
					c-0.7,0.3-1.4,0.6-2.1,0.8c-1.5,0.6-3,1.1-4.3,1.8h-0.1l-1.7,0.8c-0.5,0.2-1,0.4-1.4,0.7l-3.1,1.7c-0.6,0.3-1.1,0.7-1.8,1.1
					c-0.4,0.303-0.8,0.5-1.2,0.7l-0.6,0.4c-0.3,0.2-0.6,0.3-0.8,0.5l-2.9,2.1c-0.5,0.3-0.9,0.603-1.2,1l-2.7,2.3
					c-0.3,0.303-0.7,0.7-1,1c-1.4,1.303-2.7,2.5-3.9,3.9c-3.4,3.7-6.2,7.4-8.5,11.1c0,0,0,0.103-0.1,0.103
					c-0.5,0.7-0.9,1.5-1.4,2.397c-0.3,0.5-0.6,1.103-0.9,1.603c-0.4,0.8-0.8,1.6-1.2,2.397l-0.1,0.103l-4.9-2.4l0.1-0.1
					c0.4-0.9,0.9-1.8,1.3-2.603c0,0,0-0.1,0.1-0.1c0.3-0.5,0.6-1,0.9-1.5c0.5-0.9,1-1.8,1.6-2.7c2.4-4,5.4-7.897,9-11.897
					c1.3-1.5,2.8-2.9,4.2-4.2l1.1-1l0.1-0.103l2.7-2.3c0.5-0.397,1-0.8,1.6-1.3l2.9-2.1c0,0,0.1,0,0.1-0.103
					c0.3-0.2,0.7-0.397,1-0.7l0.6-0.397c0.4-0.2,0.7-0.5,1.1-0.7c0.6-0.4,1.3-0.9,2.1-1.3l3.1-1.7c0.6-0.3,1.2-0.6,1.9-0.9
					l1.6-0.697c1.6-0.803,3.2-1.4,4.8-2c0.7-0.303,1.4-0.5,2.1-0.803c0.1,0,0.1,0,0.2-0.1c0.7-0.2,1.4-0.5,2.1-0.7
					C-127.4,59.701-127,59.501-126.5,59.401z"/>
				<path d="M-127.9,46.801l1.4-0.397c0.1,0.6,0.1,1.1,0.2,1.697c0.2,1.303,0.4,2.5,0.5,3.803l-0.8,0.197l-1.9,0.603
					c-0.5,0.2-1,0.3-1.4,0.5c-0.8,0.3-1.6,0.5-2.5,0.8c-0.7,0.3-1.5,0.6-2.2,0.9c-1.9,0.697-3.6,1.397-5.4,2.3l-2,0.897
					c-0.6,0.303-1.2,0.5-1.7,0.803l-3.7,2c-0.7,0.397-1.4,0.897-2.2,1.397c-0.4,0.3-0.9,0.603-1.3,0.8l-0.7,0.4
					c-0.4,0.2-0.7,0.5-1,0.6l-3.4,2.5c-0.6,0.4-1.1,0.803-1.5,1.2l-3.2,2.7l-0.9,0.9c-1.7,1.6-3.4,3.197-4.9,4.897
					c-3.9,4.3-7.3,8.603-9.9,13.103c-0.6,0.897-1.1,1.897-1.7,2.897c-0.3,0.603-0.6,1.103-1,1.7c-0.5,1-1,2-1.5,3
					c-0.3,0.6-0.6,1.2-0.9,1.8l-4.9-2.5c0.3-0.6,0.6-1.1,0.9-1.7c0.5-1.1,1.1-2.197,1.6-3.3v-0.1c0.3-0.5,0.6-1.103,0.9-1.603
					c0.6-1.1,1.2-2.197,1.8-3.1c2.8-4.6,6.4-9.3,10.5-13.8c1.7-1.9,3.5-3.603,5.2-5.2l1-0.9l0.1-0.1l3.2-2.7
					c0.5-0.5,1.1-0.897,1.8-1.5l3.5-2.6c0.4-0.3,0.8-0.5,1.2-0.8l0.6-0.4c0.4-0.3,0.8-0.5,1.2-0.8c0.8-0.5,1.6-1,2.5-1.5l3.6-2
					c0.6-0.4,1.3-0.7,2.1-1.103l1.8-0.897c1.9-1,3.9-1.7,5.8-2.5c0.7-0.3,1.5-0.603,2.2-0.9c0,0,0.1,0,0.1-0.1
					c0.9-0.3,1.8-0.603,2.7-0.9c0.5-0.1,0.9-0.3,1.4-0.397l2-0.603C-128,46.901-128,46.901-127.9,46.801z"/>
				<path d="M-127.2,39.601l-2.6,0.603l-3.6,1.1c-1,0.3-2,0.603-3,1c-0.7,0.3-1.5,0.603-2.2,0.9c-2.2,0.897-4.3,1.7-6.4,2.7l-2.2,1
					c-0.7,0.3-1.4,0.6-2,1l-4.2,2.3c-0.9,0.5-1.7,1-2.6,1.6c-0.5,0.3-0.9,0.603-1.3,0.9l-0.7,0.5c-0.4,0.3-0.9,0.5-1.2,0.8l-3.9,2.9
					c-0.7,0.5-1.2,0.897-1.7,1.397l-3.6,3.103l-0.7,0.6c-2.1,2-4.1,3.9-6,6c-4.5,4.9-8.3,9.9-11.4,14.9c-0.7,1.1-1.4,2.197-2,3.5
					c-0.3,0.6-0.7,1.197-1,1.8c-0.6,1.1-1.2,2.3-1.8,3.5l-4.9-2.4c0.6-1.3,1.2-2.5,1.9-3.8c0.3-0.6,0.7-1.2,1-1.8
					c0.7-1.2,1.4-2.5,2.2-3.7c3.2-5.3,7.3-10.6,11.9-15.7c2-2.3,4.2-4.3,6.3-6.3l0.7-0.7l0.1-0.1l3.7-3.103c0.6-0.5,1.3-1,2.1-1.6
					l4-2.9c0.5-0.3,0.9-0.6,1.4-0.897l0.7-0.5c0.4-0.3,0.9-0.603,1.3-0.8c0.9-0.603,1.9-1.2,2.9-1.803l4.2-2.3
					c0.7-0.397,1.5-0.8,2.4-1.2l2.1-1c2.3-1.1,4.6-2,6.9-2.897c0.7-0.3,1.5-0.603,2.2-0.9h0.1c1.1-0.397,2.2-0.7,3.2-1l3.7-1.1
					c0.1,0,0.1,0,0.2,0l3.5-0.9C-127.6,35.901-127.4,37.701-127.2,39.601z"/>
			</g>
			<g>
				<path d="M-71.9,105.001l-0.1,0.2c-0.3,0.8-0.6,1.5-0.8,2.3c-0.2,0.7-0.5,1.3-0.7,2c-2.2-0.2-4.2-0.3-6.3-0.3
					c-7-0.2-13.1,0.1-18.7,1c-6.1,0.897-12,2.397-17.5,4.397c-5.3,2-10.6,4.803-15.6,8.303l-2.9,2c-0.2,0.1-0.3,0.197-0.5,0.397
					l-2.8,2.3l-3.5-4.3l2.7-2.2c0.2-0.197,0.4-0.397,0.7-0.6c0,0,0.1,0,0.1-0.1l2.9-2.103c5.4-3.7,11.1-6.7,16.8-8.897
					c5.8-2.2,12.1-3.803,18.6-4.7c4.7-0.7,9.8-1.103,15.5-1.103c1.3,0,2.7,0,4.1,0.103c2.6,0,5.1,0.2,7.6,0.397c0.2,0,0.4,0,0.6,0
					C-71.6,104.401-71.8,104.701-71.9,105.001z"/>
				<path d="M-68.8,97.401c-0.1,0-0.1,0-0.2,0c-0.8-0.103-1.5-0.103-2.3-0.2c-2.7-0.2-5.4-0.4-8.2-0.5c-7.7-0.2-14.5,0.1-20.8,1.1
					c-7,1-13.8,2.8-20.1,5.103c-6.2,2.397-12.4,5.6-18.2,9.6l-3.3,2.3c-0.2,0.2-0.4,0.3-0.6,0.5l-4.6,3.8l-3.5-4.3l4.6-3.8
					c0.3-0.2,0.5-0.4,0.8-0.6c0,0,0.1,0,0.1-0.103l3.4-2.397c6.2-4.303,12.8-7.7,19.4-10.303c6.6-2.5,13.8-4.3,21.2-5.397
					c5.3-0.8,11-1.2,17.2-1.2c1.5,0,3,0,4.5,0.1c2.9,0,5.7,0.303,8.5,0.5c0.8,0.103,1.5,0.103,2.3,0.2h0.1
					c0.6,0.103,1.3,0.2,1.9,0.2C-67.3,93.901-68,95.601-68.8,97.401z"/>
				<path d="M-63.4,85.601c-0.7-0.1-1.4-0.197-2.1-0.3l-2.3-0.3l-2.2-0.2c-3-0.2-6-0.5-9.1-0.5c-8.5-0.2-16,0.2-23,1.2
					c-7.9,1.2-15.6,3.1-22.7,5.8c-7.2,2.7-14.2,6.4-20.8,11l-3.7,2.603c-0.2,0.197-0.5,0.397-0.7,0.6l-2.7,2.2l-3.5-4.3l2.7-2.2
					c0.3-0.2,0.6-0.5,0.9-0.8l3.9-2.7c7-4.8,14.5-8.7,22-11.603c7.5-2.8,15.5-4.897,23.8-6.1c5.9-0.9,12.2-1.4,19-1.4
					c1.6,0,3.2,0,4.9,0.103c3.2,0,6.4,0.3,9.4,0.5l2.3,0.2h0.1l2.3,0.3c1.4,0.2,2.7,0.3,4.1,0.5
					C-61.7,82.201-62.5,83.901-63.4,85.601z"/>
			</g>
			<g>
				<path d="M271.1-40.299l-6.6,1.5l-4.2,1.3c-0.3,0.1-0.6,0.2-0.9,0.3c-0.4,0.103-0.8,0.2-1.2,0.4l-4.1,1.7
					c-0.2,0.1-0.5,0.197-0.7,0.3c-0.4,0.2-0.8,0.3-1.1,0.5c0,0-0.1,0-0.1,0.1l-4,2c0,0-0.1,0-0.1,0.103c-0.4,0.197-0.9,0.5-1.4,0.8
					l-3.9,2.397l-4.2,3.103l-3.9,3.5l-2.9,3.1l-0.1,0.103c-0.4,0.3-0.7,0.8-1.1,1.3l-1.4,1.7c-0.2,0.197-0.4,0.5-0.6,0.697
					c-0.2,0.303-0.5,0.5-0.6,0.803c0,0,0,0.1-0.1,0.1l-1.2,1.8c-3.1,4.603-5.5,9.603-7,14.7l-0.9,3.4
					c-0.3-0.104-0.5-0.204-0.8-0.305c-1.4-0.5-2.9-0.897-4.4-1.397l0.8-3.2V0.401c1.7-5.7,4.4-11.2,7.7-16.2l1.2-1.8
					c0.3-0.5,0.7-1,1-1.4c0.1-0.2,0.3-0.3,0.5-0.6l1.4-1.803c0.4-0.6,0.9-1.197,1.6-1.8l3-3.1c0.1-0.103,0.1-0.103,0.2-0.2l4.1-3.6
					c0.1-0.103,0.1-0.103,0.2-0.2l4.4-3.3c0.1-0.103,0.1-0.103,0.2-0.103l3.9-2.397c0.6-0.4,1.2-0.803,2-1.103l3.9-2
					c0.6-0.3,1.2-0.6,1.7-0.8c0.2-0.1,0.4-0.1,0.6-0.2l4.2-1.7h0.1c0.5-0.197,1-0.3,1.5-0.5c0.3-0.1,0.5-0.197,0.8-0.197l4.3-1.4
					c0.1,0,0.1,0,0.2-0.1l6.8-1.603c0.1,0,0.1,0,0.2,0l7.2-1.1l0.8,5.397L271.1-40.299z"/>
				<path d="M268.8-52.499l-7.6,1.8l-4.9,1.5c-0.3,0.103-0.6,0.2-0.9,0.3c-0.5,0.2-1,0.303-1.4,0.4l-4.8,2c-0.3,0.1-0.5,0.2-0.8,0.3
					c-0.5,0.2-1,0.4-1.3,0.603H247l-4.7,2.397c-0.6,0.3-1.2,0.603-1.8,1l-4.5,2.8l-5.1,3.803l-1,0.8c-10.3,8.6-18.1,20.3-22,33
					c-0.2,0.6-0.3,1.3-0.5,1.897c-0.1,0.4-0.2,0.803-0.3,1.303c-0.4-0.103-0.9-0.303-1.3-0.402c-1.3-0.4-2.6-0.9-3.9-1.3
					c0.1-0.3,0.2-0.603,0.2-0.9c0.2-0.6,0.3-1.3,0.5-1.897v-0.103c4.2-13.7,12.7-26.397,23.7-35.6l1-0.9c0.1,0,0.1-0.1,0.2-0.1
					l5.3-3.9c0.1,0,0.1-0.1,0.2-0.1l4.6-2.9c0.7-0.5,1.5-0.897,2.3-1.3l4.6-2.3c0.7-0.4,1.3-0.603,1.9-0.9c0.2-0.1,0.4-0.2,0.7-0.3
					l4.9-2c0.6-0.2,1.2-0.4,1.7-0.6c0.3-0.103,0.6-0.2,0.9-0.303l5-1.6c0.1,0,0.1,0,0.2-0.1l7.8-1.803c0.1,0,0.1,0,0.2,0l5.9-0.897
					l0.8,5.397L268.8-52.499z"/>
				<path d="M266.4-64.699l-8.5,2l-5.5,1.7c-0.3,0.1-0.7,0.2-1,0.3c-0.6,0.2-1.2,0.4-1.7,0.5l-5.5,2.2c-0.3,0.1-0.6,0.2-0.9,0.4
					c-0.6,0.197-1.2,0.5-1.7,0.8l-5.4,2.7c-0.7,0.3-1.4,0.8-2.2,1.197l-5.2,3.2l-5.9,4.4l-1.1,1
					c-12.1,10.102-21.3,23.901-25.9,38.901l-0.3,1.2c-0.1,0.5-0.3,1.103-0.4,1.603c-0.1,0-0.3-0.103-0.4-0.103
					c-1.5-0.5-3.1-1-4.8-1.6c0.1-0.4,0.2-0.9,0.3-1.3l0.3-1.303v-0.098c4.9-16,14.7-30.8,27.6-41.5l1.1-1c0,0,0.1-0.1,0.2-0.1
					l6.1-4.5c0.1,0,0.1-0.103,0.2-0.103l5.3-3.3c0.8-0.5,1.7-1.1,2.6-1.5l5.3-2.7c0.8-0.397,1.5-0.7,2.2-1c0.3-0.1,0.5-0.2,0.8-0.3
					l5.6-2.3c0.7-0.2,1.3-0.4,2-0.7c0.3-0.1,0.6-0.2,1-0.3l5.6-1.8c0.1,0,0.1,0,0.2-0.103l8.7-2c0.1,0,0.1,0,0.2,0l5.4-0.8l0.8,5.4
					L266.4-64.699z"/>
			</g>
			<g>
				<g>
					<path d="M104.7,20.301c-4.1,0.9-8.3,2.2-12.4,3.8c-0.1-0.8-0.3-1.6-0.5-2.6l-0.2-1c-0.1-0.6-0.3-1.3-0.5-1.9
						c4.1-1.6,8.3-2.897,12.5-3.8c5-1.1,10.3-1.7,15.6-1.897c0.7,1.697,1.3,3.5,2,5.397C115.4,18.501,109.9,19.201,104.7,20.301z"/>
					<path d="M246.5,48.101c-1.3-0.197-2.7-0.397-4.1-0.6c-0.6-0.1-1.3-0.2-2-0.3c-1.3-0.2-2.7-0.5-4-0.8
						c-13.7-2.803-26.2-7-38.4-11l-4.1-1.4c-10.1-3.4-19.7-6.6-29.3-9.2c-0.3-0.897-0.5-1.8-0.8-2.6c-0.3-1.2-0.7-2.4-1-3.5
						c10.8,2.8,21.6,6.397,32.9,10.2l4,1.3c12,4,24.4,8.1,37.8,10.897c1.2,0.303,2.5,0.5,3.8,0.7c0.7,0.103,1.3,0.2,1.9,0.3
						c1.3,0.2,2.6,0.4,3.8,0.5L246.5,48.101z"/>
				</g>
				<g>
					<path d="M250,36.101c-0.6-0.1-1.3-0.197-1.9-0.3c-1.2-0.2-2.4-0.3-3.7-0.5c-0.6-0.1-1.3-0.2-1.9-0.3c-1.2-0.2-2.4-0.4-3.6-0.7
						c-12.9-2.6-25.6-6.899-37.8-10.899l-3.7-1.2c-11.8-4-24.1-8.103-36.4-11.103c-0.2,0-0.3-0.1-0.5-0.1c-0.5-1.7-1.1-3.3-1.6-5
						c-0.1-0.4-0.2-0.7-0.4-1.1c1.2,0.3,2.5,0.6,3.8,0.897c12.5,3.104,24.8,7.204,36.8,11.204l3.7,1.2c12.1,4,24.6,8.2,37.2,10.8
						c1.1,0.2,2.2,0.4,3.4,0.6c0.7,0.103,1.3,0.2,1.9,0.303c1.1,0.197,2.3,0.3,3.4,0.5c0.6,0.1,1.3,0.197,1.9,0.3L250,36.101z"/>
					<path d="M102,8.201c-4.4,1-8.7,2.3-13,3.897c-0.6-1.697-1.3-3.397-2.1-5.098c4.6-1.8,9.3-3.2,13.9-4.2
						c4.1-0.897,8.4-1.5,12.7-1.897c0.2,0.3,0.4,0.6,0.5,1c0.7,1.3,1.4,2.697,2.2,4.3C111.4,6.501,106.6,7.201,102,8.201z"/>
				</g>
				<g>
					<path d="M248.5,23.401c-0.7-0.103-1.4-0.2-2.2-0.303c-0.6-0.1-1.2-0.197-1.8-0.3c-1-0.2-2.1-0.397-3.2-0.6
						c-12.2-2.5-24.4-6.603-37.4-10.9l-3.1-1c-11.7-4-24-8.1-36.8-11.3c-2.8-0.7-5.6-1.3-8.3-1.9c-0.4-1-0.9-2.1-1.3-3.3l-0.1-0.1
						c-0.4-0.9-0.8-1.9-1.2-2.7c3.9,0.7,8,1.6,12.2,2.7c13,3.2,25.4,7.3,37.3,11.3l3.1,1c12.8,4.3,24.9,8.3,36.8,10.7
						c1,0.2,1.9,0.397,3,0.6c0.6,0.103,1.2,0.2,1.8,0.3c0.6,0.103,1.3,0.2,1.9,0.303L248.5,23.401z"/>
					<path d="M99.4-3.899c-5.2,1.101-10.4,2.7-15.5,4.7c-0.9-1.6-1.9-3.2-2.9-4.8c5.6-2.2,11.4-4,17.2-5.3c2.5-0.5,5-1,7.6-1.4
						c0.2,0.2,0.4,0.5,0.6,0.7c0.3,0.4,0.7,0.9,1.1,1.5l0.1,0.1c0.5,0.7,1.1,1.603,1.9,2.7c0,0,0,0.103,0.1,0.103
						C106.1-5.199,102.7-4.599,99.4-3.899z"/>
				</g>
			</g>
			<g>
				<g>
					<path d="M181.5,75.501c0.4,0.1,0.7,0.2,1.1,0.3c3.1,4.2,6.4,8.4,10.1,12.603c1.5,1.8,3.2,3.5,4.8,5.197l0.6,0.603l-4,3.8
						l-0.6-0.6c-1.7-1.7-3.4-3.603-5-5.4c-5.2-5.8-9.8-11.7-13.8-17.8C177.1,74.601,179.3,75.001,181.5,75.501z"/>
					<path d="M156.5,33.601c0-0.1-0.1-0.197-0.1-0.3c-0.8-2.6-1.5-5.3-2.3-8c-0.9-3-1.8-6.1-2.7-9.3c-2.1-7-4.1-12.7-6.3-17.9
						c-2.6-6.1-5.6-11.897-9-17.3c-1.8-2.8-3.8-5.7-6-8.5c1.9-0.5,3.8-1,5.7-1.5c1.7,2.3,3.4,4.7,4.9,7
						c3.6,5.603,6.8,11.7,9.5,18.103c2.3,5.3,4.3,11.197,6.5,18.397c1,3.2,1.9,6.3,2.7,9.4c0.8,2.7,1.5,5.3,2.3,7.897
						c0.2,0.603,0.3,1.2,0.5,1.7C160.3,33.501,158.4,33.501,156.5,33.601z"/>
				</g>
				<g>
					<path d="M166,73.401h0.1c2,3.3,4.1,6.5,6.2,9.397c4,5.5,7.5,9.8,11.1,13.8c1.6,1.9,3.5,3.803,5.2,5.603
						c0.7,0.8,1.5,1.5,2.2,2.3l-4,3.8c-0.7-0.8-1.4-1.5-2.2-2.3c-1.8-1.9-3.7-3.8-5.4-5.8c-3.7-4.103-7.3-8.603-11.4-14.2
						c-2.8-3.9-5.5-8.2-8.1-12.6C161.8,73.301,163.9,73.301,166,73.401z"/>
					<path d="M144.1,34.801c-0.1,0-0.1,0-0.2,0c-0.6-2-1.2-4-1.8-6.1c-2.5-8.603-5-17.5-8.5-25.8c-2.3-5.5-5-10.7-8.1-15.5
						c-2.7-4.2-5.9-8.4-9.4-12.603c2.1-0.3,4.2-0.6,6.4-1c2.8,3.5,5.4,7.103,7.7,10.603c3.2,5,6.1,10.5,8.5,16.3
						c3.7,8.6,6.3,17.6,8.8,26.397c0.7,2.303,1.3,4.603,2,6.9C147.7,34.301,145.9,34.501,144.1,34.801z"/>
				</g>
				<g>
					<path d="M150.1,74.201c0.7-0.103,1.4-0.2,2.1-0.3c3.2,5.697,6.6,11.1,10.1,16c4.2,5.697,8.1,10.5,11.9,14.8
						c1.8,2.1,3.7,4.1,5.6,6.1l0.2,0.2l-4,3.8l-0.2-0.2c-1.9-2-3.9-4.1-5.8-6.3c-3.9-4.3-7.9-9.3-12.2-15.2
						c-3.7-5.1-7.2-10.699-10.5-16.699c-0.3-0.5-0.6-1.103-0.9-1.7C147.6,74.601,148.8,74.401,150.1,74.201z"/>
					<path d="M131.8,37.301c-0.5-1.7-1-3.3-1.4-5c-2.5-8.8-4.9-17-8.1-24.5c-2.1-4.897-4.4-9.397-7.1-13.7
						c-2.7-4.197-5.7-8.197-9.3-12.3c-0.4-0.5-0.9-0.897-1.3-1.397c-0.7-0.7-1.3-1.5-2-2.2l-2.3-2.3c1.1,0,2.2,0,3.2,0
						c0.4,0,0.8,0,1.2,0h0.1c0.4,0,0.9,0,1.3,0c0.6,0,1.1,0,1.7-0.103c0.3,0.3,0.6,0.603,0.9,1c0.4,0.5,0.8,0.9,1.3,1.4
						c3.8,4.3,7.1,8.7,9.9,13.1c2.9,4.5,5.4,9.3,7.6,14.5c3.3,7.8,5.7,16.2,8.3,25.103c0.5,1.697,1,3.5,1.5,5.3
						C135.4,36.501,133.6,36.901,131.8,37.301z"/>
				</g>
			</g>
			<g>
				<path d="M218,90.101c-0.5-0.397-1-0.897-1.4-1.3c-0.7-0.6-1.4-1.3-2.1-1.8l-2.7-2.2l-0.9-0.7c-12.6-9.399-28.4-14.899-44.6-15.5
					c-7.8-0.3-16,0.5-24.2,2.4c-2.7,0.6-5.3,1.4-7.8,2.2c-1.6-1.4-3.2-2.7-4.9-4.103c3.7-1.397,7.6-2.6,11.5-3.5
					c7.4-1.697,14.8-2.6,21.9-2.6c1.3,0,2.5,0,3.8,0.1c17.3,0.603,34.2,6.5,47.7,16.603l1,0.7l0.1,0.1l2.8,2.3
					c0.8,0.603,1.5,1.3,2.3,2c0.5,0.4,0.9,0.8,1.4,1.2L218,90.101z"/>
				<path d="M225.2,80.001l-0.3-0.3c-0.9-0.8-1.7-1.603-2.6-2.3l-3.2-2.603l-1.1-0.798c-14.6-10.9-32.9-17.3-51.5-18
					c-8.9-0.4-18.2,0.5-27.6,2.7c-5.7,1.3-11.1,3.1-16.4,5.397c-1.8-1.197-3.6-2.397-5.4-3.6c6.5-3,13.4-5.4,20.6-7.1
					c8.4-1.9,16.7-2.9,24.8-2.9c1.4,0,2.8,0,4.2,0.1c19.7,0.7,39.1,7.5,54.6,19l1.1,0.803l0.1,0.1l3.2,2.6
					c1,0.803,1.9,1.603,2.8,2.4l0.3,0.3L225.2,80.001z"/>
				<path d="M232.4,69.801c-0.7-0.6-1.4-1.2-2-1.8l-3.6-2.9l-1.2-0.897c-3.9-3-8.2-5.7-13.3-8.4c-2.1-1.1-4.2-2.1-6.4-3.1l-1.1-0.5
					c-2.3-1-4.5-1.9-6.8-2.603c-5.1-1.8-10.2-3.1-15.2-4c-5.1-0.897-10.3-1.5-15.5-1.697c-19.8-0.7-39.4,3.6-56.9,12.6
					c-1.9-1.1-3.8-2.1-5.8-3.2c0,0,0.1,0,0.1-0.1c17.8-9.8,37.8-14.9,58.2-14.9c1.5,0,3.1,0,4.6,0.103c5.5,0.197,11,0.8,16.3,1.8
					c5.2,1,10.6,2.397,15.9,4.2c2.5,0.8,4.9,1.8,7.2,2.8l0.5,0.2h0.1l0.7,0.3c2.2,1,4.6,2.1,6.8,3.3c5.3,2.8,9.9,5.7,14,8.8l1.3,0.9
					c0,0,0.1,0,0.1,0.1l3.7,3c0.7,0.603,1.5,1.3,2.2,1.9L232.4,69.801z"/>
			</g>
			<g>
				<path d="M-4.1,85.901c4.1-4.801,8-9.4,11.5-14.101c2.8-3.7,5.4-7.397,7.8-11.2c1.4-2.199,2.8-4.699,4.2-7.199
					c1.4,1.1,2.9,2.197,4.5,3.3c-1.3,2.397-2.7,4.7-4,6.897c-2.5,3.9-5.2,7.803-8,11.603c-3.7,4.7-7.6,9.3-11.8,14.2
					c-2.4,2.8-4.8,5.6-7.2,8.6c-3.9,4.8-6.9,8.9-9.6,12.9c-3.1,4.8-5.8,9.697-7.9,14.6c-2.1,4.9-3.9,10.2-5.2,15.8
					c-1.1,4.7-2,9.603-2.7,16l-0.2,1.9c-0.1,1.3-0.2,2.7-0.3,4l-0.2,3.8l-5.5-0.3l0.2-3.9c0.1-1.397,0.2-2.8,0.3-4.1l0.2-1.9
					c0.8-6.7,1.6-11.897,2.8-16.8c1.4-5.9,3.3-11.5,5.5-16.7c2.2-5.2,5.1-10.397,8.3-15.5c2.7-4.2,5.9-8.397,9.9-13.397
					C-8.9,91.501-6.5,88.601-4.1,85.901z"/>
				<path d="M-1.8,102.301c2.3-2.8,4.7-5.6,7-8.3c4.1-4.8,8.3-9.7,12.1-14.7c3-4,5.8-8.1,8.4-12.1c1.3-2.103,2.6-4.3,3.9-6.7
					c1.5,1,3.1,1.9,4.7,2.8c-1.3,2.4-2.6,4.603-4,6.8c-2.6,4.2-5.6,8.4-8.7,12.5c-3.9,5.2-8.2,10.2-12.3,15
					c-2.3,2.7-4.7,5.5-6.9,8.2c-3.6,4.4-6.4,8.2-8.8,11.8c-2.7,4.2-5,8.5-6.9,12.803c-1.8,4.3-3.4,8.897-4.6,13.8
					c-1,4.1-1.8,8.6-2.4,14.397c-0.1,0.7-0.1,1.303-0.2,2c-0.1,1.2-0.2,2.303-0.3,3.4l-0.3,5.5l-5.5-0.3l0.3-5.5
					c0.1-1.2,0.2-2.4,0.3-3.603c0.1-0.6,0.1-1.3,0.2-2c0.7-6.1,1.5-10.8,2.5-15.1c1.3-5.2,2.9-10.1,4.9-14.7c2-4.6,4.4-9.2,7.3-13.6
					C-8.4,110.801-5.5,106.901-1.8,102.301z"/>
				<path d="M-6.9,133.101c3.1-7.397,7.7-14.397,14.7-23c2.1-2.6,4.4-5.197,6.7-8c4.2-4.899,8.5-10,12.6-15.399
					c3.2-4.3,6.3-8.7,9-13.103c1.4-2.197,2.8-4.6,4.2-7.1c1.6,0.9,3.2,1.7,4.9,2.5c-1.4,2.6-2.9,5.1-4.4,7.5
					c-2.8,4.5-6,9.1-9.3,13.5c-4.2,5.6-8.6,10.7-12.8,15.7c-2.3,2.7-4.5,5.3-6.7,7.897c-6.7,8.104-11,14.805-13.9,21.604
					c-1.6,3.6-2.9,7.6-3.9,11.8c-0.9,3.6-1.5,7.5-2.1,12.7c-0.1,0.7-0.1,1.3-0.2,2c-0.1,1-0.2,2-0.2,2.897l-0.1,2.603l-5.5-0.2
					l0.1-2.6c0.1-1,0.2-2.103,0.3-3.103c0.1-0.6,0.1-1.3,0.2-2c0.6-5.5,1.3-9.7,2.3-13.5C-10,141.301-8.6,137.001-6.9,133.101z"/>
			</g>
			<g>
				<path d="M93.4,151.201c-0.6-1.8-1.4-4.103-2.5-6.3c-3.4-7.4-8.1-13.603-13.7-18.5c-0.1-2.4-0.1-4.7,0-7
					c7.8,5.6,14.3,13.5,18.7,23.1c1.2,2.4,2.1,4.9,2.7,6.8L93.4,151.201z"/>
				<path d="M106,149.701c-1-3.103-2.2-6.603-3.8-9.9c0,0,0-0.1-0.1-0.1c-0.5-1.2-1.1-2.3-1.8-3.5c-0.3-0.5-0.6-1.103-0.8-1.603
					c-0.3-0.5-0.6-1-0.9-1.6c-0.7-1.2-1.4-2.3-2.1-3.3l-0.1-0.103c-1.9-2.897-4.3-5.8-7.3-8.897l-2.1-2.101
					c-0.4-0.397-0.9-0.8-1.4-1.197c-0.3-0.2-0.6-0.5-0.8-0.7l-1.1-0.9c-0.2-0.2-0.5-0.3-0.7-0.5l-2.8-2.1l-2.6-1.7
					c0.2-2,0.4-4,0.8-5.9l0.9,0.5c0,0,0.1,0,0.1,0.103c0.3,0.2,0.6,0.397,0.9,0.6l3,1.9c0.1,0,0.1,0.1,0.2,0.1l2.9,2.103
					c0.3,0.197,0.6,0.397,0.9,0.697l1.2,1c0.3,0.2,0.5,0.4,0.8,0.7c0.5,0.4,1.1,0.9,1.6,1.4l2.2,2.2c3.2,3.3,5.8,6.5,7.9,9.697
					c0.9,1.2,1.6,2.5,2.3,3.7c0.3,0.5,0.6,1,0.9,1.603c0,0.1,0.1,0.1,0.1,0.197c0.3,0.5,0.6,1.103,0.8,1.603
					c0.7,1.2,1.4,2.5,1.9,3.897c1.7,3.603,3,7.303,4.1,10.5L106,149.701z"/>
				<path d="M116.9,143.301c-1.2-3.5-2.3-6.3-3.5-8.7v-0.1c-0.6-1.5-1.4-2.9-2.2-4.4c-0.3-0.5-0.6-1.1-0.9-1.6
					c-0.3-0.5-0.6-1.1-1-1.6c-0.9-1.5-1.7-2.803-2.6-4.103c0,0,0-0.1-0.1-0.1c-2.3-3.5-5.2-7-8.7-10.603l-2.5-2.5
					c-0.6-0.5-1.2-1-1.8-1.6c-0.3-0.2-0.6-0.5-0.9-0.7l-1.3-1.1c-0.3-0.2-0.6-0.5-0.9-0.7l-3.3-2.4l-3.5-2.197
					c-0.3-0.2-0.6-0.4-0.9-0.603l-2.2-1.296c-0.3-0.1-0.5-0.3-0.8-0.4c0.4-1.8,0.8-3.6,1.4-5.5c0.7,0.4,1.4,0.7,2,1.103l2.4,1.3
					c0,0,0.1,0,0.1,0.1c0.4,0.2,0.7,0.5,1.1,0.7l3.6,2.3c0.1,0,0.1,0.103,0.2,0.103l3.4,2.5c0.4,0.3,0.7,0.5,1.1,0.897l1.4,1.2
					c0.3,0.2,0.6,0.5,0.8,0.7c0.7,0.6,1.3,1.1,2,1.8l2.6,2.603c3.8,3.897,6.8,7.6,9.3,11.397c1.1,1.5,2,3,2.9,4.5
					c0.3,0.5,0.6,1.103,1,1.603c0,0.1,0.1,0.1,0.1,0.197c0.3,0.5,0.6,1.103,0.9,1.603c0.8,1.5,1.7,3.1,2.4,4.7
					c1.3,2.697,2.4,5.6,3.7,9.3L116.9,143.301z"/>
			</g>
			<g>
				<path d="M-257.8-0.999l3.3-1.5c0.8-0.3,1.5-0.7,2.3-1.1l3.4-1.803c0.7-0.397,1.4-0.8,2.2-1.3c0.4-0.2,0.7-0.397,1.1-0.6l1.6-1
					l1.5-1c0.3-0.2,0.7-0.5,1-0.7c0.7-0.5,1.4-1,2.1-1.5c4-3,7.8-6.5,11.4-10.4c3.2-3.697,6.2-7.897,8.9-12.5
					c1.8-3.3,3.4-6.6,4.7-9.897c2.3-0.603,4.5-1.103,6.5-1.7c-1.7,4.7-3.8,9.5-6.5,14.3c-2.9,5-6.1,9.5-9.6,13.4
					c-3.8,4.2-7.9,8-12.2,11.2c-0.8,0.6-1.5,1.1-2.3,1.6c-0.3,0.2-0.7,0.5-1,0.7l-1.6,1.1l-0.1,0.103l-1.7,1
					c-0.4,0.197-0.7,0.397-1.1,0.6c-0.8,0.5-1.6,0.9-2.5,1.4l-3.4,1.697c-0.9,0.5-1.8,0.9-2.6,1.2l-3.4,1.5
					c-1.4,0.601-2.8,1.101-4.2,1.601c-0.6,0.197-1.2,0.397-1.7,0.6l-1.9-5.2c0.6-0.2,1.2-0.397,1.8-0.7
					C-260.4,0.001-259-0.499-257.8-0.999z"/>
				<path d="M-260.7-13.299c1.1-0.5,2.1-0.9,3.1-1.4c3.5-1.7,7.2-3.897,11-6.6c3.3-2.5,6.5-5.4,9.5-8.7c2.7-3.1,5.2-6.6,7.4-10.4
					c0.1-0.1,0.1-0.197,0.2-0.397c1.5-0.3,3-0.603,4.6-0.9c0.8-0.2,1.5-0.3,2.3-0.5c-0.7,1.5-1.5,3-2.3,4.5c-2.5,4.2-5.2,8-8.1,11.4
					c-3.2,3.6-6.7,6.7-10.3,9.397c-4.2,3-8.1,5.303-11.8,7.103c-1.1,0.6-2.3,1.1-3.4,1.6c-0.6,0.2-1.2,0.5-1.7,0.8h-0.1
					c-1.1,0.5-2.3,0.9-3.4,1.303c-0.6,0.197-1.2,0.397-1.8,0.697l-1.9-5.1c0.6-0.2,1.2-0.5,1.9-0.7c1.1-0.397,2.1-0.8,3.2-1.2
					C-261.9-12.799-261.3-12.999-260.7-13.299z"/>
				<path d="M-263.1-25.799l2.5-1.3c0.5-0.2,0.9-0.5,1.4-0.803c0.3-0.197,0.6-0.397,1-0.6l1.1-0.7l1-0.7
					c0.3-0.197,0.6-0.397,0.9-0.6c0.4-0.3,0.8-0.6,1.2-0.9c2.7-2,5.1-4.3,7.6-6.897c0.1-0.103,0.1-0.2,0.2-0.2
					c1.3-0.1,2.7-0.3,4.1-0.4c1.1-0.1,2.3-0.3,3.5-0.5c-1.2,1.7-2.4,3.303-3.7,4.803c-2.7,3-5.4,5.5-8.4,7.697c-0.5,0.4-1,0.7-1.5,1
					c-0.3,0.2-0.6,0.4-0.9,0.603l-1.1,0.8c-0.1,0-0.1,0.1-0.2,0.1l-1.2,0.7c-0.3,0.2-0.6,0.3-0.9,0.5c-0.5,0.3-1.1,0.603-1.7,1
					l-2.4,1.2c-0.7,0.4-1.3,0.6-1.9,0.9l-2.6,1.1l-2.2-5l2.6-1.1C-264.1-25.299-263.6-25.499-263.1-25.799z"/>
			</g>
			<g>
				<path d="M-147-20.499c-1.3-0.2-2.5-0.3-3.8-0.5c-4.7-7-8.9-15.2-13.2-23.7l-0.8-1.5c-5.6-11-11.5-22.397-19.8-33.2
					c-4.5-5.8-9.4-10.8-14.6-14.897c-5.8-4.603-12-8.2-18.3-10.8c-6.2-2.5-12.8-4.303-20.3-5.5l-5.2-0.603c-0.3,0-0.6-0.1-1-0.1
					c-0.5-0.103-1-0.103-1.5-0.103l-4.1-0.197c-1.2-0.103-2.4-0.103-3.6-0.103l-8,0.2l-2.9,0.2l-0.4-5.5l3-0.2c0.1,0,0.1,0,0.2,0
					l8.2-0.2c0,0,0,0,0.1,0c0,0,0,0,0.1,0c1.3,0,2.5,0.103,3.8,0.103l4.1,0.197c0.6,0,1.3,0.103,1.9,0.2c0.3,0,0.6,0.103,0.9,0.103
					l5.3,0.6h0.1c7.9,1.3,15,3.2,21.5,5.9c6.9,2.8,13.5,6.697,19.7,11.6c5.5,4.4,10.7,9.7,15.5,15.8
					c8.7,11.103,14.7,22.8,20.4,34.103l0.8,1.5c5.2,10.098,10.1,19.697,15.9,27.298C-144.5-20.099-145.7-20.299-147-20.499z"/>
				<path d="M-165.9-21.899c-0.3-0.5-0.6-1-0.9-1.5c-2.9-5.1-5.6-10.397-8.2-15.5l-0.6-1.197c-5.2-10.2-11.1-21.803-18.8-31.603
					c-3.9-5-8.2-9.3-12.6-12.897c-4.9-3.9-10-6.9-15.4-9.103c-5.2-2.1-10.9-3.7-17.3-4.7l-4.5-0.5c-0.3,0-0.6-0.1-0.9-0.1
					c-0.4-0.1-0.9-0.1-1.3-0.1l-6.9-0.303l-7.3,0.2l-8.1,0.7l-0.4-5.5l8.2-0.7c0.1,0,0.1,0,0.2,0l7.4-0.2c0,0,0,0,0.1,0h0.1l7,0.303
					c0.6,0,1.1,0.1,1.7,0.197c0.3,0,0.5,0.103,0.8,0.103l4.6,0.5h0.1c6.9,1.1,13,2.8,18.6,5c5.8,2.397,11.4,5.7,16.7,9.897
					c4.8,3.803,9.3,8.4,13.5,13.803c8,10.3,14.1,22.1,19.4,32.5l0.6,1.197c2.6,5.103,5.2,10.303,8.1,15.303c0.9,1.5,1.7,3,2.6,4.397
					C-161.6-21.799-163.8-21.899-165.9-21.899z"/>
				<path d="M-177.9-21.399c-0.6,0.103-1.2,0.103-1.8,0.2c-2.2-4-4.2-8-6.2-11.8l-0.7-1.4c-5.7-11.3-11-21.397-17.5-29.6
					c-6.7-8.6-14.2-14.6-22.9-18.1c-4.3-1.7-9-3-14.4-3.9l-3.9-0.4c-0.3,0-0.5-0.1-0.8-0.1c-0.4,0-0.7-0.1-1.1-0.1l-6.1-0.2
					l-6.5,0.2l-7.4,0.6l-0.4-5.5l7.5-0.6c0.1,0,0.1,0,0.2,0l6.7-0.2c0,0,0,0,0.1,0h0.1l6.2,0.2c0.5,0,1,0.1,1.5,0.1
					c0.2,0,0.4,0.1,0.7,0.1l4,0.4h0.1c5.9,1,11,2.3,15.7,4.2c9.5,3.897,17.9,10.6,25.2,19.8c6.8,8.6,12.2,18.9,18.1,30.5l0.7,1.4
					c2.3,4.5,4.7,9.197,7.3,13.8C-175.1-21.599-176.5-21.499-177.9-21.399z"/>
			</g>
			<g>
				<path d="M-184.1,48.101c4.1-5,7.6-9.697,10.5-14.6c3.2-5.2,5.6-10.3,7.4-15.5c1.9,0,3.8,0.1,5.7,0.2c-2,6.1-4.7,12-8.4,18.1
					c-3.1,5.103-6.7,10.103-11,15.3c-8,9.5-17.1,17.9-27.2,25c-2.8,1.9-5.5,3.7-8.3,5.303l-2.8-4.803c2.6-1.5,5.3-3.197,7.9-5.1
					C-200.5,65.301-191.7,57.201-184.1,48.101z"/>
				<path d="M-193.6,40.101c3.7-4.5,6.8-8.697,9.4-13c1.6-2.697,3-5.3,4.2-8c2-0.397,3.9-0.6,5.9-0.8c0.2,0,0.3,0,0.5,0
					c-1.5,3.9-3.5,7.8-5.8,11.7c-2.7,4.6-6,9-9.9,13.7c-7.3,8.7-15.6,16.3-24.7,22.8c-3.2,2.2-6.4,4.2-9.6,6l-2.6-4.8
					c3-1.603,6.1-3.603,9.1-5.7C-208.5,55.701-200.5,48.401-193.6,40.101z"/>
				<path d="M-203.1,32.201c2.2-2.603,4.1-5.2,5.9-7.7c0.2-0.1,0.4-0.2,0.6-0.3c0.6-0.3,1.3-0.603,1.8-0.8l3.8-1.4
					c0.8-0.3,1.5-0.5,2.3-0.7c-0.4,0.8-0.9,1.5-1.3,2.3c-2.4,4-5.3,8.103-8.8,12.2c-6.5,7.7-14.2,14.8-22.3,20.603
					c-2.8,2-5.7,3.697-8.4,5.3l-2.7-4.8c2.6-1.4,5.3-3.103,7.9-5C-216.6,46.301-209.2,39.501-203.1,32.201z"/>
			</g>
			<g>
				<path d="M131.2,130.601l-0.5-1.397c-0.7-2.103-1.4-4-2.2-5.8c0,0,0-0.103-0.1-0.103c-2.7-6.2-5.9-11.3-9.6-15.8
					c-3.8-4.6-8.5-8.9-13.9-12.9c-10.5-7.8-23-13.697-37.1-20.1l-1.7-0.8c-6.3-2.9-12.8-5.9-19.3-9.2c-8.5-4.3-15.4-8.4-21.5-12.7
					c-6.8-4.8-12.8-10.2-17.8-16c0.1-0.3,0.2-0.6,0.3-0.897c0.6-1.7,1.3-3.4,1.8-5.103c0.1,0.101,0.2,0.2,0.3,0.4
					c5,6.2,11.3,12,18.5,17.1c5.9,4.2,12.5,8.103,20.8,12.3c6.4,3.303,12.9,6.2,19.1,9.103l1.8,0.8c14.4,6.5,27.2,12.6,38.1,20.7
					c5.7,4.2,10.7,8.897,14.8,13.8c4.1,4.8,7.5,10.4,10.4,17c1,2.1,1.8,4.3,2.5,6.4l0.5,1.3L131.2,130.601z"/>
				<path d="M143.4,127.901c-0.3-0.803-0.5-1.603-0.8-2.303c-0.8-2.5-1.7-4.897-2.7-7.1v-0.1c-3.1-7.103-7-13.4-11.4-18.7
					c-4.5-5.4-9.9-10.4-16.1-15C99.9,75.601,85.6,69.001,73,63.201l-2.7-1.2c-12.8-5.9-26-11.9-37.8-20.3
					c-6.8-4.7-12.5-10.101-17.2-15.9c-1.1-1.3-2.1-2.7-3-4c0.7-2.397,1.3-4.7,1.9-7.1c1.6,2.7,3.4,5.3,5.4,7.7
					c4.3,5.399,9.8,10.399,16.1,14.899c11.4,8.101,24.3,14,36.9,19.8l2.7,1.2c12.9,5.9,27.5,12.603,40.3,22
					c6.6,4.8,12.3,10.2,17,15.9c4.8,5.6,8.9,12.3,12.2,19.897c1.2,2.5,2.1,5.103,3,7.7c0.3,0.8,0.5,1.5,0.8,2.3L143.4,127.901z"/>
				<path d="M155.4,124.801c-0.3-1-0.7-1.897-1-2.897c-1-3-2-5.803-3.3-8.603c-3.6-8.2-8-15.397-13.2-21.6
					c-5.1-6.2-11.3-11.9-18.3-17.103c-5.9-4.298-12.6-8.498-20.6-12.697c-6.7-3.5-13.5-6.7-20.1-9.7l-2.2-1
					c-13.5-6.2-26.3-12-37.1-19.7c-5.8-4.1-10.8-8.7-14.8-13.6c-3.3-4.103-6.1-8.7-8.5-13.5c0.7-3.7,1.3-6.9,1.7-10.4
					c3.7,9.8,6.6,15,11,20.4c3.6,4.5,8.2,8.697,13.7,12.6c10.5,7.6,23.1,13.3,36.4,19.4l2.2,1c6.6,3,13.5,6.197,20.3,9.8
					c8.2,4.3,15.2,8.6,21.3,13.1c7.4,5.4,13.9,11.5,19.2,18c5.5,6.5,10.2,14.2,14,22.8c1.4,3,2.5,6.103,3.5,9.103
					c0.3,1,0.6,1.897,1,2.897L155.4,124.801z"/>
			</g>
			<g>
				<g>
					<path d="M245.3-24.899c0.9-0.6,1.7-1.1,2.6-1.6c0.7-0.4,1.3-0.8,1.9-1.2l1.1-0.6c0.7,0.2,1.5,0.397,2.2,0.6
						c3.6,0.9,7,1.7,10.2,2.3c2.7,0.5,5.1,0.9,7.3,1.103l-0.6,5.5c-2.4-0.3-4.9-0.603-7.7-1.2c-3.3-0.6-6.9-1.4-10.6-2.4
						c-2.3-0.6-4.7-1.3-7.1-2L245.3-24.899z"/>
					<path d="M205.5-42.599c-0.6,0.697-1.1,1.3-1.6,1.897c-1.1-0.6-2.3-1.2-3.4-1.8c-5.7-3.1-10.4-6-14.3-8.9
						c1.6-0.897,3.2-1.697,4.7-2.6c0.2-0.1,0.4-0.2,0.7-0.4c3.3,2.2,7.1,4.5,11.5,7c1.5,0.803,3,1.603,4.6,2.4L205.5-42.599z"/>
				</g>
				<g>
					<path d="M197.4-32.099c-0.2,0.3-0.4,0.6-0.6,0.897c-0.1,0.2-0.2,0.4-0.4,0.5c-0.6-0.3-1.2-0.7-1.8-1c-5.6-3.1-13-7.3-19.7-12.8
						c-0.2-0.2-0.4-0.4-0.7-0.6c1.8-0.9,3.6-1.9,5.3-2.803c6,4.803,12.6,8.603,17.7,11.4c0.8,0.4,1.5,0.8,2.3,1.2L197.4-32.099z"/>
					<path d="M234.3-14.899c0.3-0.3,0.5-0.697,0.7-0.8l3.1-3.3c0.1-0.1,0.1-0.1,0.2-0.2c0.3,0.103,0.6,0.2,0.9,0.3
						c3.6,1.2,7.3,2.2,10.9,3.2c3.9,1,7.5,1.8,11,2.5c3.9,0.7,7.4,1.2,10.6,1.5l-0.4,5.5c-3.4-0.3-7-0.8-11.2-1.5
						c-3.7-0.7-7.4-1.5-11.4-2.6c-3.7-1-7.5-2-11.2-3.2c-1.1-0.4-2.2-0.7-3.3-1.1C234.2-14.799,234.2-14.799,234.3-14.899z"/>
				</g>
				<g>
					<path d="M227.6-4.999l2-3.5c0-0.1,0.1-0.2,0.3-0.4c1.8,0.603,3.7,1.2,5.5,1.803c3.9,1.197,7.7,2.397,11.5,3.3
						c4.2,1.1,8.1,2,11.9,2.7c3.5,0.6,6.5,1.1,9.5,1.397l-0.6,5.5c-3.1-0.3-6.3-0.8-9.9-1.5c-4-0.7-8-1.6-12.3-2.8
						c-3.9-1-7.9-2.2-11.8-3.4c-2.2-0.699-4.3-1.399-6.5-2.199L227.6-4.999z"/>
					<path d="M191.7-22.399l-1.2,2.603c0,0,0,0,0,0.1c-0.6-0.3-1.2-0.7-1.8-1c-6.5-3.6-14.2-8.1-21.7-14.2
						c-1.5-1.3-3.1-2.697-4.7-4.197c1.8-0.803,3.5-1.603,5.3-2.5c0.9,0.8,1.9,1.697,2.9,2.5c7.1,5.8,14.2,10,20.8,13.6
						c0.6,0.3,1.1,0.6,1.7,0.9L191.7-22.399z"/>
				</g>
			</g>
			<g>
				<g>
					<path d="M-96.6,142.501c0.1-0.3,0.2-0.6,0.3-0.8l1.2-2.9c3-7.7,4.9-16,5.6-24.8l0,0c1.9-0.1,3.8-0.2,5.5-0.2
						c0,0.2,0,0.4,0,0.603c-0.7,9.3-2.7,18.1-5.9,26.397l-1.2,3c-0.1,0.3-0.2,0.5-0.3,0.8c-0.3,0.803-0.7,1.603-1.1,2.303l-1,1.897
						l-4.9-2.5l1-1.897C-97.1,143.801-96.9,143.201-96.6,142.501z"/>
					<path d="M-91.5,43.601c0.8,6,1.8,12,2.9,18.4c0.7,4,1.4,8,2,12.1c-1.8,0-3.6,0.103-5.5,0.2c-0.6-3.8-1.3-7.6-1.9-11.397
						c-1.1-6.4-2.2-12.5-3-18.603c-2.3-16.7-2.1-30,0.5-41.897c2.2-10.603,6.9-20.902,13.8-30.803l1.7,0.101c1.2,0.1,2.4,0,3.5,0
						c0.4,0,0.8,0,1.3,0h0.3h0.1c-7.8,10.3-12.9,21-15.2,32C-93.5,14.801-93.7,27.501-91.5,43.601z"/>
				</g>
				<g>
					<path d="M-108.6,139.101c0.2-0.397,0.4-0.897,0.7-1.5c0.1-0.3,0.2-0.5,0.3-0.697l1-2.5c2.3-5.803,3.8-12.2,4.5-18.803l2.8-0.5
						l1.5-0.197c0.4-0.103,0.9-0.103,1.3-0.2c-0.7,7.7-2.4,15-5,21.8l-1.1,2.6c-0.1,0.2-0.2,0.4-0.3,0.7
						c-0.3,0.603-0.5,1.3-0.9,2.103l-1.5,3l-4.9-2.5L-108.6,139.101L-108.6,139.101z"/>
					<path d="M-105.4,22.901c0,6.697,0.5,14,1.6,22.3c0.9,6.397,2,12.897,3.1,19.1c0.6,3.4,1.2,6.9,1.8,10.5
						c-1.5,0.2-3,0.4-4.6,0.603l-0.9,0.1c-0.6-3.4-1.1-6.9-1.7-10.2c-1.1-6.3-2.2-12.8-3.1-19.3c-1.2-8.5-1.7-16-1.7-23
						c0-8.1,0.8-15.9,2.4-23.1c2.1-10.103,6.3-20.2,12.2-29.803c0.4,0.103,0.8,0.2,1.2,0.303l0.3,0.1c1.1,0.2,2.2,0.3,3.3,0.5
						l1.1,0.2c-6.2,9.6-10.5,19.8-12.7,30C-104.6,7.801-105.4,15.201-105.4,22.901z"/>
				</g>
				<g>
					<path d="M-104.7-29.299c-0.7,1.3-1.5,2.5-2,3.8c0,0,0,0.1-0.1,0.1c-3.7,7.103-6.5,15-8.4,23.603c-1.7,7.7-2.6,16-2.6,24.6
						c0,7.3,0.6,15.103,1.8,24c0.9,6.8,2.1,13.5,3.2,19.9c0.6,3.397,1.1,6.7,1.7,10l-1.2,0.2c-1.4,0.3-2.8,0.697-4.2,1
						c-0.5-3.4-1.1-6.803-1.7-10.303c-1.1-6.5-2.3-13.197-3.2-20.1c-1.2-9.1-1.8-17.1-1.8-24.7c0-9,0.9-17.7,2.7-25.8
						c2-9,5-17.3,8.8-24.8c0.7-1.5,1.5-2.9,2.3-4.2c0.2-0.4,0.5-0.8,0.7-1.3c1.7,0.6,3.5,1.1,5.4,1.6l-0.5,0.8
						C-104.1-30.399-104.4-29.799-104.7-29.299z"/>
					<path d="M-119.8,133.701c0.2-0.3,0.3-0.7,0.5-1.103c0.1-0.197,0.2-0.5,0.3-0.697l0.9-2.103c1.3-3.3,2.3-6.8,3-10.5l0.9-0.397
						c0.9-0.303,1.8-0.603,2.8-1c0.7-0.2,1.4-0.5,2.1-0.7l0,0c-0.8,5.1-2,10-3.8,14.6l-0.9,2.2c-0.1,0.2-0.2,0.4-0.2,0.6
						c-0.2,0.5-0.5,1.103-0.8,1.803l-2.1,4l-4.9-2.5l2.1-4.103C-119.8,133.801-119.8,133.801-119.8,133.701z"/>
				</g>
			</g>
			<g>
				<g>
					<path d="M-52.8,149.301c1.7-12.397,4.9-24.6,9.5-36.3c2.2-5.8,4.9-11.4,7.7-16.8c1.5,1.2,3,2.397,4.4,3.5
						c-2.5,5-4.9,10.1-6.9,15.3c-4.5,11.2-7.6,23-9.2,35.1c-0.4,2.2-0.6,4.4-0.8,6.7c-0.1,1.103-0.2,2.3-0.3,3.4l-5.5-0.603
						c0.1-1.1,0.2-2.197,0.3-3.3C-53.4,154.001-53.2,151.601-52.8,149.301z"/>
				</g>
				<g>
					<path d="M-65.1,147.601c1.8-13.397,5.3-26.6,10.3-39.1c2.7-7,5.9-13.7,9.3-20.2c1.5,1.2,2.9,2.4,4.4,3.5
						c-3.1,6-6,12.2-8.6,18.7c-4.8,12.1-8.2,24.9-10,37.9c-0.4,2.397-0.6,4.8-0.9,7.3c-0.1,1.2-0.2,2.3-0.4,3.5l-5.5-0.603
						c0.1-1.1,0.2-2.3,0.3-3.397C-65.7,152.701-65.5,150.101-65.1,147.601z"/>
				</g>
				<g>
					<path d="M-77.3,145.901c2-14.4,5.7-28.5,11-41.9c3.3-8.4,7.2-16.4,11.2-23.9c1.4,1.303,2.8,2.5,4.2,3.803
						c-3.7,7-7.3,14.397-10.3,22.197c-5.2,13.103-8.8,26.7-10.7,40.7c-0.4,2.603-0.7,5.3-0.9,8l-0.2,1.7l-5.5-0.5l0.2-1.7
						C-78,151.401-77.8,148.601-77.3,145.901z"/>
				</g>
			</g>
			<g>
				<g>
					<path d="M5.7,130.901c0.1-0.103,0.2-0.303,0.3-0.4c1.1,3,1.9,6,2.5,9.1c0.2,0.603,0.3,1.2,0.3,1.803c0,0.197,0.1,0.397,0.1,0.6
						l0.7,4.4c0,0.1,0,0.197,0,0.197l0.2,2.303c0,0.6,0.1,1.197,0.1,1.8c0.1,0.897,0.1,1.897,0.2,2.8v0.1v4.603c0,0.3,0,0.6,0,0.8
						c0,0.601,0,1.101,0,1.8l-0.5,7.5l-5.5-0.403l0.5-7.4c0-0.5,0-1,0-1.4c0-0.3,0-0.6,0-0.897v-4.5c0-0.9-0.1-1.7-0.2-2.603
						c0-0.6-0.1-1.197-0.1-1.8l-0.2-2.3l-0.6-4.3c0-0.2-0.1-0.5-0.1-0.7c-0.1-0.4-0.1-0.8-0.2-1.1c0-0.103,0-0.2-0.1-0.2
						c-0.2-1-0.4-2-0.7-3C3.4,135.301,4.5,133.101,5.7,130.901z"/>
					<path d="M-73.5,32.201c1.4,5.6,3.4,11.1,6,16c3.4,6.397,8,12.7,13.7,18.8c5.4,5.6,11,10.4,16.3,14.6c2.1,1.7,4.2,3.4,6.2,5
						c3.4,2.7,6.6,5.2,9.7,7.9c0.9,0.7,1.7,1.4,2.5,2.1c-1.2,1.5-2.3,3-3.3,4.4c-0.9-0.8-1.8-1.5-2.7-2.3
						c-3.1-2.603-6.3-5.103-9.6-7.8c-2.1-1.603-4.2-3.303-6.3-5c-5.4-4.4-11.2-9.301-16.8-15.101c-6.1-6.397-11-13.1-14.6-20
						c-2.9-5.6-5.2-11.8-6.7-18.2C-77.2,32.401-75.4,32.301-73.5,32.201z"/>
				</g>
				<g>
					<path d="M14.4,118.401c2.9,6,5,12.3,6.2,18.697c0.2,0.7,0.3,1.4,0.4,2c0,0.2,0.1,0.5,0.1,0.7l0.8,5.103c0,0.1,0,0.1,0,0.197
						l0.2,2.603c0,0.6,0.1,1.2,0.1,1.8c0.1,1.1,0.2,2.3,0.2,3.4v0.1v5.2c0,0.3,0,0.6,0,0.897c0,0.603,0,1.303,0,2l-0.3,4.7
						l-5.5-0.397l0.3-4.7c0-0.5,0-1.103,0-1.603c0-0.3,0-0.697,0-1v-5.098c0-1.1-0.1-2.1-0.2-3.2c0-0.6-0.1-1.2-0.1-1.8l-0.2-2.5
						l-0.7-5c0-0.3-0.1-0.5-0.1-0.8c-0.1-0.5-0.1-1-0.3-1.5c0-0.103,0-0.103,0-0.2c-1-5-2.5-10-4.6-14.8
						C11.7,121.801,13,120.201,14.4,118.401z"/>
					<path d="M-62.9,30.301l1.4-0.3h0.1c1.1,4.4,2.7,8.5,4.8,12.4c2.8,5.397,6.8,10.8,11.7,16c6.5,6.697,14,12.6,21.3,18.3
						c3.3,2.6,6.7,5.397,10.1,8.1c0.8,0.7,1.6,1.3,2.3,2c-1.2,1.4-2.3,2.8-3.5,4.2c-0.8-0.7-1.5-1.3-2.3-2c-3.2-2.7-6.6-5.4-9.9-8
						c-7.4-5.9-15-11.9-21.7-18.9c-5.3-5.6-9.6-11.399-12.6-17.199c-2.3-4.303-4-8.9-5.3-13.7C-65.4,30.901-64.1,30.601-62.9,30.301
						z"/>
				</g>
				<g>
					<path d="M22.3,108.901c0.2-0.303,0.4-0.5,0.7-0.803c0.6,1.103,1.2,2.2,1.7,3.2c3.8,7.5,6.5,15.3,8,23.3
						c0.2,0.803,0.3,1.603,0.4,2.303c0,0.3,0.1,0.5,0.1,0.8l0.9,5.8c0,0.1,0,0.1,0,0.2l0.2,2.897c0,0.603,0.1,1.2,0.1,1.803
						c0.1,1.397,0.2,2.697,0.3,4.1v0.1v5.803c0,0.3,0,0.697,0,1c0,0.697,0,1.397,0,2.197l-0.2,3l-5.5-0.399l0.2-2.9
						c0-0.6,0-1.2,0-1.897c0-0.4,0-0.7,0-1v-5.7c-0.1-1.3-0.1-2.603-0.2-3.8c0-0.603-0.1-1.2-0.1-1.803l-0.2-2.8l-0.8-5.7
						c0-0.3-0.1-0.6-0.1-0.897c-0.1-0.603-0.2-1.2-0.3-1.8c0-0.103,0-0.103,0-0.2c-1.5-7.5-4-14.9-7.6-21.9
						c-0.2-0.397-0.4-0.8-0.6-1.2C20.2,111.401,21.3,110.201,22.3,108.901z"/>
					<path d="M-52,27.001c0.8-0.3,1.6-0.6,2.4-0.9c0.9,3.803,2.2,7.303,4,10.603c2.3,4.397,5.5,8.8,9.7,13.2
						c5.6,5.897,12.5,11.397,19.8,17.197c3.4,2.7,6.9,5.5,10.4,8.4c0.8,0.7,1.6,1.4,2.4,2c-1.1,1.4-2.3,2.8-3.5,4.2
						c-0.8-0.7-1.6-1.3-2.4-2c-3.4-2.9-6.9-5.603-10.3-8.3c-7.5-5.9-14.5-11.601-20.4-17.7c-4.6-4.8-8.1-9.5-10.6-14.4
						c-1.8-3.5-3.2-7.2-4.3-11.2C-53.8,27.701-52.9,27.401-52,27.001z"/>
				</g>
			</g>
			<g>
				<path d="M-202.7-52.299c-6.5,1.8-13.2,3.6-20.1,5.1c-8.5,1.9-15.6,3.103-22.4,3.8c-8.1,0.803-16.2,0.9-23.9,0.103
					c-2.6-0.3-5.4-0.7-8.2-1.2l1-5.4c2.7,0.5,5.3,0.9,7.7,1.103c7.4,0.7,15,0.7,22.8-0.103c6.6-0.6,13.5-1.8,21.8-3.697
					c6.5-1.5,12.8-3.2,18.9-4.803l0.5,0.7c0.6,0.8,1.2,1.8,1.8,2.8c0.3,0.4,0.6,0.9,0.8,1.303l0,0L-202.7-52.299z"/>
				<path d="M-128.7-51.999l0.8,0.4c6.1,2.6,12.5,5.197,19.2,7.6c8.4,2.9,15.5,4.5,22.5,5.2l6.2,0.3c2.2,0,4.1-0.1,5.9-0.2
					c4.2-0.3,8.2-1,12.1-2c9.8-2.6,16.2-6.7,23.4-13.397c0.8-0.7,1.5-1.5,2.3-2.2c-0.6,3.3-1.3,6.3-2,9.3c-6.5,5.6-13,9.3-22.3,11.8
					c-4.1,1.103-8.5,1.8-13,2.2c-1.9,0.2-3.8,0.2-6.1,0.2c-0.2,0-0.3,0-0.5,0l-6.3-0.3h-0.1c-7.4-0.7-15-2.5-23.8-5.5
					c-6.9-2.4-13.4-5.103-19.6-7.7l-0.8-0.4c-5.6-2.397-12.2-5.1-18.4-7.1c-3.5-1.2-6.6-2-9.5-2.7c-0.7-1.4-1.4-2.7-2.2-4.1
					c-0.4-0.7-0.8-1.4-1.1-2.103c4.2,0.7,8.8,1.9,14.5,3.7C-141.1-57.199-134.4-54.499-128.7-51.999z"/>
				<path d="M-225.6-59.199c-16.5,3.7-29.9,4.9-42.4,3.603c-3.2-0.303-6.5-0.9-10.1-1.603l1.2-5.397c3.4,0.697,6.5,1.197,9.5,1.5
					c11.8,1.197,24.7,0.1,40.6-3.5c4.3-1,8.6-2.103,12.9-3.2c1.5,1.397,2.9,2.897,4.3,4.6C-214.9-61.799-220.2-60.399-225.6-59.199z
					"/>
				<path d="M-34.3-69.699c0,0.103,0,0.3,0,0.4c-8,11.8-17,18.5-29.4,21.8c-6.9,1.8-14.2,2.4-21.7,1.7c-6.4-0.603-13.1-2.2-20.9-4.9
					c-6.4-2.2-12.7-4.8-18.8-7.397c-6.5-2.7-13.3-5.603-20.1-7.803c-7.9-2.6-14-4-19.7-4.5c-0.1,0-0.1,0-0.2,0
					c-0.3-0.1-0.6-0.1-1-0.1c-0.5-0.8-1-1.7-1.5-2.5l-0.1-0.2c-0.4-0.6-0.8-1.2-1.2-1.8c-0.2-0.4-0.5-0.8-0.7-1.1l2.7,0.1
					c0.8,0,1.7,0.1,2.6,0.2c6.2,0.6,12.6,2,20.9,4.7c7,2.3,13.9,5.197,20.5,8c6,2.5,12.2,5.1,18.5,7.3c7.4,2.5,13.7,4,19.7,4.6
					c6.9,0.603,13.5,0.103,19.8-1.5c9.9-2.6,22.2-9.2,31.2-27.1c0.3-0.5,0.5-1.103,0.7-1.603C-33.5-77.399-33.9-73.399-34.3-69.699z
					"/>
				<path d="M-266.7-67.899c-3-0.3-6.1-0.8-9.6-1.6l1.2-5.4c3.3,0.7,6.2,1.2,8.9,1.5c10.4,1.103,22.1,0,36.6-3.3
					c0.7-0.2,1.4-0.3,2-0.5c2,0.9,3.9,1.9,5.7,3.103c0.4,0.3,0.9,0.6,1.3,0.897c-2.6,0.7-5.2,1.3-7.8,1.9
					C-243.4-67.799-255.6-66.799-266.7-67.899z"/>
				<path d="M-79.7-57.899c-0.1,0-0.3,0-0.4,0c-1.4-0.1-2.7-0.1-4.1-0.197c-0.1,0-0.1,0-0.2,0c-5.4-0.5-11.3-1.9-18.1-4.2
					c-5.7-1.9-11.5-4.4-17.6-6.9c-6.8-2.899-13.9-5.801-21.5-8.399c-3-1-6.4-2-10.8-3.103l-5.7-1.2l-6-0.8c-0.8-0.1-1.6-0.2-2.6-0.2
					l-3.2-0.1c-0.4,0-0.7,0-1.1,0c-0.6,0-1.2-0.1-1.8,0c-0.4,0-0.7,0-1.1,0c-0.3,0-0.5,0-0.8,0l-1.9-2.5c-0.7-0.9-1.4-1.8-2.2-2.7
					c0.8-0.1,1.6-0.1,2.4-0.2c0.8-0.1,1.6-0.1,2.4-0.1c0.3,0,0.7,0,1,0c0.9,0,1.6,0,2.3,0c0.3,0,0.6,0,1,0l3.3,0.1
					c1,0,2.1,0.103,3.1,0.303l6,0.8c0.1,0,0.1,0,0.2,0l5.8,1.2h0.1c4.6,1.1,8.2,2.197,11.3,3.197c7.8,2.603,14.9,5.603,21.9,8.5
					c6,2.5,11.7,4.9,17.2,6.803c6.4,2.197,11.8,3.5,16.8,4c1.3,0.1,2.7,0.1,4,0.197c23.3,0.103,40.1-17.197,40.1-49v-7.1v-50h5.5v50
					v7.1C-34.3-77.499-53-57.899-79.7-57.899z"/>
			</g>
			<g>
				<path d="M-231.2,34.301c0.9-0.8,1.9-1.7,2.8-2.397l5.2-4.103l0.1-0.1l3.2-2.2c2.1-1.6,4.4-3,6.5-4.3c0.8-0.5,1.6-1,2.4-1.5
					c0,0,0.1,0,0.1-0.103c6.5-3.6,12.9-6.397,19.1-8.3c6.6-2.1,13.4-3.3,20.3-3.6c6.6-0.4,13.4,0,21,1.2c7.7,1.197,15.2,3,21.6,4.6
					c0.4,0.1,0.7,0.2,1.1,0.3c-0.1,1.8-0.2,3.7-0.3,5.603c-0.7-0.2-1.5-0.4-2.2-0.603c-6.2-1.6-13.6-3.397-21-4.5
					c-7.2-1.1-13.7-1.5-19.9-1.1c-6.4,0.3-12.8,1.5-18.9,3.397c-5.8,1.803-11.9,4.5-18,7.9c-0.8,0.5-1.6,1-2.4,1.5
					c-2.1,1.3-4.2,2.5-6.2,4l-3.2,2.2l-5.2,4.1c-0.8,0.603-1.7,1.3-2.5,2.103c-0.4,0.397-0.8,0.697-1.2,1.1l-1.3,1.1l-3.6-4.1
					l1.3-1.2C-231.9,35.001-231.6,34.701-231.2,34.301z"/>
				<path d="M-81.4,22.201h1.7c0.3,0,0.6,0,1,0l4.1-0.3c0.6,0,1.3-0.103,2.1-0.2c0.4-0.103,0.8-0.103,1.1-0.2
					c0.4-0.1,0.8-0.1,1.2-0.2c0.7-0.1,1.4-0.2,2.1-0.3l5.1-1.2l1.5-0.397c1.2-0.4,2.1-0.603,3-0.9c1-0.3,2-0.7,3-1.1
					c4.3-1.603,8.3-3.5,11.9-5.7c3.9-2.3,7.6-5.2,10.8-8.4c3.9-3.8,8-9.397,11.6-15.6c-0.4,3.2-0.9,6.397-1.5,9.5
					c-0.2,1.2-0.5,2.397-0.8,3.7c-1.7,2.197-3.5,4.298-5.6,6.397c-3.6,3.5-7.5,6.7-11.8,9.2c-3.9,2.3-8.2,4.4-12.8,6.1
					c-1.1,0.4-2.2,0.803-3.2,1.103s-2,0.6-3.2,1l-1.6,0.5h-0.1l-5.2,1.2c-0.9,0.197-1.7,0.3-2.5,0.397c-0.4,0.103-0.7,0.103-1.2,0.2
					c-0.4,0-0.7,0.1-1.1,0.2c-0.8,0.1-1.7,0.3-2.5,0.3l-4,0.3c-0.4,0-0.9,0.103-1.3,0.103h-1.7h-0.1c-2.2,0-4.4-0.103-6.6-0.2
					c-0.1-1.9-0.1-3.8-0.1-5.5C-85.9,22.101-83.7,22.201-81.4,22.201L-81.4,22.201z"/>
				<path d="M-239.2,24.901c1-0.9,2-1.803,3.1-2.603l5.7-4.5l0.1-0.1l3.5-2.4c2.4-1.8,5-3.397,7.5-4.897c0.8-0.5,1.6-1,2.4-1.5
					c0,0,0.1,0,0.1-0.103c7.3-4.1,14.5-7.2,21.6-9.397c7.5-2.4,15.4-3.803,23.3-4.2c7.4-0.4,15.1,0,23.5,1.3
					c7.5,1.1,15,2.9,22.3,4.7c-0.3,1.8-0.6,3.6-0.8,5.5c-7.3-1.9-14.8-3.603-22.3-4.8c-8-1.2-15.3-1.603-22.4-1.2
					c-7.4,0.399-14.8,1.7-21.9,3.899c-6.7,2.101-13.6,5.101-20.5,8.9c-0.8,0.5-1.6,1-2.4,1.5c-2.5,1.5-4.8,2.9-7.1,4.6l-3.5,2.4
					l-5.6,4.4c-0.9,0.697-1.8,1.5-2.8,2.3c-0.4,0.397-0.8,0.8-1.3,1.1l-4.1,3.603l-3.6-4.103l4.2-3.6
					C-240,25.601-239.6,25.301-239.2,24.901z"/>
				<path d="M-19.8-37.999l-0.1,5.1c-3.2,12-9.9,24.2-17.6,31.4c-5.6,5.3-12.5,9.4-20.4,12.4c-0.9,0.397-1.9,0.697-2.8,1
					c-0.8,0.3-1.7,0.6-2.9,0.897l-1.4,0.4c-0.1,0-0.1,0-0.2,0l-4.2,1c-0.7,0.2-1.4,0.3-2.1,0.397c-0.3,0-0.6,0.103-0.9,0.103h-0.1
					c-0.3,0-0.6,0.1-0.9,0.1c-0.7,0.103-1.4,0.2-2.1,0.2l-3.4,0.2c-0.4,0-0.7,0.1-1.1,0.1h-1.4c-2.1,0-4.3-0.1-6.5-0.3
					c0.2-1.8,0.4-3.7,0.7-5.5c2,0.1,3.9,0.2,5.7,0.2h0.1h1.4c0.2,0,0.5,0,0.7,0c0.2,0,0.4,0,0.5,0l2.9-0.2c0.5,0,1-0.1,1.6-0.2
					c0.3-0.1,0.7-0.1,1-0.2c0.3-0.098,0.7-0.098,1-0.098c0.6-0.1,1.1-0.1,1.6-0.3l4.1-1l1.3-0.4c1.1-0.3,1.9-0.6,2.6-0.8h0.1
					c0.9-0.3,1.7-0.6,2.6-0.9c7.4-2.6,13.7-6.3,18.7-11.1c11-10.4,17.2-28.3,21.5-45.6v6.5c0,0.8,0,1.6,0,2.397
					C-19.8-40.799-19.8-39.299-19.8-37.999z"/>
				<path d="M-147.6-10.099c-8.7-1.303-17.1-1.803-24.9-1.4c-8.4,0.5-16.8,2-24.9,4.5c-7.5,2.3-15.3,5.7-23,10
					c-0.8,0.5-1.5,0.9-2.3,1.4c-2.7,1.697-5.5,3.397-8.1,5.3l-3.8,2.7l-6.1,4.8c-1,0.8-2,1.6-3,2.5c-0.4,0.397-0.9,0.8-1.3,1.1
					l-2.4,2.103l-3.6-4.103l2.5-2.2c0.4-0.397,0.9-0.697,1.3-1.1c1.1-0.9,2.1-1.9,3.3-2.8l6-4.7l0.1-0.1l3.8-2.7
					c2.7-2,5.6-3.8,8.5-5.5c0.8-0.5,1.6-0.9,2.3-1.4c0,0,0.1,0,0.1-0.1c8-4.5,16.1-8.103,24.1-10.5c8.5-2.7,17.3-4.2,26.3-4.7
					c8.1-0.4,16.9,0,26,1.4c8.1,1.197,15.8,3,23.2,4.897c-0.5,1.8-1,3.5-1.4,5.3C-132.2-7.199-139.8-8.899-147.6-10.099z"/>
				<path d="M-28-46.099c-0.1,0.5-0.2,0.897-0.4,1.397c-0.3,1.2-0.6,2.5-1,3.7l-0.7,2.5v0.1l-0.8,2.4c-0.4,1.2-0.8,2.3-1.2,3.4
					c-0.2,0.5-0.4,1-0.6,1.6c-0.2,0.5-0.4,1-0.6,1.5c-0.1,0.3-0.2,0.6-0.4,0.8c-0.4,0.9-0.8,1.7-1.1,2.4c-3,6.3-6.8,11.7-11.2,15.8
					c-4.4,4.2-9.8,7.4-16.3,9.8c-0.8,0.3-1.6,0.603-2.3,0.8h-0.1c-0.9,0.303-1.8,0.603-2.5,0.803l-1.2,0.399c-0.1,0-0.1,0-0.2,0
					l-3.2,0.7c-0.6,0.1-1.2,0.2-1.7,0.3c-0.2,0-0.5,0.101-0.7,0.101h-0.1c-0.2,0-0.5,0.1-0.7,0.1c-0.5,0.1-1.1,0.2-1.7,0.2l-2.7,0.2
					c-0.3,0-0.6,0-1,0h-1.2c-1.4,0-2.9,0-4.4-0.103c0.5-1.897,1-3.7,1.6-5.397c1,0,1.9,0.1,2.9,0.1h1.1c0.2,0,0.4,0,0.5,0
					c0.2,0,0.3,0,0.5,0l2.4-0.1c0.3,0,0.7-0.103,1.1-0.103c0.3,0,0.6-0.1,0.9-0.1s0.6-0.103,0.9-0.103c0.4,0,0.8-0.1,1.1-0.197
					l3.2-0.7l1.1-0.3c0.6-0.2,1.4-0.4,2.3-0.7h0.1c0.7-0.2,1.4-0.5,2.1-0.7c5.9-2.2,10.6-5,14.5-8.7c3.9-3.7,7.2-8.397,10-14.3
					c0.3-0.6,0.6-1.2,0.9-2c0.1-0.3,0.3-0.6,0.4-0.9c0.2-0.397,0.4-0.897,0.5-1.3c0.2-0.5,0.4-1.1,0.6-1.6c0.4-1,0.8-2,1.1-3.103
					l0.8-2.397l0.7-2.5c0.3-1.103,0.6-2.3,0.9-3.5c0.1-0.5,0.2-1,0.4-1.4c1.5-6.3,2.7-13.1,3.7-20.897
					c1.5-12.801,2.3-26.801,2.3-44.101v-7v-50h5.5v50v7c0,17.5-0.8,31.7-2.3,44.8C-25.2-59.599-26.4-52.599-28-46.099z"/>
			</g>
			<g>
				<path d="M-9.7-26.699v0.103l-0.4,7.1c-0.5,6-1.2,12.3-2.5,18.6L-13,1.401c-0.1,0.5-0.2,1-0.3,1.5l-0.2,0.8
					c-0.1,0.5-0.3,1.1-0.4,1.6c-0.2,1-0.4,1.9-0.7,2.9l-1.2,4.397c-0.3,1-0.6,2-0.9,3c-0.2,0.5-0.3,1-0.5,1.603
					c-2.1,6.2-4.3,12-6.9,17.5c-2.1,4.5-4.3,8.897-6.7,13.3c-1.5-1.5-2.8-2.9-4-4.2c2-3.8,3.9-7.6,5.6-11.397
					c2.5-5.4,4.7-10.9,6.6-16.9c0.2-0.6,0.3-1.1,0.5-1.6c0.3-0.9,0.6-1.803,0.8-2.7l1.2-4.4c0.2-0.897,0.4-1.8,0.7-2.7
					c0.1-0.602,0.3-1.102,0.4-1.701l0.2-0.803c0.1-0.397,0.2-0.897,0.3-1.3l0.4-2.3c1.2-6.1,1.9-12.3,2.4-18l0.4-6.9l0.1-7
					c0-1,0-2,0-3.1c0-0.6,0-1.2,0-1.8v-3.7v-127h5.5v127v3.7c0,0.6,0,1.2,0,1.8c0,1.1,0,2.2,0,3.2V-26.699z"/>
				<path d="M-0.4,1.401l-0.5,2.5c-0.1,0.6-0.2,1.1-0.4,1.699l-0.2,0.9c-0.1,0.5-0.2,1.1-0.4,1.6c-0.2,1.101-0.5,2.101-0.8,3.301
					l-1.3,4.8c-0.3,1.1-0.6,2.2-1,3.2c-0.2,0.5-0.4,1.1-0.5,1.697c-2.2,6.603-4.7,12.902-7.4,18.803c-2.6,5.6-5.5,11.197-8.4,16.6
					c-1.1-0.9-2.1-1.8-3.1-2.7c-0.4-0.3-0.8-0.7-1.1-1c2.7-5,5.4-10.1,7.7-15.3c2.7-5.7,5.1-11.9,7.1-18.2c0.2-0.6,0.4-1.2,0.6-1.7
					c0.3-1,0.6-2,0.9-3l1.3-4.8c0.3-1,0.5-2,0.7-3.1c0.1-0.601,0.3-1.2,0.4-1.7l0.2-0.9c0.1-0.5,0.2-1,0.3-1.5l0.5-2.5
					c1.3-6.399,2.1-13.3,2.6-19.1c0.4-6.1,0.6-12.5,0.6-19.7v-3.7v-127h5.5v127v3.7c0,7.3-0.2,13.9-0.6,20.2
					C1.7-12.599,1-5.499-0.4,1.401z"/>
				<path d="M15.2-33.699l-0.1,7.9v0.1l-0.5,8c-0.6,6.4-1.3,13.9-2.9,21.4l-0.5,2.7c-0.1,0.6-0.3,1.199-0.4,1.8l-0.2,0.899
					c-0.1,0.603-0.3,1.103-0.4,1.7c-0.3,1.2-0.5,2.4-0.9,3.601l-1.4,5.199c-0.3,1.2-0.7,2.4-1.1,3.5c-0.2,0.601-0.4,1.2-0.6,1.801
					c-2.3,7-5,13.8-7.9,20.197c-3.1,6.702-6.4,13.103-9.9,19.303c-0.6-0.5-1.2-0.9-1.7-1.4c-0.9-0.7-1.8-1.4-2.6-2.1
					c3.2-5.9,6.4-11.9,9.3-18.2c2.8-6.101,5.4-12.7,7.7-19.5c0.2-0.601,0.4-1.2,0.6-1.8c0.4-1.103,0.7-2.2,1-3.2l1.4-5.101
					c0.3-1.1,0.6-2.3,0.8-3.399c0.1-0.601,0.2-1.2,0.3-1.8l0.3-0.9c0.1-0.6,0.3-1.1,0.4-1.6l0.5-2.7c1.4-7.3,2.2-14.601,2.7-20.7
					l0.5-7.9l0.2-7.899c0-1.103,0-2.2,0-3.2c0-0.6,0-1.2,0-1.8v-3.7v-127h5.5v127v3.7c0,0.6,0,1.2,0,1.8
					C15.3-35.899,15.3-34.799,15.2-33.699z"/>
			</g>
			<g>
				<path d="M70.3,93.701c0.9-3.8,2-7.5,3.2-11.2c1.7,0.8,3.4,1.6,5,2.4c-1,3.397-2,6.8-2.8,10.1c-1.6,6.4-2.5,12.3-3,18
					c-0.9,11.5-0.1,23.9,2.6,36.9c0.4,2.3,1,4.6,1.5,6.8l-5.4,1.3c-0.5-2.2-1.1-4.6-1.5-7c-2.7-13.5-3.6-26.5-2.6-38.4
					C67.7,106.501,68.7,100.301,70.3,93.701z"/>
				<path d="M58.3,90.701c1.1-4.603,2.5-9.103,3.9-13.5c1.2,0.5,2.3,1.1,3.5,1.6l0.2,0.103c0.5,0.197,0.9,0.397,1.4,0.6
					c-1.3,4.1-2.5,8.3-3.5,12.5c-1.7,7-2.8,13.5-3.3,19.9c-1,12.6-0.1,26.197,2.7,40.397c0.5,2.8,1.2,5.603,1.8,8.3l0.6,2.303
					l-5.4,1.3l-0.5-2.3c-0.7-2.803-1.3-5.603-1.9-8.5c-3-14.7-3.9-28.7-2.8-41.9C55.4,104.801,56.5,98.001,58.3,90.701z"/>
				<path d="M51.8-11.999c1.6,1.7,3.2,3.4,4.8,5.1c2.5,2.7,4.8,5.4,6.9,8.103c2.4,3.2,4.3,6.2,5.8,9c3.3,6.1,5.5,13,6.5,20.5
					c0.4,2.897,0.6,6,0.5,9.1c-1.9-0.897-3.8-1.7-5.5-2.6c-0.1-2-0.2-3.9-0.5-5.8c-1-6.803-2.9-13.103-5.9-18.7
					C63,10.101,61.2,7.401,59,4.401c-2-2.5-4.2-5.103-6.6-7.7c-1.6-1.7-3.2-3.4-4.8-5.101c-3.1-3.3-6.4-6.6-9.3-10.197
					c-9-10.803-15-22.402-18.4-33.603v-15.899c5,18.3,11.5,32.899,22.6,45.899C45.6-18.499,48.7-15.199,51.8-11.999z"/>
				<path d="M46.3,87.801c1.3-5.5,2.9-10.8,4.6-15.897c1.7,0.8,3.3,1.6,5,2.397c-1.5,4.8-3,9.7-4.2,14.8
					c-1.8,7.601-3.1,14.9-3.6,21.9c-1.1,13.8-0.2,28.5,2.9,43.8c0.5,2.7,1.1,5.4,1.8,8.103l-5.3,1.3c-0.7-2.8-1.3-5.5-1.8-8.3
					c-3.2-15.803-4.2-31-3-45.303C43.1,103.301,44.4,95.601,46.3,87.801z"/>
				<path d="M47.8,1.601c2.3,2.4,4.3,4.7,6.2,7.2c2,2.7,3.5,5,4.8,7.4c1.2,2.397,2.4,5,3.2,7.8c0.8,2.3,1.4,5,1.9,8.5
					c0.1,0.5,0.1,0.9,0.2,1.4c-2.1-1-4.1-2.103-6-3.103c-0.4-2-0.8-3.6-1.3-5.1v-0.101c-0.7-2.397-1.8-4.798-2.8-6.798
					c-1.1-2-2.5-4.1-4.3-6.5c-1.8-2.3-3.7-4.5-5.8-6.8c-1.5-1.6-3-3.2-4.6-4.8c-10.6-11.101-17-20.3-19.4-26.7
					c0.1-2.4,0.1-8,0.2-10.8c5.3,12.5,10,19.8,23.1,33.5C44.8-1.599,46.4,0.001,47.8,1.601z"/>
				<path d="M88.8,42.101c-0.1,1.103-0.1,2.303-0.2,3.4c-1.8-0.8-3.6-1.7-5.3-2.5c0-0.4,0.1-0.8,0.1-1.1c0.1-4.103-0.1-8.2-0.6-12
					c-0.7-4.5-1.5-8.2-2.6-11.7c-1-3.4-2.5-7-4.6-11.103c-1.7-3.197-3.8-6.5-6.5-10c-2.2-2.8-4.7-5.697-7.3-8.5
					c-1.7-1.8-3.4-3.6-5-5.3c-3.1-3.298-6.1-6.397-8.8-9.598c-4.5-5.3-8.1-10.3-10.8-15.3c-2.9-5.2-5.4-11-7.5-17.2
					c-1.8-5.4-3.2-11.5-4.5-18.7c-2-12-3-25-3-39.5v-2.3v-50h5.5v50v2.3c0,14.2,0.9,26.9,2.9,38.6c1.2,7,2.7,12.803,4.3,18
					c1.9,5.9,4.3,11.303,7,16.2c2.6,4.7,5.9,9.4,10.2,14.4c2.6,3.1,5.5,6.1,8.6,9.3c1.6,1.7,3.3,3.5,5.1,5.3c2.8,3,5.3,6,7.6,8.9
					c2.8,3.8,5.1,7.3,7,10.8c2.3,4.5,4,8.4,5,12.1c1.2,3.7,2.1,7.7,2.8,12.603C88.7,33.201,88.9,37.601,88.8,42.101z"/>
			</g>
			<g>
				<path d="M87-35.199c1.4,0.2,2.9,0.3,4.2,0.4c0.7,0,1.3,0.1,2,0.1c1.3,0.103,2.5,0.2,3.7,0.2l2.9,0.1c1,0,1.8,0,2.8,0
					c0.6,0,1.2,0,1.8-0.1c1.3,0,2.7-0.1,4-0.2c7.1-0.5,14.7-1.7,22.5-3.8c6.8-1.8,13.6-4.2,21-7.4c11.8-5,22.8-11,33.4-16.8
					c1.6-0.897,3.2-1.7,4.8-2.6c12.3-6.7,24.4-13,36.5-17.4c13-4.8,25.6-6.897,37.5-6.397c0.6,0,1.2,0.1,1.8,0.1
					c1,0.1,2,0.1,3.1,0.2l3,0.397l-0.7,5.5l-2.9-0.397c-0.9-0.103-1.8-0.2-2.8-0.2c-0.6,0-1.3-0.1-1.8-0.1
					c-11-0.5-22.9,1.6-35.2,6.1c-11.8,4.298-23.6,10.498-35.8,17.098c-1.6,0.9-3.2,1.7-4.8,2.603c-10.8,5.8-21.9,11.897-33.9,17
					c-7.6,3.3-14.8,5.8-21.8,7.7c-8.1,2.197-16.1,3.5-23.6,4c-1.4,0.1-2.8,0.1-4.2,0.197c-0.6,0-1.2,0-1.8,0.103c-1.1,0-2,0-3.1,0
					l-2.9-0.103c-1.3,0-2.7-0.1-4-0.197c-0.6,0-1.3-0.103-2-0.103c-1.5-0.1-2.9-0.3-4.4-0.397l-1.5-0.2
					c-16.9-2.202-28.9-7.802-36.7-13.302l0,0l-0.6-1c-0.8-1.303-1.5-2.5-2.1-3.7l-0.2-0.3c-0.6-1-1.1-2.103-1.7-3.303
					c-0.3-0.5-0.5-1.1-0.8-1.6c-0.2-0.4-0.3-0.8-0.5-1.2c10.1,9.103,23.2,16.4,43.2,19L87-35.199L87-35.199z"/>
				<path d="M87.2-47.599c6.7,0.8,13.5,1.1,20.4,0.697c12.3-0.8,25.2-4.197,39.5-10.3c11.2-4.8,22.1-10.7,32.7-16.5l4.4-2.397
					c13.2-7.2,25.2-13.5,38.2-18.2c7.1-2.603,14-4.5,20.6-5.603c7.2-1.3,14.4-1.8,21.5-1.5c0.6,0,1.3,0.103,1.9,0.103
					c1.2,0.1,2.4,0.1,3.7,0.3l5.5,0.7l-0.7,5.5l-5.4-0.7c-1.1-0.1-2.2-0.2-3.4-0.3c-0.7,0-1.3-0.103-1.9-0.103
					c-6.7-0.3-13.5,0.2-20.3,1.4c-6.3,1.1-12.9,2.9-19.7,5.4c-12.6,4.6-24.4,10.8-37.4,17.897l-4.4,2.4
					c-10.7,5.804-21.7,11.903-33.2,16.704c-14.9,6.399-28.4,9.899-41.3,10.699c-7.2,0.4-14.4,0.2-21.4-0.697
					c-24.1-3.202-38.8-13.103-48.9-26.402c-0.9-3.6-1.7-7.3-2.4-11.3c-0.1-0.7-0.2-1.4-0.3-2.103v-0.098
					C44.7-64.099,60.9-51.099,87.2-47.599z"/>
				<path d="M270.7-107.899c-1.3-0.1-2.7-0.197-4.1-0.3c-0.7,0-1.4-0.1-2-0.1c-7.6-0.3-15.3,0.2-23,1.6c-7,1.2-14.3,3.2-21.8,6
					c-14.4,5.3-27.5,12.4-39.1,18.603l-4,2.197c-11.2,6.101-21.7,11.801-32.5,16.5c-13.6,5.803-25.7,9-37.2,9.7
					c-0.9,0.103-1.9,0.103-2.8,0.103c-0.6,0-1.2,0-1.7,0.1c-0.9,0-1.8,0-2.5,0h-2.3c-1,0-2.1-0.1-3.1-0.2c-0.6,0-1.1-0.1-1.8-0.1
					c-1-0.103-2-0.2-3-0.3c-0.5-0.103-1.1-0.103-1.7-0.2c-6.4-0.9-12.4-2.4-18-4.5c-22.9-9.202-35.5-28.603-35.5-52.202v-8.3v-50
					h5.5v50v8.3c-0.1,21,10.4,38.3,32,47c5.1,2,10.7,3.4,16.6,4.2c0.6,0.1,1.1,0.1,1.7,0.2c1,0.1,1.9,0.197,2.8,0.3
					c0.6,0,1.2,0.1,1.8,0.1c1,0.103,1.9,0.103,2.8,0.103h2.4c0.7,0,1.4,0,2.1,0c0.6,0,1.2,0,1.9-0.103c0.9,0,1.8,0,2.6-0.1
					c10.9-0.7,22.4-3.8,35.4-9.3c10.6-4.5,21-10.2,32.1-16.2l4-2.2c11.7-6.4,25-13.5,39.8-18.9c7.8-2.8,15.4-4.897,22.7-6.197
					c8.1-1.4,16.2-2,24.2-1.7c0.7,0,1.3,0.1,2,0.1c1.4,0.103,2.9,0.2,4.4,0.3l3.8,0.5l-0.7,5.5L270.7-107.899z"/>
			</g>
		</g>
	</g>
</symbol>
<symbol  id="_x7E__Wordmark_Black" viewBox="-124.05 -62.052 248.1 124.103">
	<g>
		<path d="M113.95-55.35h0.2v-5.9h9.9v3.7h-5.5v44.8h-10.2v-3.6h5.5v-6c0-1.7,0-8.4,0.2-11.7h-0.2c-2.1,4.398-6.1,6.601-11.2,6.601
			c-8.2,0-14.8-6.801-14.8-17.2c0-10.601,6.4-17.3,14.6-17.3C107.55-61.949,111.85-59.75,113.95-55.35 M113.95-45.05
			c0-8.2-4.7-12.899-10.6-12.899s-10.6,4.899-10.6,13.3c0,8.2,4.7,13.302,10.6,13.302s10.6-4.9,10.6-13.302V-45.05z M69.95-57.449
			v-3.7h15.1v3.7h-5.3v16.5c0,10-5.3,13.5-11.8,13.5c-4.7,0-8.7-2-10.7-6.101h-0.2v5.398h-9.7v-3.698h5.3V-57.45h-5.3v-3.7h15.1v3.7
			h-5.2v13.5c0,8,4.3,12.602,9.8,12.602c4.9,0,8.2-2.7,8.2-10.2v-15.899L69.95-57.449L69.95-57.449z M26.35-27.449
			c-7.8,0-12.7-4.601-12.9-11.601h4.4c0.2,5.101,3.4,7.8,8.5,7.8c5,0,7.7-2.8,7.8-7.8c0-1.7-1.1-2.2-4.4-2.8l-7.1-1.302
			c-7.3-1.198-10.5-4.398-10.5-9.8c0-5.398,4-9.101,10.8-9.101c5.3,0,9.4,2.2,11.3,6.101h0.3v-5.301h9.4v3.7h-5.1v18
			C38.85-31.85,34.45-27.449,26.35-27.449 M34.25-43.449v-3.601c0-7.7-4.9-11-10.4-11c-4.7,0-7.1,2.3-7.1,5.7c0,3.3,2,5.398,6.7,6.1
			l6.9,1.2C32.149-44.85,33.45-44.35,34.25-43.449 M4.05-12.649h-10.1v-3.698h5.5v-41.102h-5.5v-3.7h15.6v3.7h-5.5V-12.649z
			 M-8.25-57.449h-4.6l-10.8,13.399l11,12.2h4.1v3.698h-14.6v-3.601h5.1l-11-12.399v-0.101l13.5-16.899h7.4v3.7L-8.25-57.449
			L-8.25-57.449z M-31.25-12.649h-9.9v-3.698h5.3v-41.102h-5.3v-3.7h15.1v3.7h-5.2V-12.649z M-61.851-27.449
			c-7.8,0-12.7-4.601-12.9-11.601h4.4c0.2,5.101,3.4,7.8,8.5,7.8c5,0,7.7-2.8,7.8-7.8c0-1.7-1.1-2.2-4.4-2.8l-7.1-1.302
			c-7.3-1.198-10.5-4.398-10.5-9.8c0-5.398,4-9.101,10.8-9.101c5.3,0,9.4,2.2,11.3,6.101h0.3v-5.301h9.4v3.7h-5.1v18
			C-49.351-31.85-53.75-27.449-61.851-27.449 M-53.95-43.449v-3.601c0-7.7-4.9-11-10.4-11c-4.7,0-7.1,2.3-7.1,5.7
			c0,3.3,2,5.398,6.7,6.1l6.9,1.2C-56.05-44.85-54.65-44.35-53.95-43.449 M-102.05-18.149c10.2,0,17-8.198,17-19.8
			c0-11.601-6.9-19.801-17-19.801c-10.1,0-17,8.2-17,19.801C-119.05-26.35-112.15-18.149-102.05-18.149 M-102.05-61.949
			c13.1,0,22,10,22,24s-8.9,24-22,24c-13.1,0-22-10-22-24C-124.05-52.05-115.15-61.949-102.05-61.949"/>
		<path d="M40.45,17.25v-3.699h16.1v3.699h-6.1v25.601h8.4v3.7h-8.4v5.602c0,4.1,1.4,6,4.9,6h3.6v3.898h-3.6c-6.2,0-9.5-3-9.5-9.7
			v-5.8h-5.9v-3.7h5.9V17.25H40.45z M10.149,30.051c0,8,4.5,13.3,10.9,13.3c6.4,0,10.9-5.198,10.9-13.3
			c0-8.101-4.5-13.301-10.9-13.301C14.649,16.75,10.149,21.95,10.149,30.051 M5.35,30.051c0-10.5,6.3-17.2,15.7-17.2
			c9.3,0,15.7,6.802,15.7,17.2c0,10.5-6.3,17.199-15.7,17.199C11.75,47.25,5.35,40.45,5.35,30.051 M-11.65,42.851h3.9v3.7h-13.7
			v-3.7h5.3l-8.5-23.601h-0.1l-9.3,23.5h5.4v3.7h-14.3v-3.7h3.9l12.1-29.3l-4-10.2h-5.9v-3.6h8.8L-11.65,42.851z M-59.15,55.45v-9
			h-6.3v-3.7h6.3V23.551c0-6.7,3.6-10,10.5-10h3.9v3.899h-3.9c-4.2,0-5.9,2-5.9,6.3v19.101h9.4v3.7h-9.4v9h-4.6V55.45z
			 M-71.95,46.45h-10v-3.7h5.5v-25.5h-5.5v-3.699h15.6v3.699h-5.5v29.2H-71.95z M-76.95,53.851h5.3v5.899h-5.3V53.851z
			 M-86.95,20.95c-4-2.399-9-4-13.6-4c-11.2,0-18.5,8.2-18.5,19.7s7.1,19.8,18.1,19.8c3.6,0,7.1-0.8,10.3-2.2v-7.899h4.4V56.75
			c-4.2,2.801-9.5,4-14.6,4c-13.9,0-23.1-10-23.1-24s9.4-24,23.5-24c4.8,0,9.9,1.101,13.8,3.801v4.399H-86.95z"/>
	</g>
</symbol>
<g>
	<g>
		
			<use xlink:href="#_x7E__Tree_Black"  width="556.2" height="339.002" id="XMLID_153_" x="-278.1" y="-169.501" transform="matrix(0.3753 0 0 -0.3753 168.6992 967.2363)" overflow="visible"/>
	</g>
	<polygon fill="none" points="-59.744,1150.271 640.556,1150.271 640.556,791.971 -59.744,791.971 	"/>
	<polygon fill="none" points="273.156,1000.971 302.956,1000.971 302.956,1030.771 273.156,1030.771 	"/>
	<polygon fill="none" points="302.956,1000.971 332.756,1000.971 332.756,1030.771 302.956,1030.771 	"/>
	<polygon fill="none" points="610.756,1000.971 640.556,1000.971 640.556,1030.771 610.756,1030.771 	"/>
	<polygon fill="none" points="580.855,1000.971 610.756,1000.971 610.756,1030.771 580.855,1030.771 	"/>
	<polygon fill="none" points="4.656,1000.971 34.456,1000.971 34.456,1030.771 4.656,1030.771 	"/>
	<polygon fill="none" points="34.456,1000.971 64.256,1000.971 64.256,1030.771 34.456,1030.771 	"/>
	<polygon fill="none" points="-59.744,1000.971 -29.944,1000.971 -29.944,1030.771 -59.744,1030.771 	"/>
	<polygon fill="none" points="-29.944,1000.971 -0.044,1000.971 -0.044,1030.771 -29.944,1030.771 	"/>
	
		<use xlink:href="#_x7E__Wordmark_Black"  width="248.1" height="124.103" id="XMLID_152_" x="-124.05" y="-62.052" transform="matrix(0.9992 0 0 -0.9992 456.8574 969.6426)" overflow="visible"/>
	
		<use xlink:href="#_x7E__Green_Bar"  width="4.6" height="238.801" id="XMLID_102_" x="-2.3" y="-119.4" transform="matrix(1 0 0 -1 2.3208 911.3896)" overflow="visible"/>
</g>
</svg>
