<?xml version="1.0" encoding="utf-8"?>
<!-- Generator: Adobe Illustrator 16.0.4, SVG Export Plug-In . SVG Version: 6.00 Build 0)  -->
<!DOCTYPE svg PUBLIC "-//W3C//DTD SVG 1.1//EN" "http://www.w3.org/Graphics/SVG/1.1/DTD/svg11.dtd">
<svg version="1.1" id="Layer_1" xmlns="http://www.w3.org/2000/svg" xmlns:xlink="http://www.w3.org/1999/xlink" x="0px" y="0px"
	 width="612px" height="792px" viewBox="0 0 612 792" enable-background="new 0 0 612 792" xml:space="preserve">
<symbol  id="_x7E__Green_Bar" viewBox="-2.3 -119.4 4.6 238.801">
	<g>
		<polygon fill="#4FBC26" points="2.3,-119.4 -2.3,-119.4 -2.3,0 2.3,0 		"/>
	</g>
	<g>
		<polygon fill="#4FBC26" points="2.3,0 -2.3,0 -2.3,119.4 2.3,119.4 		"/>
	</g>
</symbol>
<symbol  id="_x7E__Lock-up_Black_Top" viewBox="-350.15 -179.149 700.3 358.3">
	<g>
		
			<use xlink:href="#_x7E__Tree_Black"  width="556.2" height="339" id="XMLID_10_" x="-278.1" y="-169.5" transform="matrix(0.3753 0 0 0.3753 -121.707 3.8848)" overflow="visible"/>
	</g>
	<polygon fill="none" points="-350.15,-179.149 350.149,-179.149 350.149,179.15 -350.15,179.15 	"/>
	<polygon fill="none" points="-17.25,-29.85 12.55,-29.85 12.55,-59.649 -17.25,-59.649 	"/>
	<polygon fill="none" points="12.55,-29.85 42.35,-29.85 42.35,-59.649 12.55,-59.649 	"/>
	<polygon fill="none" points="320.35,-29.85 350.149,-29.85 350.149,-59.649 320.35,-59.649 	"/>
	<polygon fill="none" points="290.449,-29.85 320.35,-29.85 320.35,-59.649 290.449,-59.649 	"/>
	<polygon fill="none" points="-285.75,-29.85 -255.95,-29.85 -255.95,-59.649 -285.75,-59.649 	"/>
	<polygon fill="none" points="-255.95,-29.85 -226.15,-29.85 -226.15,-59.649 -255.95,-59.649 	"/>
	<polygon fill="none" points="-350.15,-29.85 -320.351,-29.85 -320.351,-59.649 -350.15,-59.649 	"/>
	<polygon fill="none" points="-320.351,-29.85 -290.45,-29.85 -290.45,-59.649 -320.351,-59.649 	"/>
	
		<use xlink:href="#_x7E__Wordmark_Black"  width="248.1" height="124.101" id="XMLID_9_" x="-124.05" y="-62.05" transform="matrix(0.9992 0 0 0.9992 166.4512 1.4785)" overflow="visible"/>
	
		<use xlink:href="#_x7E__Green_Bar"  width="4.6" height="238.801" id="XMLID_8_" x="-2.3" y="-119.4" transform="matrix(1 0 0 1 -288.0854 59.7295)" overflow="visible"/>
</symbol>
<symbol  id="_x7E__Tree_Black" viewBox="-278.1 -169.5 556.2 339">
	<g>
		<g>
			<g>
				<path d="M-126.5,59.4l1.7-0.601h0.1c0.3,1.8,0.6,3.7,0.9,5.5l-1.1,0.3c-0.5,0.2-1,0.301-1.4,0.5c-0.6,0.2-1.3,0.4-1.9,0.601
					c-0.7,0.3-1.4,0.6-2.1,0.8c-1.5,0.6-3,1.1-4.3,1.8h-0.1l-1.7,0.8c-0.5,0.2-1,0.4-1.4,0.7l-3.1,1.7c-0.6,0.3-1.1,0.7-1.8,1.1
					c-0.4,0.301-0.8,0.5-1.2,0.7l-0.6,0.4c-0.3,0.2-0.6,0.3-0.8,0.5l-2.9,2.1c-0.5,0.3-0.9,0.601-1.2,1l-2.7,2.3
					c-0.3,0.301-0.7,0.7-1,1c-1.4,1.301-2.7,2.5-3.9,3.9c-3.4,3.7-6.2,7.4-8.5,11.1c0,0,0,0.101-0.1,0.101
					c-0.5,0.7-0.9,1.5-1.4,2.399c-0.3,0.5-0.6,1.101-0.9,1.601c-0.4,0.8-0.8,1.6-1.2,2.399l-0.1,0.101l-4.9-2.4l0.1-0.1
					c0.4-0.9,0.9-1.8,1.3-2.601c0,0,0-0.1,0.1-0.1c0.3-0.5,0.6-1,0.9-1.5c0.5-0.9,1-1.8,1.6-2.7c2.4-4,5.4-7.899,9-11.899
					c1.3-1.5,2.8-2.9,4.2-4.2l1.1-1l0.1-0.101l2.7-2.3c0.5-0.399,1-0.8,1.6-1.3l2.9-2.1c0,0,0.1,0,0.1-0.101
					c0.3-0.2,0.7-0.399,1-0.7l0.6-0.399c0.4-0.2,0.7-0.5,1.1-0.7c0.6-0.4,1.3-0.9,2.1-1.3l3.1-1.7c0.6-0.3,1.2-0.6,1.9-0.9
					l1.6-0.699c1.6-0.801,3.2-1.4,4.8-2c0.7-0.301,1.4-0.5,2.1-0.801c0.1,0,0.1,0,0.2-0.1c0.7-0.2,1.4-0.5,2.1-0.7
					C-127.4,59.7-127,59.5-126.5,59.4z"/>
				<path d="M-127.9,46.8l1.4-0.399c0.1,0.6,0.1,1.1,0.2,1.699c0.2,1.301,0.4,2.5,0.5,3.801l-0.8,0.199l-1.9,0.601
					c-0.5,0.2-1,0.3-1.4,0.5c-0.8,0.3-1.6,0.5-2.5,0.8c-0.7,0.3-1.5,0.6-2.2,0.9c-1.9,0.699-3.6,1.399-5.4,2.3l-2,0.899
					c-0.6,0.301-1.2,0.5-1.7,0.801l-3.7,2c-0.7,0.399-1.4,0.899-2.2,1.399c-0.4,0.3-0.9,0.601-1.3,0.8l-0.7,0.4
					c-0.4,0.2-0.7,0.5-1,0.6l-3.4,2.5c-0.6,0.4-1.1,0.801-1.5,1.2l-3.2,2.7l-0.9,0.9c-1.7,1.6-3.4,3.199-4.9,4.899
					c-3.9,4.3-7.3,8.601-9.9,13.101c-0.6,0.899-1.1,1.899-1.7,2.899c-0.3,0.601-0.6,1.101-1,1.7c-0.5,1-1,2-1.5,3
					c-0.3,0.6-0.6,1.2-0.9,1.8l-4.9-2.5c0.3-0.6,0.6-1.1,0.9-1.7c0.5-1.1,1.1-2.199,1.6-3.3v-0.1c0.3-0.5,0.6-1.101,0.9-1.601
					c0.6-1.1,1.2-2.199,1.8-3.1c2.8-4.6,6.4-9.3,10.5-13.8c1.7-1.9,3.5-3.601,5.2-5.2l1-0.9l0.1-0.1l3.2-2.7
					c0.5-0.5,1.1-0.899,1.8-1.5l3.5-2.6c0.4-0.3,0.8-0.5,1.2-0.8l0.6-0.4c0.4-0.3,0.8-0.5,1.2-0.8c0.8-0.5,1.6-1,2.5-1.5l3.6-2
					c0.6-0.4,1.3-0.7,2.1-1.101l1.8-0.899c1.9-1,3.9-1.7,5.8-2.5c0.7-0.3,1.5-0.601,2.2-0.9c0,0,0.1,0,0.1-0.1
					c0.9-0.3,1.8-0.601,2.7-0.9c0.5-0.1,0.9-0.3,1.4-0.399l2-0.601C-128,46.9-128,46.9-127.9,46.8z"/>
				<path d="M-127.2,39.6l-2.6,0.601l-3.6,1.1c-1,0.3-2,0.601-3,1c-0.7,0.3-1.5,0.601-2.2,0.9c-2.2,0.899-4.3,1.7-6.4,2.7l-2.2,1
					c-0.7,0.3-1.4,0.6-2,1l-4.2,2.3c-0.9,0.5-1.7,1-2.6,1.6c-0.5,0.3-0.9,0.601-1.3,0.9l-0.7,0.5c-0.4,0.3-0.9,0.5-1.2,0.8l-3.9,2.9
					c-0.7,0.5-1.2,0.899-1.7,1.399l-3.6,3.101l-0.7,0.6c-2.1,2-4.1,3.9-6,6c-4.5,4.9-8.3,9.9-11.4,14.9c-0.7,1.1-1.4,2.199-2,3.5
					c-0.3,0.6-0.7,1.199-1,1.8c-0.6,1.1-1.2,2.3-1.8,3.5l-4.9-2.4c0.6-1.3,1.2-2.5,1.9-3.8c0.3-0.6,0.7-1.2,1-1.8
					c0.7-1.2,1.4-2.5,2.2-3.7c3.2-5.3,7.3-10.6,11.9-15.7c2-2.3,4.2-4.3,6.3-6.3l0.7-0.7l0.1-0.1l3.7-3.101c0.6-0.5,1.3-1,2.1-1.6
					l4-2.9c0.5-0.3,0.9-0.6,1.4-0.899l0.7-0.5c0.4-0.3,0.9-0.601,1.3-0.8c0.9-0.601,1.9-1.2,2.9-1.801l4.2-2.3
					c0.7-0.399,1.5-0.8,2.4-1.2l2.1-1c2.3-1.1,4.6-2,6.9-2.899c0.7-0.3,1.5-0.601,2.2-0.9h0.1c1.1-0.399,2.2-0.7,3.2-1l3.7-1.1
					c0.1,0,0.1,0,0.2,0l3.5-0.9C-127.6,35.9-127.4,37.7-127.2,39.6z"/>
			</g>
			<g>
				<path d="M-71.9,105l-0.1,0.2c-0.3,0.8-0.6,1.5-0.8,2.3c-0.2,0.7-0.5,1.3-0.7,2c-2.2-0.2-4.2-0.3-6.3-0.3c-7-0.2-13.1,0.1-18.7,1
					c-6.1,0.899-12,2.399-17.5,4.399c-5.3,2-10.6,4.801-15.6,8.301l-2.9,2c-0.2,0.1-0.3,0.199-0.5,0.399l-2.8,2.3l-3.5-4.3l2.7-2.2
					c0.2-0.199,0.4-0.399,0.7-0.6c0,0,0.1,0,0.1-0.1l2.9-2.101c5.4-3.7,11.1-6.7,16.8-8.899c5.8-2.2,12.1-3.801,18.6-4.7
					c4.7-0.7,9.8-1.101,15.5-1.101c1.3,0,2.7,0,4.1,0.101c2.6,0,5.1,0.2,7.6,0.399c0.2,0,0.4,0,0.6,0
					C-71.6,104.4-71.8,104.7-71.9,105z"/>
				<path d="M-68.8,97.4c-0.1,0-0.1,0-0.2,0c-0.8-0.101-1.5-0.101-2.3-0.2c-2.7-0.2-5.4-0.4-8.2-0.5c-7.7-0.2-14.5,0.1-20.8,1.1
					c-7,1-13.8,2.8-20.1,5.101c-6.2,2.399-12.4,5.6-18.2,9.6l-3.3,2.3c-0.2,0.2-0.4,0.3-0.6,0.5l-4.6,3.8l-3.5-4.3l4.6-3.8
					c0.3-0.2,0.5-0.4,0.8-0.6c0,0,0.1,0,0.1-0.101l3.4-2.399c6.2-4.301,12.8-7.7,19.4-10.301c6.6-2.5,13.8-4.3,21.2-5.399
					c5.3-0.8,11-1.2,17.2-1.2c1.5,0,3,0,4.5,0.1c2.9,0,5.7,0.301,8.5,0.5c0.8,0.101,1.5,0.101,2.3,0.2h0.1
					c0.6,0.101,1.3,0.2,1.9,0.2C-67.3,93.9-68,95.6-68.8,97.4z"/>
				<path d="M-63.4,85.6c-0.7-0.1-1.4-0.199-2.1-0.3l-2.3-0.3l-2.2-0.2c-3-0.2-6-0.5-9.1-0.5c-8.5-0.2-16,0.2-23,1.2
					c-7.9,1.2-15.6,3.1-22.7,5.8c-7.2,2.7-14.2,6.4-20.8,11l-3.7,2.601c-0.2,0.199-0.5,0.399-0.7,0.6l-2.7,2.2l-3.5-4.3l2.7-2.2
					c0.3-0.2,0.6-0.5,0.9-0.8l3.9-2.7c7-4.8,14.5-8.7,22-11.601c7.5-2.8,15.5-4.899,23.8-6.1c5.9-0.9,12.2-1.4,19-1.4
					c1.6,0,3.2,0,4.9,0.101c3.2,0,6.4,0.3,9.4,0.5l2.3,0.2h0.1l2.3,0.3c1.4,0.2,2.7,0.3,4.1,0.5C-61.7,82.2-62.5,83.9-63.4,85.6z"/>
			</g>
			<g>
				<path d="M271.1-40.3l-6.6,1.5l-4.2,1.3c-0.3,0.1-0.6,0.2-0.9,0.3c-0.4,0.101-0.8,0.2-1.2,0.4l-4.1,1.7
					c-0.2,0.1-0.5,0.199-0.7,0.3c-0.4,0.2-0.8,0.3-1.1,0.5c0,0-0.1,0-0.1,0.1l-4,2c0,0-0.1,0-0.1,0.101c-0.4,0.199-0.9,0.5-1.4,0.8
					l-3.9,2.399l-4.2,3.101l-3.9,3.5l-2.9,3.1l-0.1,0.101c-0.4,0.3-0.7,0.8-1.1,1.3l-1.4,1.7c-0.2,0.199-0.4,0.5-0.6,0.699
					c-0.2,0.301-0.5,0.5-0.6,0.801c0,0,0,0.1-0.1,0.1l-1.2,1.8c-3.1,4.601-5.5,9.601-7,14.7l-0.9,3.4C218.5,5.3,218.3,5.2,218,5.1
					c-1.4-0.5-2.9-0.899-4.4-1.399l0.8-3.2V0.4c1.7-5.7,4.4-11.2,7.7-16.2l1.2-1.8c0.3-0.5,0.7-1,1-1.4c0.1-0.2,0.3-0.3,0.5-0.6
					l1.4-1.801c0.4-0.6,0.9-1.199,1.6-1.8l3-3.1c0.1-0.101,0.1-0.101,0.2-0.2l4.1-3.6c0.1-0.101,0.1-0.101,0.2-0.2l4.4-3.3
					c0.1-0.101,0.1-0.101,0.2-0.101l3.9-2.399c0.6-0.4,1.2-0.801,2-1.101l3.9-2c0.6-0.3,1.2-0.6,1.7-0.8c0.2-0.1,0.4-0.1,0.6-0.2
					l4.2-1.7h0.1c0.5-0.199,1-0.3,1.5-0.5c0.3-0.1,0.5-0.199,0.8-0.199l4.3-1.4c0.1,0,0.1,0,0.2-0.1l6.8-1.601c0.1,0,0.1,0,0.2,0
					l7.2-1.1l0.8,5.399L271.1-40.3z"/>
				<path d="M268.8-52.5l-7.6,1.8l-4.9,1.5c-0.3,0.101-0.6,0.2-0.9,0.3c-0.5,0.2-1,0.301-1.4,0.4l-4.8,2c-0.3,0.1-0.5,0.2-0.8,0.3
					c-0.5,0.2-1,0.4-1.3,0.601H247l-4.7,2.399c-0.6,0.3-1.2,0.601-1.8,1l-4.5,2.8l-5.1,3.801l-1,0.8c-10.3,8.6-18.1,20.3-22,33
					c-0.2,0.6-0.3,1.3-0.5,1.899c-0.1,0.4-0.2,0.801-0.3,1.301C206.7,1.3,206.2,1.1,205.8,1c-1.3-0.4-2.6-0.9-3.9-1.3
					c0.1-0.3,0.2-0.601,0.2-0.9c0.2-0.6,0.3-1.3,0.5-1.899V-3.2c4.2-13.7,12.7-26.399,23.7-35.6l1-0.9c0.1,0,0.1-0.1,0.2-0.1
					l5.3-3.9c0.1,0,0.1-0.1,0.2-0.1l4.6-2.9c0.7-0.5,1.5-0.899,2.3-1.3l4.6-2.3c0.7-0.4,1.3-0.601,1.9-0.9c0.2-0.1,0.4-0.2,0.7-0.3
					l4.9-2c0.6-0.2,1.2-0.4,1.7-0.6c0.3-0.101,0.6-0.2,0.9-0.301l5-1.6c0.1,0,0.1,0,0.2-0.1l7.8-1.801c0.1,0,0.1,0,0.2,0l5.9-0.899
					l0.8,5.399L268.8-52.5z"/>
				<path d="M266.4-64.7l-8.5,2l-5.5,1.7c-0.3,0.1-0.7,0.2-1,0.3c-0.6,0.2-1.2,0.4-1.7,0.5l-5.5,2.2c-0.3,0.1-0.6,0.2-0.9,0.4
					c-0.6,0.199-1.2,0.5-1.7,0.8l-5.4,2.7c-0.7,0.3-1.4,0.8-2.2,1.199l-5.2,3.2l-5.9,4.4l-1.1,1C209.7-34.2,200.5-20.4,195.9-5.4
					l-0.3,1.2c-0.1,0.5-0.3,1.101-0.4,1.601c-0.1,0-0.3-0.101-0.4-0.101c-1.5-0.5-3.1-1-4.8-1.6c0.1-0.4,0.2-0.9,0.3-1.3l0.3-1.301
					V-7c4.9-16,14.7-30.8,27.6-41.5l1.1-1c0,0,0.1-0.1,0.2-0.1l6.1-4.5c0.1,0,0.1-0.101,0.2-0.101l5.3-3.3c0.8-0.5,1.7-1.1,2.6-1.5
					l5.3-2.7c0.8-0.399,1.5-0.7,2.2-1c0.3-0.1,0.5-0.2,0.8-0.3l5.6-2.3c0.7-0.2,1.3-0.4,2-0.7c0.3-0.1,0.6-0.2,1-0.3l5.6-1.8
					c0.1,0,0.1,0,0.2-0.101l8.7-2c0.1,0,0.1,0,0.2,0l5.4-0.8l0.8,5.4L266.4-64.7z"/>
			</g>
			<g>
				<g>
					<path d="M104.7,20.3c-4.1,0.9-8.3,2.2-12.4,3.8c-0.1-0.8-0.3-1.6-0.5-2.6l-0.2-1c-0.1-0.6-0.3-1.3-0.5-1.9
						c4.1-1.6,8.3-2.899,12.5-3.8c5-1.1,10.3-1.7,15.6-1.899c0.7,1.699,1.3,3.5,2,5.399C115.4,18.5,109.9,19.2,104.7,20.3z"/>
					<path d="M246.5,48.1c-1.3-0.199-2.7-0.399-4.1-0.6c-0.6-0.1-1.3-0.2-2-0.3c-1.3-0.2-2.7-0.5-4-0.8c-13.7-2.801-26.2-7-38.4-11
						l-4.1-1.4c-10.1-3.4-19.7-6.6-29.3-9.2c-0.3-0.899-0.5-1.8-0.8-2.6c-0.3-1.2-0.7-2.4-1-3.5c10.8,2.8,21.6,6.399,32.9,10.2
						l4,1.3c12,4,24.4,8.1,37.8,10.899c1.2,0.301,2.5,0.5,3.8,0.7c0.7,0.101,1.3,0.2,1.9,0.3c1.3,0.2,2.6,0.4,3.8,0.5L246.5,48.1z"
						/>
				</g>
				<g>
					<path d="M250,36.1c-0.6-0.1-1.3-0.199-1.9-0.3c-1.2-0.2-2.4-0.3-3.7-0.5c-0.6-0.1-1.3-0.2-1.9-0.3c-1.2-0.2-2.4-0.4-3.6-0.7
						C226,31.7,213.3,27.4,201.1,23.4l-3.7-1.2c-11.8-4-24.1-8.101-36.4-11.101c-0.2,0-0.3-0.1-0.5-0.1c-0.5-1.7-1.1-3.3-1.6-5
						c-0.1-0.4-0.2-0.7-0.4-1.1c1.2,0.3,2.5,0.6,3.8,0.899C174.8,8.9,187.1,13,199.1,17l3.7,1.2c12.1,4,24.6,8.2,37.2,10.8
						c1.1,0.2,2.2,0.4,3.4,0.6c0.7,0.101,1.3,0.2,1.9,0.301c1.1,0.199,2.3,0.3,3.4,0.5c0.6,0.1,1.3,0.199,1.9,0.3L250,36.1z"/>
					<path d="M102,8.2c-4.4,1-8.7,2.3-13,3.899C88.4,10.4,87.7,8.7,86.9,7c4.6-1.8,9.3-3.2,13.9-4.2c4.1-0.899,8.4-1.5,12.7-1.899
						c0.2,0.3,0.4,0.6,0.5,1c0.7,1.3,1.4,2.699,2.2,4.3C111.4,6.5,106.6,7.2,102,8.2z"/>
				</g>
				<g>
					<path d="M248.5,23.4c-0.7-0.101-1.4-0.2-2.2-0.301c-0.6-0.1-1.2-0.199-1.8-0.3c-1-0.2-2.1-0.399-3.2-0.6
						c-12.2-2.5-24.4-6.601-37.4-10.9l-3.1-1c-11.7-4-24-8.1-36.8-11.3c-2.8-0.7-5.6-1.3-8.3-1.9c-0.4-1-0.9-2.1-1.3-3.3l-0.1-0.1
						c-0.4-0.9-0.8-1.9-1.2-2.7c3.9,0.7,8,1.6,12.2,2.7c13,3.2,25.4,7.3,37.3,11.3l3.1,1c12.8,4.3,24.9,8.3,36.8,10.7
						c1,0.2,1.9,0.399,3,0.6c0.6,0.101,1.2,0.2,1.8,0.3c0.6,0.101,1.3,0.2,1.9,0.301L248.5,23.4z"/>
					<path d="M99.4-3.9C94.2-2.8,89-1.2,83.9,0.8C83-0.8,82-2.4,81-4c5.6-2.2,11.4-4,17.2-5.3c2.5-0.5,5-1,7.6-1.4
						c0.2,0.2,0.4,0.5,0.6,0.7c0.3,0.4,0.7,0.9,1.1,1.5l0.1,0.1c0.5,0.7,1.1,1.601,1.9,2.7c0,0,0,0.101,0.1,0.101
						C106.1-5.2,102.7-4.6,99.4-3.9z"/>
				</g>
			</g>
			<g>
				<g>
					<path d="M181.5,75.5c0.4,0.1,0.7,0.2,1.1,0.3c3.1,4.2,6.4,8.4,10.1,12.601c1.5,1.8,3.2,3.5,4.8,5.199l0.6,0.601l-4,3.8
						l-0.6-0.6c-1.7-1.7-3.4-3.601-5-5.4c-5.2-5.8-9.8-11.7-13.8-17.8C177.1,74.6,179.3,75,181.5,75.5z"/>
					<path d="M156.5,33.6c0-0.1-0.1-0.199-0.1-0.3c-0.8-2.6-1.5-5.3-2.3-8c-0.9-3-1.8-6.1-2.7-9.3c-2.1-7-4.1-12.7-6.3-17.9
						c-2.6-6.1-5.6-11.899-9-17.3c-1.8-2.8-3.8-5.7-6-8.5c1.9-0.5,3.8-1,5.7-1.5c1.7,2.3,3.4,4.7,4.9,7
						c3.6,5.601,6.8,11.7,9.5,18.101c2.3,5.3,4.3,11.199,6.5,18.399c1,3.2,1.9,6.3,2.7,9.4c0.8,2.7,1.5,5.3,2.3,7.899
						c0.2,0.601,0.3,1.2,0.5,1.7C160.3,33.5,158.4,33.5,156.5,33.6z"/>
				</g>
				<g>
					<path d="M166,73.4h0.1c2,3.3,4.1,6.5,6.2,9.399c4,5.5,7.5,9.8,11.1,13.8c1.6,1.9,3.5,3.801,5.2,5.601c0.7,0.8,1.5,1.5,2.2,2.3
						l-4,3.8c-0.7-0.8-1.4-1.5-2.2-2.3c-1.8-1.9-3.7-3.8-5.4-5.8c-3.7-4.101-7.3-8.601-11.4-14.2c-2.8-3.9-5.5-8.2-8.1-12.6
						C161.8,73.3,163.9,73.3,166,73.4z"/>
					<path d="M144.1,34.8c-0.1,0-0.1,0-0.2,0c-0.6-2-1.2-4-1.8-6.1c-2.5-8.601-5-17.5-8.5-25.8c-2.3-5.5-5-10.7-8.1-15.5
						c-2.7-4.2-5.9-8.4-9.4-12.601c2.1-0.3,4.2-0.6,6.4-1c2.8,3.5,5.4,7.101,7.7,10.601c3.2,5,6.1,10.5,8.5,16.3
						c3.7,8.6,6.3,17.6,8.8,26.399c0.7,2.301,1.3,4.601,2,6.9C147.7,34.3,145.9,34.5,144.1,34.8z"/>
				</g>
				<g>
					<path d="M150.1,74.2c0.7-0.101,1.4-0.2,2.1-0.3c3.2,5.699,6.6,11.1,10.1,16c4.2,5.699,8.1,10.5,11.9,14.8
						c1.8,2.1,3.7,4.1,5.6,6.1l0.2,0.2l-4,3.8l-0.2-0.2c-1.9-2-3.9-4.1-5.8-6.3c-3.9-4.3-7.9-9.3-12.2-15.2
						C154.1,88,150.6,82.4,147.3,76.4c-0.3-0.5-0.6-1.101-0.9-1.7C147.6,74.6,148.8,74.4,150.1,74.2z"/>
					<path d="M131.8,37.3c-0.5-1.7-1-3.3-1.4-5c-2.5-8.8-4.9-17-8.1-24.5c-2.1-4.899-4.4-9.399-7.1-13.7
						c-2.7-4.199-5.7-8.199-9.3-12.3c-0.4-0.5-0.9-0.899-1.3-1.399c-0.7-0.7-1.3-1.5-2-2.2l-2.3-2.3c1.1,0,2.2,0,3.2,0
						c0.4,0,0.8,0,1.2,0h0.1c0.4,0,0.9,0,1.3,0c0.6,0,1.1,0,1.7-0.101c0.3,0.3,0.6,0.601,0.9,1c0.4,0.5,0.8,0.9,1.3,1.4
						c3.8,4.3,7.1,8.7,9.9,13.1c2.9,4.5,5.4,9.3,7.6,14.5c3.3,7.8,5.7,16.2,8.3,25.101c0.5,1.699,1,3.5,1.5,5.3
						C135.4,36.5,133.6,36.9,131.8,37.3z"/>
				</g>
			</g>
			<g>
				<path d="M218,90.1c-0.5-0.399-1-0.899-1.4-1.3c-0.7-0.6-1.4-1.3-2.1-1.8l-2.7-2.2l-0.9-0.7C198.3,74.7,182.5,69.2,166.3,68.6
					c-7.8-0.3-16,0.5-24.2,2.4c-2.7,0.6-5.3,1.4-7.8,2.2c-1.6-1.4-3.2-2.7-4.9-4.101c3.7-1.399,7.6-2.6,11.5-3.5
					c7.4-1.699,14.8-2.6,21.9-2.6c1.3,0,2.5,0,3.8,0.1c17.3,0.601,34.2,6.5,47.7,16.601l1,0.7l0.1,0.1l2.8,2.3
					c0.8,0.601,1.5,1.3,2.3,2c0.5,0.4,0.9,0.8,1.4,1.2L218,90.1z"/>
				<path d="M225.2,80l-0.3-0.3c-0.9-0.8-1.7-1.601-2.6-2.3l-3.2-2.601L218,74c-14.6-10.9-32.9-17.3-51.5-18
					c-8.9-0.4-18.2,0.5-27.6,2.7c-5.7,1.3-11.1,3.1-16.4,5.399c-1.8-1.199-3.6-2.399-5.4-3.6c6.5-3,13.4-5.4,20.6-7.1
					c8.4-1.9,16.7-2.9,24.8-2.9c1.4,0,2.8,0,4.2,0.1c19.7,0.7,39.1,7.5,54.6,19l1.1,0.801l0.1,0.1l3.2,2.6
					c1,0.801,1.9,1.601,2.8,2.4l0.3,0.3L225.2,80z"/>
				<path d="M232.4,69.8c-0.7-0.6-1.4-1.2-2-1.8l-3.6-2.9l-1.2-0.899c-3.9-3-8.2-5.7-13.3-8.4c-2.1-1.1-4.2-2.1-6.4-3.1l-1.1-0.5
					c-2.3-1-4.5-1.9-6.8-2.601c-5.1-1.8-10.2-3.1-15.2-4c-5.1-0.899-10.3-1.5-15.5-1.699c-19.8-0.7-39.4,3.6-56.9,12.6
					c-1.9-1.1-3.8-2.1-5.8-3.2c0,0,0.1,0,0.1-0.1c17.8-9.8,37.8-14.9,58.2-14.9c1.5,0,3.1,0,4.6,0.101c5.5,0.199,11,0.8,16.3,1.8
					c5.2,1,10.6,2.399,15.9,4.2c2.5,0.8,4.9,1.8,7.2,2.8l0.5,0.2h0.1l0.7,0.3c2.2,1,4.6,2.1,6.8,3.3c5.3,2.8,9.9,5.7,14,8.8l1.3,0.9
					c0,0,0.1,0,0.1,0.1l3.7,3c0.7,0.601,1.5,1.3,2.2,1.9L232.4,69.8z"/>
			</g>
			<g>
				<path d="M-4.1,85.9C0,81.1,3.9,76.5,7.4,71.8c2.8-3.7,5.4-7.399,7.8-11.2C16.6,58.4,18,55.9,19.4,53.4
					c1.4,1.1,2.9,2.199,4.5,3.3c-1.3,2.399-2.7,4.7-4,6.899c-2.5,3.9-5.2,7.801-8,11.601c-3.7,4.7-7.6,9.3-11.8,14.2
					C-2.3,92.2-4.7,95-7.1,98c-3.9,4.8-6.9,8.9-9.6,12.9c-3.1,4.8-5.8,9.699-7.9,14.6c-2.1,4.9-3.9,10.2-5.2,15.8
					c-1.1,4.7-2,9.601-2.7,16l-0.2,1.9c-0.1,1.3-0.2,2.7-0.3,4l-0.2,3.8l-5.5-0.3l0.2-3.9c0.1-1.399,0.2-2.8,0.3-4.1l0.2-1.9
					c0.8-6.7,1.6-11.899,2.8-16.8c1.4-5.9,3.3-11.5,5.5-16.7c2.2-5.2,5.1-10.399,8.3-15.5c2.7-4.2,5.9-8.399,9.9-13.399
					C-8.9,91.5-6.5,88.6-4.1,85.9z"/>
				<path d="M-1.8,102.3c2.3-2.8,4.7-5.6,7-8.3c4.1-4.8,8.3-9.7,12.1-14.7c3-4,5.8-8.1,8.4-12.1c1.3-2.101,2.6-4.3,3.9-6.7
					c1.5,1,3.1,1.9,4.7,2.8c-1.3,2.4-2.6,4.601-4,6.8c-2.6,4.2-5.6,8.4-8.7,12.5c-3.9,5.2-8.2,10.2-12.3,15
					c-2.3,2.7-4.7,5.5-6.9,8.2c-3.6,4.4-6.4,8.2-8.8,11.8c-2.7,4.2-5,8.5-6.9,12.801c-1.8,4.3-3.4,8.899-4.6,13.8
					c-1,4.1-1.8,8.6-2.4,14.399c-0.1,0.7-0.1,1.301-0.2,2c-0.1,1.2-0.2,2.301-0.3,3.4l-0.3,5.5l-5.5-0.3l0.3-5.5
					c0.1-1.2,0.2-2.4,0.3-3.601c0.1-0.6,0.1-1.3,0.2-2c0.7-6.1,1.5-10.8,2.5-15.1c1.3-5.2,2.9-10.1,4.9-14.7c2-4.6,4.4-9.2,7.3-13.6
					C-8.4,110.8-5.5,106.9-1.8,102.3z"/>
				<path d="M-6.9,133.1c3.1-7.399,7.7-14.399,14.7-23c2.1-2.6,4.4-5.199,6.7-8C18.7,97.2,23,92.1,27.1,86.7
					c3.2-4.3,6.3-8.7,9-13.101c1.4-2.199,2.8-4.6,4.2-7.1c1.6,0.9,3.2,1.7,4.9,2.5c-1.4,2.6-2.9,5.1-4.4,7.5
					c-2.8,4.5-6,9.1-9.3,13.5c-4.2,5.6-8.6,10.7-12.8,15.7c-2.3,2.7-4.5,5.3-6.7,7.899C5.3,121.7,1,128.4-1.9,135.2
					c-1.6,3.6-2.9,7.6-3.9,11.8c-0.9,3.6-1.5,7.5-2.1,12.7c-0.1,0.7-0.1,1.3-0.2,2c-0.1,1-0.2,2-0.2,2.899l-0.1,2.601l-5.5-0.2
					l0.1-2.6c0.1-1,0.2-2.101,0.3-3.101c0.1-0.6,0.1-1.3,0.2-2c0.6-5.5,1.3-9.7,2.3-13.5C-10,141.3-8.6,137-6.9,133.1z"/>
			</g>
			<g>
				<path d="M93.4,151.2c-0.6-1.8-1.4-4.101-2.5-6.3c-3.4-7.4-8.1-13.601-13.7-18.5c-0.1-2.4-0.1-4.7,0-7
					c7.8,5.6,14.3,13.5,18.7,23.1c1.2,2.4,2.1,4.9,2.7,6.8L93.4,151.2z"/>
				<path d="M106,149.7c-1-3.101-2.2-6.601-3.8-9.9c0,0,0-0.1-0.1-0.1c-0.5-1.2-1.1-2.3-1.8-3.5c-0.3-0.5-0.6-1.101-0.8-1.601
					c-0.3-0.5-0.6-1-0.9-1.6c-0.7-1.2-1.4-2.3-2.1-3.3l-0.1-0.101c-1.9-2.899-4.3-5.8-7.3-8.899L87,118.6
					c-0.4-0.399-0.9-0.8-1.4-1.199c-0.3-0.2-0.6-0.5-0.8-0.7l-1.1-0.9c-0.2-0.2-0.5-0.3-0.7-0.5l-2.8-2.1l-2.6-1.7
					c0.2-2,0.4-4,0.8-5.9l0.9,0.5c0,0,0.1,0,0.1,0.101c0.3,0.2,0.6,0.399,0.9,0.6l3,1.9c0.1,0,0.1,0.1,0.2,0.1l2.9,2.101
					c0.3,0.199,0.6,0.399,0.9,0.699l1.2,1c0.3,0.2,0.5,0.4,0.8,0.7c0.5,0.4,1.1,0.9,1.6,1.4l2.2,2.2c3.2,3.3,5.8,6.5,7.9,9.699
					c0.9,1.2,1.6,2.5,2.3,3.7c0.3,0.5,0.6,1,0.9,1.601c0,0.1,0.1,0.1,0.1,0.199c0.3,0.5,0.6,1.101,0.8,1.601
					c0.7,1.2,1.4,2.5,1.9,3.899c1.7,3.601,3,7.301,4.1,10.5L106,149.7z"/>
				<path d="M116.9,143.3c-1.2-3.5-2.3-6.3-3.5-8.7v-0.1c-0.6-1.5-1.4-2.9-2.2-4.4c-0.3-0.5-0.6-1.1-0.9-1.6c-0.3-0.5-0.6-1.1-1-1.6
					c-0.9-1.5-1.7-2.801-2.6-4.101c0,0,0-0.1-0.1-0.1c-2.3-3.5-5.2-7-8.7-10.601l-2.5-2.5c-0.6-0.5-1.2-1-1.8-1.6
					c-0.3-0.2-0.6-0.5-0.9-0.7l-1.3-1.1c-0.3-0.2-0.6-0.5-0.9-0.7l-3.3-2.4l-3.5-2.199c-0.3-0.2-0.6-0.4-0.9-0.601L80.6,99
					c-0.3-0.1-0.5-0.3-0.8-0.4c0.4-1.8,0.8-3.6,1.4-5.5c0.7,0.4,1.4,0.7,2,1.101l2.4,1.3c0,0,0.1,0,0.1,0.1c0.4,0.2,0.7,0.5,1.1,0.7
					l3.6,2.3c0.1,0,0.1,0.101,0.2,0.101l3.4,2.5c0.4,0.3,0.7,0.5,1.1,0.899l1.4,1.2c0.3,0.2,0.6,0.5,0.8,0.7c0.7,0.6,1.3,1.1,2,1.8
					l2.6,2.601c3.8,3.899,6.8,7.6,9.3,11.399c1.1,1.5,2,3,2.9,4.5c0.3,0.5,0.6,1.101,1,1.601c0,0.1,0.1,0.1,0.1,0.199
					c0.3,0.5,0.6,1.101,0.9,1.601c0.8,1.5,1.7,3.1,2.4,4.7c1.3,2.699,2.4,5.6,3.7,9.3L116.9,143.3z"/>
			</g>
			<g>
				<path d="M-257.8-1l3.3-1.5c0.8-0.3,1.5-0.7,2.3-1.1l3.4-1.801c0.7-0.399,1.4-0.8,2.2-1.3c0.4-0.2,0.7-0.399,1.1-0.6l1.6-1l1.5-1
					c0.3-0.2,0.7-0.5,1-0.7c0.7-0.5,1.4-1,2.1-1.5c4-3,7.8-6.5,11.4-10.4c3.2-3.699,6.2-7.899,8.9-12.5c1.8-3.3,3.4-6.6,4.7-9.899
					c2.3-0.601,4.5-1.101,6.5-1.7c-1.7,4.7-3.8,9.5-6.5,14.3c-2.9,5-6.1,9.5-9.6,13.4c-3.8,4.2-7.9,8-12.2,11.2
					c-0.8,0.6-1.5,1.1-2.3,1.6c-0.3,0.2-0.7,0.5-1,0.7l-1.6,1.1l-0.1,0.101l-1.7,1c-0.4,0.199-0.7,0.399-1.1,0.6
					c-0.8,0.5-1.6,0.9-2.5,1.4l-3.4,1.699c-0.9,0.5-1.8,0.9-2.6,1.2l-3.4,1.5C-257.2,4.4-258.6,4.9-260,5.4
					c-0.6,0.199-1.2,0.399-1.7,0.6l-1.9-5.2c0.6-0.2,1.2-0.399,1.8-0.7C-260.4,0-259-0.5-257.8-1z"/>
				<path d="M-260.7-13.3c1.1-0.5,2.1-0.9,3.1-1.4c3.5-1.7,7.2-3.899,11-6.6c3.3-2.5,6.5-5.4,9.5-8.7c2.7-3.1,5.2-6.6,7.4-10.4
					c0.1-0.1,0.1-0.199,0.2-0.399c1.5-0.3,3-0.601,4.6-0.9c0.8-0.2,1.5-0.3,2.3-0.5c-0.7,1.5-1.5,3-2.3,4.5c-2.5,4.2-5.2,8-8.1,11.4
					c-3.2,3.6-6.7,6.7-10.3,9.399c-4.2,3-8.1,5.301-11.8,7.101c-1.1,0.6-2.3,1.1-3.4,1.6c-0.6,0.2-1.2,0.5-1.7,0.8h-0.1
					c-1.1,0.5-2.3,0.9-3.4,1.301c-0.6,0.199-1.2,0.399-1.8,0.699l-1.9-5.1c0.6-0.2,1.2-0.5,1.9-0.7c1.1-0.399,2.1-0.8,3.2-1.2
					C-261.9-12.8-261.3-13-260.7-13.3z"/>
				<path d="M-263.1-25.8l2.5-1.3c0.5-0.2,0.9-0.5,1.4-0.801c0.3-0.199,0.6-0.399,1-0.6l1.1-0.7l1-0.7c0.3-0.199,0.6-0.399,0.9-0.6
					c0.4-0.3,0.8-0.6,1.2-0.9c2.7-2,5.1-4.3,7.6-6.899c0.1-0.101,0.1-0.2,0.2-0.2c1.3-0.1,2.7-0.3,4.1-0.4c1.1-0.1,2.3-0.3,3.5-0.5
					c-1.2,1.7-2.4,3.301-3.7,4.801c-2.7,3-5.4,5.5-8.4,7.699c-0.5,0.4-1,0.7-1.5,1c-0.3,0.2-0.6,0.4-0.9,0.601l-1.1,0.8
					c-0.1,0-0.1,0.1-0.2,0.1l-1.2,0.7c-0.3,0.2-0.6,0.3-0.9,0.5c-0.5,0.3-1.1,0.601-1.7,1l-2.4,1.2c-0.7,0.4-1.3,0.6-1.9,0.9
					l-2.6,1.1l-2.2-5l2.6-1.1C-264.1-25.3-263.6-25.5-263.1-25.8z"/>
			</g>
			<g>
				<path d="M-147-20.5c-1.3-0.2-2.5-0.3-3.8-0.5c-4.7-7-8.9-15.2-13.2-23.7l-0.8-1.5c-5.6-11-11.5-22.399-19.8-33.2
					c-4.5-5.8-9.4-10.8-14.6-14.899c-5.8-4.601-12-8.2-18.3-10.8c-6.2-2.5-12.8-4.301-20.3-5.5l-5.2-0.601c-0.3,0-0.6-0.1-1-0.1
					c-0.5-0.101-1-0.101-1.5-0.101l-4.1-0.199c-1.2-0.101-2.4-0.101-3.6-0.101l-8,0.2l-2.9,0.2l-0.4-5.5l3-0.2c0.1,0,0.1,0,0.2,0
					l8.2-0.2c0,0,0,0,0.1,0c0,0,0,0,0.1,0c1.3,0,2.5,0.101,3.8,0.101l4.1,0.199c0.6,0,1.3,0.101,1.9,0.2c0.3,0,0.6,0.101,0.9,0.101
					l5.3,0.6h0.1c7.9,1.3,15,3.2,21.5,5.9c6.9,2.8,13.5,6.699,19.7,11.6c5.5,4.4,10.7,9.7,15.5,15.8
					c8.7,11.101,14.7,22.8,20.4,34.101l0.8,1.5C-153.7-37-148.8-27.4-143-19.8C-144.5-20.1-145.7-20.3-147-20.5z"/>
				<path d="M-165.9-21.9c-0.3-0.5-0.6-1-0.9-1.5c-2.9-5.1-5.6-10.399-8.2-15.5l-0.6-1.199c-5.2-10.2-11.1-21.801-18.8-31.601
					c-3.9-5-8.2-9.3-12.6-12.899c-4.9-3.9-10-6.9-15.4-9.101c-5.2-2.1-10.9-3.7-17.3-4.7l-4.5-0.5c-0.3,0-0.6-0.1-0.9-0.1
					c-0.4-0.1-0.9-0.1-1.3-0.1l-6.9-0.301l-7.3,0.2l-8.1,0.7l-0.4-5.5l8.2-0.7c0.1,0,0.1,0,0.2,0l7.4-0.2c0,0,0,0,0.1,0h0.1l7,0.301
					c0.6,0,1.1,0.1,1.7,0.199c0.3,0,0.5,0.101,0.8,0.101l4.6,0.5h0.1c6.9,1.1,13,2.8,18.6,5c5.8,2.399,11.4,5.7,16.7,9.899
					c4.8,3.801,9.3,8.4,13.5,13.801c8,10.3,14.1,22.1,19.4,32.5l0.6,1.199c2.6,5.101,5.2,10.301,8.1,15.301c0.9,1.5,1.7,3,2.6,4.399
					C-161.6-21.8-163.8-21.9-165.9-21.9z"/>
				<path d="M-177.9-21.4c-0.6,0.101-1.2,0.101-1.8,0.2c-2.2-4-4.2-8-6.2-11.8l-0.7-1.4c-5.7-11.3-11-21.399-17.5-29.6
					c-6.7-8.6-14.2-14.6-22.9-18.1c-4.3-1.7-9-3-14.4-3.9l-3.9-0.4c-0.3,0-0.5-0.1-0.8-0.1c-0.4,0-0.7-0.1-1.1-0.1l-6.1-0.2
					l-6.5,0.2l-7.4,0.6l-0.4-5.5l7.5-0.6c0.1,0,0.1,0,0.2,0l6.7-0.2c0,0,0,0,0.1,0h0.1l6.2,0.2c0.5,0,1,0.1,1.5,0.1
					c0.2,0,0.4,0.1,0.7,0.1l4,0.4h0.1c5.9,1,11,2.3,15.7,4.2c9.5,3.899,17.9,10.6,25.2,19.8c6.8,8.6,12.2,18.9,18.1,30.5l0.7,1.4
					c2.3,4.5,4.7,9.199,7.3,13.8C-175.1-21.6-176.5-21.5-177.9-21.4z"/>
			</g>
			<g>
				<path d="M-184.1,48.1c4.1-5,7.6-9.699,10.5-14.6c3.2-5.2,5.6-10.3,7.4-15.5c1.9,0,3.8,0.1,5.7,0.2c-2,6.1-4.7,12-8.4,18.1
					c-3.1,5.101-6.7,10.101-11,15.3c-8,9.5-17.1,17.9-27.2,25c-2.8,1.9-5.5,3.7-8.3,5.301l-2.8-4.801c2.6-1.5,5.3-3.199,7.9-5.1
					C-200.5,65.3-191.7,57.2-184.1,48.1z"/>
				<path d="M-193.6,40.1c3.7-4.5,6.8-8.699,9.4-13c1.6-2.699,3-5.3,4.2-8c2-0.399,3.9-0.6,5.9-0.8c0.2,0,0.3,0,0.5,0
					c-1.5,3.9-3.5,7.8-5.8,11.7c-2.7,4.6-6,9-9.9,13.7c-7.3,8.7-15.6,16.3-24.7,22.8c-3.2,2.2-6.4,4.2-9.6,6l-2.6-4.8
					c3-1.601,6.1-3.601,9.1-5.7C-208.5,55.7-200.5,48.4-193.6,40.1z"/>
				<path d="M-203.1,32.2c2.2-2.601,4.1-5.2,5.9-7.7c0.2-0.1,0.4-0.2,0.6-0.3c0.6-0.3,1.3-0.601,1.8-0.8l3.8-1.4
					c0.8-0.3,1.5-0.5,2.3-0.7c-0.4,0.8-0.9,1.5-1.3,2.3c-2.4,4-5.3,8.101-8.8,12.2c-6.5,7.7-14.2,14.8-22.3,20.601
					c-2.8,2-5.7,3.699-8.4,5.3l-2.7-4.8c2.6-1.4,5.3-3.101,7.9-5C-216.6,46.3-209.2,39.5-203.1,32.2z"/>
			</g>
			<g>
				<path d="M131.2,130.6l-0.5-1.399c-0.7-2.101-1.4-4-2.2-5.8c0,0,0-0.101-0.1-0.101c-2.7-6.2-5.9-11.3-9.6-15.8
					c-3.8-4.6-8.5-8.9-13.9-12.9c-10.5-7.8-23-13.699-37.1-20.1l-1.7-0.8c-6.3-2.9-12.8-5.9-19.3-9.2c-8.5-4.3-15.4-8.4-21.5-12.7
					c-6.8-4.8-12.8-10.2-17.8-16c0.1-0.3,0.2-0.6,0.3-0.899c0.6-1.7,1.3-3.4,1.8-5.101C9.7,29.9,9.8,30,9.9,30.2
					c5,6.2,11.3,12,18.5,17.1c5.9,4.2,12.5,8.101,20.8,12.3c6.4,3.301,12.9,6.2,19.1,9.101l1.8,0.8c14.4,6.5,27.2,12.6,38.1,20.7
					c5.7,4.2,10.7,8.899,14.8,13.8c4.1,4.8,7.5,10.4,10.4,17c1,2.1,1.8,4.3,2.5,6.4l0.5,1.3L131.2,130.6z"/>
				<path d="M143.4,127.9c-0.3-0.801-0.5-1.601-0.8-2.301c-0.8-2.5-1.7-4.899-2.7-7.1v-0.1c-3.1-7.101-7-13.4-11.4-18.7
					c-4.5-5.4-9.9-10.4-16.1-15C99.9,75.6,85.6,69,73,63.2L70.3,62c-12.8-5.9-26-11.9-37.8-20.3C25.7,37,20,31.6,15.3,25.8
					c-1.1-1.3-2.1-2.7-3-4c0.7-2.399,1.3-4.7,1.9-7.1c1.6,2.7,3.4,5.3,5.4,7.7C23.9,27.8,29.4,32.8,35.7,37.3
					C47.1,45.4,60,51.3,72.6,57.1l2.7,1.2c12.9,5.9,27.5,12.601,40.3,22c6.6,4.8,12.3,10.2,17,15.9c4.8,5.6,8.9,12.3,12.2,19.899
					c1.2,2.5,2.1,5.101,3,7.7c0.3,0.8,0.5,1.5,0.8,2.3L143.4,127.9z"/>
				<path d="M155.4,124.8c-0.3-1-0.7-1.899-1-2.899c-1-3-2-5.801-3.3-8.601c-3.6-8.2-8-15.399-13.2-21.6
					c-5.1-6.2-11.3-11.9-18.3-17.101C113.7,70.3,107,66.1,99,61.9c-6.7-3.5-13.5-6.7-20.1-9.7l-2.2-1c-13.5-6.2-26.3-12-37.1-19.7
					c-5.8-4.1-10.8-8.7-14.8-13.6c-3.3-4.101-6.1-8.7-8.5-13.5C17,0.7,17.6-2.5,18-6c3.7,9.8,6.6,15,11,20.4
					c3.6,4.5,8.2,8.699,13.7,12.6c10.5,7.6,23.1,13.3,36.4,19.4l2.2,1c6.6,3,13.5,6.199,20.3,9.8c8.2,4.3,15.2,8.6,21.3,13.1
					c7.4,5.4,13.9,11.5,19.2,18c5.5,6.5,10.2,14.2,14,22.8c1.4,3,2.5,6.101,3.5,9.101c0.3,1,0.6,1.899,1,2.899L155.4,124.8z"/>
			</g>
			<g>
				<g>
					<path d="M245.3-24.9c0.9-0.6,1.7-1.1,2.6-1.6c0.7-0.4,1.3-0.8,1.9-1.2l1.1-0.6c0.7,0.2,1.5,0.399,2.2,0.6
						c3.6,0.9,7,1.7,10.2,2.3c2.7,0.5,5.1,0.9,7.3,1.101l-0.6,5.5c-2.4-0.3-4.9-0.601-7.7-1.2c-3.3-0.6-6.9-1.4-10.6-2.4
						c-2.3-0.6-4.7-1.3-7.1-2L245.3-24.9z"/>
					<path d="M205.5-42.6c-0.6,0.699-1.1,1.3-1.6,1.899c-1.1-0.6-2.3-1.2-3.4-1.8c-5.7-3.1-10.4-6-14.3-8.9
						c1.6-0.899,3.2-1.699,4.7-2.6c0.2-0.1,0.4-0.2,0.7-0.4c3.3,2.2,7.1,4.5,11.5,7c1.5,0.801,3,1.601,4.6,2.4L205.5-42.6z"/>
				</g>
				<g>
					<path d="M197.4-32.1c-0.2,0.3-0.4,0.6-0.6,0.899c-0.1,0.2-0.2,0.4-0.4,0.5c-0.6-0.3-1.2-0.7-1.8-1c-5.6-3.1-13-7.3-19.7-12.8
						c-0.2-0.2-0.4-0.4-0.7-0.6c1.8-0.9,3.6-1.9,5.3-2.801c6,4.801,12.6,8.601,17.7,11.4c0.8,0.4,1.5,0.8,2.3,1.2L197.4-32.1z"/>
					<path d="M234.3-14.9c0.3-0.3,0.5-0.699,0.7-0.8l3.1-3.3c0.1-0.1,0.1-0.1,0.2-0.2c0.3,0.101,0.6,0.2,0.9,0.3
						c3.6,1.2,7.3,2.2,10.9,3.2c3.9,1,7.5,1.8,11,2.5c3.9,0.7,7.4,1.2,10.6,1.5l-0.4,5.5c-3.4-0.3-7-0.8-11.2-1.5
						c-3.7-0.7-7.4-1.5-11.4-2.6c-3.7-1-7.5-2-11.2-3.2c-1.1-0.4-2.2-0.7-3.3-1.1C234.2-14.8,234.2-14.8,234.3-14.9z"/>
				</g>
				<g>
					<path d="M227.6-5l2-3.5c0-0.1,0.1-0.2,0.3-0.4c1.8,0.601,3.7,1.2,5.5,1.801c3.9,1.199,7.7,2.399,11.5,3.3
						c4.2,1.1,8.1,2,11.9,2.7c3.5,0.6,6.5,1.1,9.5,1.399l-0.6,5.5c-3.1-0.3-6.3-0.8-9.9-1.5c-4-0.7-8-1.6-12.3-2.8
						c-3.9-1-7.9-2.2-11.8-3.4C231.5-2.6,229.4-3.3,227.2-4.1L227.6-5z"/>
					<path d="M191.7-22.4l-1.2,2.601c0,0,0,0,0,0.1c-0.6-0.3-1.2-0.7-1.8-1c-6.5-3.6-14.2-8.1-21.7-14.2
						c-1.5-1.3-3.1-2.699-4.7-4.199c1.8-0.801,3.5-1.601,5.3-2.5c0.9,0.8,1.9,1.699,2.9,2.5c7.1,5.8,14.2,10,20.8,13.6
						c0.6,0.3,1.1,0.6,1.7,0.9L191.7-22.4z"/>
				</g>
			</g>
			<g>
				<g>
					<path d="M-96.6,142.5c0.1-0.3,0.2-0.6,0.3-0.8l1.2-2.9c3-7.7,4.9-16,5.6-24.8l0,0c1.9-0.1,3.8-0.2,5.5-0.2c0,0.2,0,0.4,0,0.601
						c-0.7,9.3-2.7,18.1-5.9,26.399l-1.2,3c-0.1,0.3-0.2,0.5-0.3,0.8c-0.3,0.801-0.7,1.601-1.1,2.301l-1,1.899l-4.9-2.5l1-1.899
						C-97.1,143.8-96.9,143.2-96.6,142.5z"/>
					<path d="M-91.5,43.6c0.8,6,1.8,12,2.9,18.4c0.7,4,1.4,8,2,12.1c-1.8,0-3.6,0.101-5.5,0.2c-0.6-3.8-1.3-7.6-1.9-11.399
						c-1.1-6.4-2.2-12.5-3-18.601c-2.3-16.7-2.1-30,0.5-41.899C-94.3-8.2-89.6-18.5-82.7-28.4L-81-28.3c1.2,0.1,2.4,0,3.5,0
						c0.4,0,0.8,0,1.3,0h0.3h0.1C-83.6-18-88.7-7.3-91,3.7C-93.5,14.8-93.7,27.5-91.5,43.6z"/>
				</g>
				<g>
					<path d="M-108.6,139.1c0.2-0.399,0.4-0.899,0.7-1.5c0.1-0.3,0.2-0.5,0.3-0.699l1-2.5c2.3-5.801,3.8-12.2,4.5-18.801l2.8-0.5
						l1.5-0.199c0.4-0.101,0.9-0.101,1.3-0.2c-0.7,7.7-2.4,15-5,21.8l-1.1,2.6c-0.1,0.2-0.2,0.4-0.3,0.7
						c-0.3,0.601-0.5,1.3-0.9,2.101l-1.5,3l-4.9-2.5L-108.6,139.1L-108.6,139.1z"/>
					<path d="M-105.4,22.9c0,6.699,0.5,14,1.6,22.3c0.9,6.399,2,12.899,3.1,19.1c0.6,3.4,1.2,6.9,1.8,10.5c-1.5,0.2-3,0.4-4.6,0.601
						l-0.9,0.1c-0.6-3.4-1.1-6.9-1.7-10.2c-1.1-6.3-2.2-12.8-3.1-19.3c-1.2-8.5-1.7-16-1.7-23c0-8.1,0.8-15.9,2.4-23.1
						c2.1-10.101,6.3-20.2,12.2-29.801c0.4,0.101,0.8,0.2,1.2,0.301l0.3,0.1c1.1,0.2,2.2,0.3,3.3,0.5l1.1,0.2
						c-6.2,9.6-10.5,19.8-12.7,30C-104.6,7.8-105.4,15.2-105.4,22.9z"/>
				</g>
				<g>
					<path d="M-104.7-29.3c-0.7,1.3-1.5,2.5-2,3.8c0,0,0,0.1-0.1,0.1c-3.7,7.101-6.5,15-8.4,23.601c-1.7,7.7-2.6,16-2.6,24.6
						c0,7.3,0.6,15.101,1.8,24c0.9,6.8,2.1,13.5,3.2,19.9c0.6,3.399,1.1,6.7,1.7,10l-1.2,0.2c-1.4,0.3-2.8,0.699-4.2,1
						c-0.5-3.4-1.1-6.801-1.7-10.301c-1.1-6.5-2.3-13.199-3.2-20.1c-1.2-9.1-1.8-17.1-1.8-24.7c0-9,0.9-17.7,2.7-25.8
						c2-9,5-17.3,8.8-24.8c0.7-1.5,1.5-2.9,2.3-4.2c0.2-0.4,0.5-0.8,0.7-1.3c1.7,0.6,3.5,1.1,5.4,1.6l-0.5,0.8
						C-104.1-30.4-104.4-29.8-104.7-29.3z"/>
					<path d="M-119.8,133.7c0.2-0.3,0.3-0.7,0.5-1.101c0.1-0.199,0.2-0.5,0.3-0.699l0.9-2.101c1.3-3.3,2.3-6.8,3-10.5l0.9-0.399
						c0.9-0.301,1.8-0.601,2.8-1c0.7-0.2,1.4-0.5,2.1-0.7l0,0c-0.8,5.1-2,10-3.8,14.6l-0.9,2.2c-0.1,0.2-0.2,0.4-0.2,0.6
						c-0.2,0.5-0.5,1.101-0.8,1.801l-2.1,4l-4.9-2.5l2.1-4.101C-119.8,133.8-119.8,133.8-119.8,133.7z"/>
				</g>
			</g>
			<g>
				<g>
					<path d="M-52.8,149.3c1.7-12.399,4.9-24.6,9.5-36.3c2.2-5.8,4.9-11.4,7.7-16.8c1.5,1.2,3,2.399,4.4,3.5
						c-2.5,5-4.9,10.1-6.9,15.3c-4.5,11.2-7.6,23-9.2,35.1c-0.4,2.2-0.6,4.4-0.8,6.7c-0.1,1.101-0.2,2.3-0.3,3.4l-5.5-0.601
						c0.1-1.1,0.2-2.199,0.3-3.3C-53.4,154-53.2,151.6-52.8,149.3z"/>
				</g>
				<g>
					<path d="M-65.1,147.6c1.8-13.399,5.3-26.6,10.3-39.1c2.7-7,5.9-13.7,9.3-20.2c1.5,1.2,2.9,2.4,4.4,3.5c-3.1,6-6,12.2-8.6,18.7
						c-4.8,12.1-8.2,24.9-10,37.9c-0.4,2.399-0.6,4.8-0.9,7.3c-0.1,1.2-0.2,2.3-0.4,3.5l-5.5-0.601c0.1-1.1,0.2-2.3,0.3-3.399
						C-65.7,152.7-65.5,150.1-65.1,147.6z"/>
				</g>
				<g>
					<path d="M-77.3,145.9c2-14.4,5.7-28.5,11-41.9c3.3-8.4,7.2-16.4,11.2-23.9c1.4,1.301,2.8,2.5,4.2,3.801
						c-3.7,7-7.3,14.399-10.3,22.199c-5.2,13.101-8.8,26.7-10.7,40.7c-0.4,2.601-0.7,5.3-0.9,8l-0.2,1.7l-5.5-0.5l0.2-1.7
						C-78,151.4-77.8,148.6-77.3,145.9z"/>
				</g>
			</g>
			<g>
				<g>
					<path d="M5.7,130.9c0.1-0.101,0.2-0.301,0.3-0.4c1.1,3,1.9,6,2.5,9.1c0.2,0.601,0.3,1.2,0.3,1.801c0,0.199,0.1,0.399,0.1,0.6
						l0.7,4.4c0,0.1,0,0.199,0,0.199l0.2,2.301c0,0.6,0.1,1.199,0.1,1.8c0.1,0.899,0.1,1.899,0.2,2.8v0.1v4.601c0,0.3,0,0.6,0,0.8
						c0,0.6,0,1.1,0,1.8l-0.5,7.5L4.1,167.9l0.5-7.4c0-0.5,0-1,0-1.4c0-0.3,0-0.6,0-0.899v-4.5c0-0.9-0.1-1.7-0.2-2.601
						c0-0.6-0.1-1.199-0.1-1.8L4.1,147l-0.6-4.3c0-0.2-0.1-0.5-0.1-0.7c-0.1-0.4-0.1-0.8-0.2-1.1c0-0.101,0-0.2-0.1-0.2
						c-0.2-1-0.4-2-0.7-3C3.4,135.3,4.5,133.1,5.7,130.9z"/>
					<path d="M-73.5,32.2c1.4,5.6,3.4,11.1,6,16c3.4,6.399,8,12.7,13.7,18.8c5.4,5.6,11,10.4,16.3,14.6c2.1,1.7,4.2,3.4,6.2,5
						c3.4,2.7,6.6,5.2,9.7,7.9c0.9,0.7,1.7,1.4,2.5,2.1c-1.2,1.5-2.3,3-3.3,4.4c-0.9-0.8-1.8-1.5-2.7-2.3
						c-3.1-2.601-6.3-5.101-9.6-7.8c-2.1-1.601-4.2-3.301-6.3-5C-46.4,81.5-52.2,76.6-57.8,70.8c-6.1-6.399-11-13.1-14.6-20
						c-2.9-5.6-5.2-11.8-6.7-18.2C-77.2,32.4-75.4,32.3-73.5,32.2z"/>
				</g>
				<g>
					<path d="M14.4,118.4c2.9,6,5,12.3,6.2,18.699c0.2,0.7,0.3,1.4,0.4,2c0,0.2,0.1,0.5,0.1,0.7l0.8,5.101c0,0.1,0,0.1,0,0.199
						l0.2,2.601c0,0.6,0.1,1.2,0.1,1.8c0.1,1.1,0.2,2.3,0.2,3.4v0.1v5.2c0,0.3,0,0.6,0,0.899c0,0.601,0,1.301,0,2l-0.3,4.7
						l-5.5-0.399l0.3-4.7c0-0.5,0-1.101,0-1.601c0-0.3,0-0.699,0-1V153c0-1.1-0.1-2.1-0.2-3.2c0-0.6-0.1-1.2-0.1-1.8l-0.2-2.5
						l-0.7-5c0-0.3-0.1-0.5-0.1-0.8c-0.1-0.5-0.1-1-0.3-1.5c0-0.101,0-0.101,0-0.2c-1-5-2.5-10-4.6-14.8
						C11.7,121.8,13,120.2,14.4,118.4z"/>
					<path d="M-62.9,30.3l1.4-0.3h0.1c1.1,4.4,2.7,8.5,4.8,12.4c2.8,5.399,6.8,10.8,11.7,16c6.5,6.699,14,12.6,21.3,18.3
						c3.3,2.6,6.7,5.399,10.1,8.1c0.8,0.7,1.6,1.3,2.3,2c-1.2,1.4-2.3,2.8-3.5,4.2c-0.8-0.7-1.5-1.3-2.3-2c-3.2-2.7-6.6-5.4-9.9-8
						c-7.4-5.9-15-11.9-21.7-18.9C-53.9,56.5-58.2,50.7-61.2,44.9c-2.3-4.301-4-8.9-5.3-13.7C-65.4,30.9-64.1,30.6-62.9,30.3z"/>
				</g>
				<g>
					<path d="M22.3,108.9c0.2-0.301,0.4-0.5,0.7-0.801c0.6,1.101,1.2,2.2,1.7,3.2c3.8,7.5,6.5,15.3,8,23.3
						c0.2,0.801,0.3,1.601,0.4,2.301c0,0.3,0.1,0.5,0.1,0.8l0.9,5.8c0,0.1,0,0.1,0,0.2l0.2,2.899c0,0.601,0.1,1.2,0.1,1.801
						c0.1,1.399,0.2,2.699,0.3,4.1v0.1v5.801c0,0.3,0,0.699,0,1c0,0.699,0,1.399,0,2.199l-0.2,3L29,164.2l0.2-2.9
						c0-0.6,0-1.2,0-1.899c0-0.4,0-0.7,0-1v-5.7c-0.1-1.3-0.1-2.601-0.2-3.8c0-0.601-0.1-1.2-0.1-1.801l-0.2-2.8l-0.8-5.7
						c0-0.3-0.1-0.6-0.1-0.899c-0.1-0.601-0.2-1.2-0.3-1.8c0-0.101,0-0.101,0-0.2c-1.5-7.5-4-14.9-7.6-21.9
						c-0.2-0.399-0.4-0.8-0.6-1.2C20.2,111.4,21.3,110.2,22.3,108.9z"/>
					<path d="M-52,27c0.8-0.3,1.6-0.6,2.4-0.9c0.9,3.801,2.2,7.301,4,10.601c2.3,4.399,5.5,8.8,9.7,13.2
						C-30.3,55.8-23.4,61.3-16.1,67.1c3.4,2.7,6.9,5.5,10.4,8.4c0.8,0.7,1.6,1.4,2.4,2c-1.1,1.4-2.3,2.8-3.5,4.2
						c-0.8-0.7-1.6-1.3-2.4-2c-3.4-2.9-6.9-5.601-10.3-8.3C-27,65.5-34,59.8-39.9,53.7c-4.6-4.8-8.1-9.5-10.6-14.4
						c-1.8-3.5-3.2-7.2-4.3-11.2C-53.8,27.7-52.9,27.4-52,27z"/>
				</g>
			</g>
			<g>
				<path d="M-202.7-52.3c-6.5,1.8-13.2,3.6-20.1,5.1c-8.5,1.9-15.6,3.101-22.4,3.8c-8.1,0.801-16.2,0.9-23.9,0.101
					c-2.6-0.3-5.4-0.7-8.2-1.2l1-5.4c2.7,0.5,5.3,0.9,7.7,1.101c7.4,0.7,15,0.7,22.8-0.101c6.6-0.6,13.5-1.8,21.8-3.699
					c6.5-1.5,12.8-3.2,18.9-4.801l0.5,0.7c0.6,0.8,1.2,1.8,1.8,2.8c0.3,0.4,0.6,0.9,0.8,1.301l0,0L-202.7-52.3z"/>
				<path d="M-128.7-52l0.8,0.4c6.1,2.6,12.5,5.199,19.2,7.6c8.4,2.9,15.5,4.5,22.5,5.2l6.2,0.3c2.2,0,4.1-0.1,5.9-0.2
					c4.2-0.3,8.2-1,12.1-2c9.8-2.6,16.2-6.7,23.4-13.399c0.8-0.7,1.5-1.5,2.3-2.2c-0.6,3.3-1.3,6.3-2,9.3c-6.5,5.6-13,9.3-22.3,11.8
					c-4.1,1.101-8.5,1.8-13,2.2c-1.9,0.2-3.8,0.2-6.1,0.2c-0.2,0-0.3,0-0.5,0l-6.3-0.3h-0.1c-7.4-0.7-15-2.5-23.8-5.5
					c-6.9-2.4-13.4-5.101-19.6-7.7l-0.8-0.4c-5.6-2.399-12.2-5.1-18.4-7.1c-3.5-1.2-6.6-2-9.5-2.7c-0.7-1.4-1.4-2.7-2.2-4.1
					c-0.4-0.7-0.8-1.4-1.1-2.101c4.2,0.7,8.8,1.9,14.5,3.7C-141.1-57.2-134.4-54.5-128.7-52z"/>
				<path d="M-225.6-59.2c-16.5,3.7-29.9,4.9-42.4,3.601c-3.2-0.301-6.5-0.9-10.1-1.601l1.2-5.399c3.4,0.699,6.5,1.199,9.5,1.5
					c11.8,1.199,24.7,0.1,40.6-3.5c4.3-1,8.6-2.101,12.9-3.2c1.5,1.399,2.9,2.899,4.3,4.6C-214.9-61.8-220.2-60.4-225.6-59.2z"/>
				<path d="M-34.3-69.7c0,0.101,0,0.3,0,0.4c-8,11.8-17,18.5-29.4,21.8c-6.9,1.8-14.2,2.4-21.7,1.7c-6.4-0.601-13.1-2.2-20.9-4.9
					c-6.4-2.2-12.7-4.8-18.8-7.399c-6.5-2.7-13.3-5.601-20.1-7.801c-7.9-2.6-14-4-19.7-4.5c-0.1,0-0.1,0-0.2,0
					c-0.3-0.1-0.6-0.1-1-0.1c-0.5-0.8-1-1.7-1.5-2.5l-0.1-0.2c-0.4-0.6-0.8-1.2-1.2-1.8c-0.2-0.4-0.5-0.8-0.7-1.1l2.7,0.1
					c0.8,0,1.7,0.1,2.6,0.2c6.2,0.6,12.6,2,20.9,4.7c7,2.3,13.9,5.199,20.5,8c6,2.5,12.2,5.1,18.5,7.3c7.4,2.5,13.7,4,19.7,4.6
					c6.9,0.601,13.5,0.101,19.8-1.5c9.9-2.6,22.2-9.2,31.2-27.1c0.3-0.5,0.5-1.101,0.7-1.601C-33.5-77.4-33.9-73.4-34.3-69.7z"/>
				<path d="M-266.7-67.9c-3-0.3-6.1-0.8-9.6-1.6l1.2-5.4c3.3,0.7,6.2,1.2,8.9,1.5c10.4,1.101,22.1,0,36.6-3.3
					c0.7-0.2,1.4-0.3,2-0.5c2,0.9,3.9,1.9,5.7,3.101c0.4,0.3,0.9,0.6,1.3,0.899c-2.6,0.7-5.2,1.3-7.8,1.9
					C-243.4-67.8-255.6-66.8-266.7-67.9z"/>
				<path d="M-79.7-57.9c-0.1,0-0.3,0-0.4,0c-1.4-0.1-2.7-0.1-4.1-0.199c-0.1,0-0.1,0-0.2,0c-5.4-0.5-11.3-1.9-18.1-4.2
					c-5.7-1.9-11.5-4.4-17.6-6.9C-126.9-72.1-134-75-141.6-77.6c-3-1-6.4-2-10.8-3.101l-5.7-1.2l-6-0.8c-0.8-0.1-1.6-0.2-2.6-0.2
					l-3.2-0.1c-0.4,0-0.7,0-1.1,0c-0.6,0-1.2-0.1-1.8,0c-0.4,0-0.7,0-1.1,0c-0.3,0-0.5,0-0.8,0l-1.9-2.5c-0.7-0.9-1.4-1.8-2.2-2.7
					c0.8-0.1,1.6-0.1,2.4-0.2c0.8-0.1,1.6-0.1,2.4-0.1c0.3,0,0.7,0,1,0c0.9,0,1.6,0,2.3,0c0.3,0,0.6,0,1,0l3.3,0.1
					c1,0,2.1,0.101,3.1,0.301l6,0.8c0.1,0,0.1,0,0.2,0l5.8,1.2h0.1c4.6,1.1,8.2,2.199,11.3,3.199c7.8,2.601,14.9,5.601,21.9,8.5
					c6,2.5,11.7,4.9,17.2,6.801c6.4,2.199,11.8,3.5,16.8,4c1.3,0.1,2.7,0.1,4,0.199c23.3,0.101,40.1-17.199,40.1-49v-7.1v-50h5.5v50
					v7.1C-34.3-77.5-53-57.9-79.7-57.9z"/>
			</g>
			<g>
				<path d="M-231.2,34.3c0.9-0.8,1.9-1.7,2.8-2.399l5.2-4.101l0.1-0.1l3.2-2.2c2.1-1.6,4.4-3,6.5-4.3c0.8-0.5,1.6-1,2.4-1.5
					c0,0,0.1,0,0.1-0.101c6.5-3.6,12.9-6.399,19.1-8.3c6.6-2.1,13.4-3.3,20.3-3.6c6.6-0.4,13.4,0,21,1.2c7.7,1.199,15.2,3,21.6,4.6
					c0.4,0.1,0.7,0.2,1.1,0.3c-0.1,1.8-0.2,3.7-0.3,5.601c-0.7-0.2-1.5-0.4-2.2-0.601c-6.2-1.6-13.6-3.399-21-4.5
					c-7.2-1.1-13.7-1.5-19.9-1.1c-6.4,0.3-12.8,1.5-18.9,3.399c-5.8,1.801-11.9,4.5-18,7.9c-0.8,0.5-1.6,1-2.4,1.5
					c-2.1,1.3-4.2,2.5-6.2,4l-3.2,2.2l-5.2,4.1c-0.8,0.601-1.7,1.3-2.5,2.101c-0.4,0.399-0.8,0.699-1.2,1.1l-1.3,1.1l-3.6-4.1
					l1.3-1.2C-231.9,35-231.6,34.7-231.2,34.3z"/>
				<path d="M-81.4,22.2h1.7c0.3,0,0.6,0,1,0l4.1-0.3c0.6,0,1.3-0.101,2.1-0.2c0.4-0.101,0.8-0.101,1.1-0.2c0.4-0.1,0.8-0.1,1.2-0.2
					c0.7-0.1,1.4-0.2,2.1-0.3l5.1-1.2l1.5-0.399c1.2-0.4,2.1-0.601,3-0.9c1-0.3,2-0.7,3-1.1c4.3-1.601,8.3-3.5,11.9-5.7
					c3.9-2.3,7.6-5.2,10.8-8.4c3.9-3.8,8-9.399,11.6-15.6c-0.4,3.2-0.9,6.399-1.5,9.5c-0.2,1.2-0.5,2.399-0.8,3.7
					C-25.2,3.1-27,5.2-29.1,7.3c-3.6,3.5-7.5,6.7-11.8,9.2c-3.9,2.3-8.2,4.4-12.8,6.1c-1.1,0.4-2.2,0.801-3.2,1.101s-2,0.6-3.2,1
					l-1.6,0.5h-0.1l-5.2,1.2c-0.9,0.199-1.7,0.3-2.5,0.399c-0.4,0.101-0.7,0.101-1.2,0.2c-0.4,0-0.7,0.1-1.1,0.2
					c-0.8,0.1-1.7,0.3-2.5,0.3l-4,0.3c-0.4,0-0.9,0.101-1.3,0.101h-1.7h-0.1c-2.2,0-4.4-0.101-6.6-0.2c-0.1-1.9-0.1-3.8-0.1-5.5
					C-85.9,22.1-83.7,22.2-81.4,22.2L-81.4,22.2z"/>
				<path d="M-239.2,24.9c1-0.9,2-1.801,3.1-2.601l5.7-4.5l0.1-0.1l3.5-2.4c2.4-1.8,5-3.399,7.5-4.899c0.8-0.5,1.6-1,2.4-1.5
					c0,0,0.1,0,0.1-0.101c7.3-4.1,14.5-7.2,21.6-9.399c7.5-2.4,15.4-3.801,23.3-4.2c7.4-0.4,15.1,0,23.5,1.3
					c7.5,1.1,15,2.9,22.3,4.7c-0.3,1.8-0.6,3.6-0.8,5.5c-7.3-1.9-14.8-3.601-22.3-4.8c-8-1.2-15.3-1.601-22.4-1.2
					C-179,1.1-186.4,2.4-193.5,4.6C-200.2,6.7-207.1,9.7-214,13.5c-0.8,0.5-1.6,1-2.4,1.5c-2.5,1.5-4.8,2.9-7.1,4.6L-227,22
					l-5.6,4.4c-0.9,0.699-1.8,1.5-2.8,2.3c-0.4,0.399-0.8,0.8-1.3,1.1l-4.1,3.601l-3.6-4.101l4.2-3.6
					C-240,25.6-239.6,25.3-239.2,24.9z"/>
				<path d="M-19.8-38l-0.1,5.1c-3.2,12-9.9,24.2-17.6,31.4C-43.1,3.8-50,7.9-57.9,10.9c-0.9,0.399-1.9,0.699-2.8,1
					c-0.8,0.3-1.7,0.6-2.9,0.899l-1.4,0.4c-0.1,0-0.1,0-0.2,0l-4.2,1c-0.7,0.2-1.4,0.3-2.1,0.399c-0.3,0-0.6,0.101-0.9,0.101h-0.1
					c-0.3,0-0.6,0.1-0.9,0.1c-0.7,0.101-1.4,0.2-2.1,0.2l-3.4,0.2c-0.4,0-0.7,0.1-1.1,0.1h-1.4c-2.1,0-4.3-0.1-6.5-0.3
					c0.2-1.8,0.4-3.7,0.7-5.5c2,0.1,3.9,0.2,5.7,0.2h0.1h1.4c0.2,0,0.5,0,0.7,0c0.2,0,0.4,0,0.5,0l2.9-0.2c0.5,0,1-0.1,1.6-0.2
					c0.3-0.1,0.7-0.1,1-0.2C-73,9-72.6,9-72.3,9c0.6-0.1,1.1-0.1,1.6-0.3l4.1-1l1.3-0.4c1.1-0.3,1.9-0.6,2.6-0.8h0.1
					c0.9-0.3,1.7-0.6,2.6-0.9C-52.6,3-46.3-0.7-41.3-5.5c11-10.4,17.2-28.3,21.5-45.6v6.5c0,0.8,0,1.6,0,2.399
					C-19.8-40.8-19.8-39.3-19.8-38z"/>
				<path d="M-147.6-10.1c-8.7-1.301-17.1-1.801-24.9-1.4c-8.4,0.5-16.8,2-24.9,4.5c-7.5,2.3-15.3,5.7-23,10
					c-0.8,0.5-1.5,0.9-2.3,1.4c-2.7,1.699-5.5,3.399-8.1,5.3l-3.8,2.7l-6.1,4.8c-1,0.8-2,1.6-3,2.5c-0.4,0.399-0.9,0.8-1.3,1.1
					l-2.4,2.101L-251,18.8l2.5-2.2c0.4-0.399,0.9-0.699,1.3-1.1c1.1-0.9,2.1-1.9,3.3-2.8l6-4.7l0.1-0.1l3.8-2.7
					c2.7-2,5.6-3.8,8.5-5.5c0.8-0.5,1.6-0.9,2.3-1.4c0,0,0.1,0,0.1-0.1c8-4.5,16.1-8.101,24.1-10.5c8.5-2.7,17.3-4.2,26.3-4.7
					c8.1-0.4,16.9,0,26,1.4c8.1,1.199,15.8,3,23.2,4.899c-0.5,1.8-1,3.5-1.4,5.3C-132.2-7.2-139.8-8.9-147.6-10.1z"/>
				<path d="M-28-46.1c-0.1,0.5-0.2,0.899-0.4,1.399c-0.3,1.2-0.6,2.5-1,3.7l-0.7,2.5v0.1l-0.8,2.4c-0.4,1.2-0.8,2.3-1.2,3.4
					c-0.2,0.5-0.4,1-0.6,1.6c-0.2,0.5-0.4,1-0.6,1.5c-0.1,0.3-0.2,0.6-0.4,0.8c-0.4,0.9-0.8,1.7-1.1,2.4c-3,6.3-6.8,11.7-11.2,15.8
					c-4.4,4.2-9.8,7.4-16.3,9.8c-0.8,0.3-1.6,0.601-2.3,0.8h-0.1C-65.6,0.4-66.5,0.7-67.2,0.9L-68.4,1.3c-0.1,0-0.1,0-0.2,0L-71.8,2
					c-0.6,0.1-1.2,0.2-1.7,0.3C-73.7,2.3-74,2.4-74.2,2.4h-0.1c-0.2,0-0.5,0.1-0.7,0.1c-0.5,0.1-1.1,0.2-1.7,0.2l-2.7,0.2
					c-0.3,0-0.6,0-1,0h-1.2c-1.4,0-2.9,0-4.4-0.101c0.5-1.899,1-3.7,1.6-5.399c1,0,1.9,0.1,2.9,0.1h1.1c0.2,0,0.4,0,0.5,0
					c0.2,0,0.3,0,0.5,0l2.4-0.1c0.3,0,0.7-0.101,1.1-0.101c0.3,0,0.6-0.1,0.9-0.1c0.3,0,0.6-0.101,0.9-0.101
					c0.4,0,0.8-0.1,1.1-0.199l3.2-0.7l1.1-0.3c0.6-0.2,1.4-0.4,2.3-0.7h0.1c0.7-0.2,1.4-0.5,2.1-0.7c5.9-2.2,10.6-5,14.5-8.7
					c3.9-3.7,7.2-8.399,10-14.3c0.3-0.6,0.6-1.2,0.9-2c0.1-0.3,0.3-0.6,0.4-0.9c0.2-0.399,0.4-0.899,0.5-1.3
					c0.2-0.5,0.4-1.1,0.6-1.6c0.4-1,0.8-2,1.1-3.101l0.8-2.399l0.7-2.5c0.3-1.101,0.6-2.3,0.9-3.5c0.1-0.5,0.2-1,0.4-1.4
					c1.5-6.3,2.7-13.1,3.7-20.899C-28.2-80.9-27.4-94.9-27.4-112.2v-7v-50h5.5v50v7c0,17.5-0.8,31.7-2.3,44.8
					C-25.2-59.6-26.4-52.6-28-46.1z"/>
			</g>
			<g>
				<path d="M-9.7-26.7v0.101l-0.4,7.1c-0.5,6-1.2,12.3-2.5,18.6L-13,1.4c-0.1,0.5-0.2,1-0.3,1.5l-0.2,0.8c-0.1,0.5-0.3,1.1-0.4,1.6
					c-0.2,1-0.4,1.9-0.7,2.9l-1.2,4.399c-0.3,1-0.6,2-0.9,3c-0.2,0.5-0.3,1-0.5,1.601c-2.1,6.2-4.3,12-6.9,17.5
					c-2.1,4.5-4.3,8.899-6.7,13.3c-1.5-1.5-2.8-2.9-4-4.2c2-3.8,3.9-7.6,5.6-11.399c2.5-5.4,4.7-10.9,6.6-16.9
					c0.2-0.6,0.3-1.1,0.5-1.6c0.3-0.9,0.6-1.801,0.8-2.7l1.2-4.4c0.2-0.899,0.4-1.8,0.7-2.7C-19.3,3.5-19.1,3-19,2.4l0.2-0.801
					c0.1-0.399,0.2-0.899,0.3-1.3l0.4-2.3c1.2-6.1,1.9-12.3,2.4-18l0.4-6.9l0.1-7c0-1,0-2,0-3.1c0-0.6,0-1.2,0-1.8v-3.7v-127h5.5
					v127v3.7c0,0.6,0,1.2,0,1.8c0,1.1,0,2.2,0,3.2V-26.7z"/>
				<path d="M-0.4,1.4l-0.5,2.5C-1,4.5-1.1,5-1.3,5.6l-0.2,0.9C-1.6,7-1.7,7.6-1.9,8.1C-2.1,9.2-2.4,10.2-2.7,11.4L-4,16.2
					c-0.3,1.1-0.6,2.2-1,3.2c-0.2,0.5-0.4,1.1-0.5,1.699C-7.7,27.7-10.2,34-12.9,39.9c-2.6,5.6-5.5,11.199-8.4,16.6
					c-1.1-0.9-2.1-1.8-3.1-2.7c-0.4-0.3-0.8-0.7-1.1-1c2.7-5,5.4-10.1,7.7-15.3c2.7-5.7,5.1-11.9,7.1-18.2c0.2-0.6,0.4-1.2,0.6-1.7
					c0.3-1,0.6-2,0.9-3l1.3-4.8c0.3-1,0.5-2,0.7-3.1C-7.1,6.1-6.9,5.5-6.8,5l0.2-0.9c0.1-0.5,0.2-1,0.3-1.5l0.5-2.5
					C-4.5-6.3-3.7-13.2-3.2-19c0.4-6.1,0.6-12.5,0.6-19.7v-3.7v-127h5.5v127v3.7c0,7.3-0.2,13.9-0.6,20.2C1.7-12.6,1-5.5-0.4,1.4z"
					/>
				<path d="M15.2-33.7l-0.1,7.9v0.1l-0.5,8C14-11.3,13.3-3.8,11.7,3.7l-0.5,2.7C11.1,7,10.9,7.6,10.8,8.2L10.6,9.1
					c-0.1,0.601-0.3,1.101-0.4,1.7C9.9,12,9.7,13.2,9.3,14.4L7.9,19.6c-0.3,1.2-0.7,2.4-1.1,3.5C6.6,23.7,6.4,24.3,6.2,24.9
					c-2.3,7-5,13.8-7.9,20.199C-4.8,51.8-8.1,58.2-11.6,64.4c-0.6-0.5-1.2-0.9-1.7-1.4c-0.9-0.7-1.8-1.4-2.6-2.1
					C-12.7,55-9.5,49-6.6,42.7C-3.8,36.6-1.2,30,1.1,23.2C1.3,22.6,1.5,22,1.7,21.4c0.4-1.101,0.7-2.2,1-3.2L4.1,13.1
					C4.4,12,4.7,10.8,4.9,9.7C5,9.1,5.1,8.5,5.2,7.9L5.5,7c0.1-0.6,0.3-1.1,0.4-1.6l0.5-2.7C7.8-4.6,8.6-11.9,9.1-18l0.5-7.9
					L9.8-33.8c0-1.101,0-2.2,0-3.2c0-0.6,0-1.2,0-1.8v-3.7v-127h5.5v127v3.7c0,0.6,0,1.2,0,1.8C15.3-35.9,15.3-34.8,15.2-33.7z"/>
			</g>
			<g>
				<path d="M70.3,93.7c0.9-3.8,2-7.5,3.2-11.2c1.7,0.8,3.4,1.6,5,2.4c-1,3.399-2,6.8-2.8,10.1c-1.6,6.4-2.5,12.3-3,18
					c-0.9,11.5-0.1,23.9,2.6,36.9c0.4,2.3,1,4.6,1.5,6.8l-5.4,1.3c-0.5-2.2-1.1-4.6-1.5-7c-2.7-13.5-3.6-26.5-2.6-38.4
					C67.7,106.5,68.7,100.3,70.3,93.7z"/>
				<path d="M58.3,90.7c1.1-4.601,2.5-9.101,3.9-13.5c1.2,0.5,2.3,1.1,3.5,1.6l0.2,0.101c0.5,0.199,0.9,0.399,1.4,0.6
					c-1.3,4.1-2.5,8.3-3.5,12.5c-1.7,7-2.8,13.5-3.3,19.9c-1,12.6-0.1,26.199,2.7,40.399c0.5,2.8,1.2,5.601,1.8,8.3l0.6,2.301
					l-5.4,1.3l-0.5-2.3c-0.7-2.801-1.3-5.601-1.9-8.5c-3-14.7-3.9-28.7-2.8-41.9C55.4,104.8,56.5,98,58.3,90.7z"/>
				<path d="M51.8-12c1.6,1.7,3.2,3.4,4.8,5.1c2.5,2.7,4.8,5.4,6.9,8.101c2.4,3.2,4.3,6.2,5.8,9c3.3,6.1,5.5,13,6.5,20.5
					c0.4,2.899,0.6,6,0.5,9.1c-1.9-0.899-3.8-1.7-5.5-2.6c-0.1-2-0.2-3.9-0.5-5.8c-1-6.801-2.9-13.101-5.9-18.7
					C63,10.1,61.2,7.4,59,4.4c-2-2.5-4.2-5.101-6.6-7.7C50.8-5,49.2-6.7,47.6-8.4c-3.1-3.3-6.4-6.6-9.3-10.199
					C29.3-29.4,23.3-41,19.9-52.2V-68.1C24.9-49.8,31.4-35.2,42.5-22.2C45.6-18.5,48.7-15.2,51.8-12z"/>
				<path d="M46.3,87.8c1.3-5.5,2.9-10.8,4.6-15.899c1.7,0.8,3.3,1.6,5,2.399c-1.5,4.8-3,9.7-4.2,14.8C49.9,96.7,48.6,104,48.1,111
					c-1.1,13.8-0.2,28.5,2.9,43.8c0.5,2.7,1.1,5.4,1.8,8.101l-5.3,1.3c-0.7-2.8-1.3-5.5-1.8-8.3c-3.2-15.801-4.2-31-3-45.301
					C43.1,103.3,44.4,95.6,46.3,87.8z"/>
				<path d="M47.8,1.6C50.1,4,52.1,6.3,54,8.8c2,2.7,3.5,5,4.8,7.4c1.2,2.399,2.4,5,3.2,7.8c0.8,2.3,1.4,5,1.9,8.5
					c0.1,0.5,0.1,0.9,0.2,1.4c-2.1-1-4.1-2.101-6-3.101c-0.4-2-0.8-3.6-1.3-5.1V25.6C56.1,23.2,55,20.8,54,18.8
					c-1.1-2-2.5-4.1-4.3-6.5C47.9,10,46,7.8,43.9,5.5c-1.5-1.6-3-3.2-4.6-4.8C28.7-10.4,22.3-19.6,19.9-26c0.1-2.4,0.1-8,0.2-10.8
					c5.3,12.5,10,19.8,23.1,33.5C44.8-1.6,46.4,0,47.8,1.6z"/>
				<path d="M88.8,42.1c-0.1,1.101-0.1,2.301-0.2,3.4c-1.8-0.8-3.6-1.7-5.3-2.5c0-0.4,0.1-0.8,0.1-1.1c0.1-4.101-0.1-8.2-0.6-12
					c-0.7-4.5-1.5-8.2-2.6-11.7c-1-3.4-2.5-7-4.6-11.101c-1.7-3.199-3.8-6.5-6.5-10c-2.2-2.8-4.7-5.699-7.3-8.5
					c-1.7-1.8-3.4-3.6-5-5.3C53.7-20,50.7-23.1,48-26.3c-4.5-5.3-8.1-10.3-10.8-15.3c-2.9-5.2-5.4-11-7.5-17.2
					c-1.8-5.4-3.2-11.5-4.5-18.7c-2-12-3-25-3-39.5v-2.3v-50h5.5v50v2.3c0,14.2,0.9,26.9,2.9,38.6c1.2,7,2.7,12.801,4.3,18
					c1.9,5.9,4.3,11.301,7,16.2c2.6,4.7,5.9,9.4,10.2,14.4c2.6,3.1,5.5,6.1,8.6,9.3c1.6,1.7,3.3,3.5,5.1,5.3c2.8,3,5.3,6,7.6,8.9
					c2.8,3.8,5.1,7.3,7,10.8c2.3,4.5,4,8.4,5,12.1c1.2,3.7,2.1,7.7,2.8,12.601C88.7,33.2,88.9,37.6,88.8,42.1z"/>
			</g>
			<g>
				<path d="M87-35.2c1.4,0.2,2.9,0.3,4.2,0.4c0.7,0,1.3,0.1,2,0.1c1.3,0.101,2.5,0.2,3.7,0.2l2.9,0.1c1,0,1.8,0,2.8,0
					c0.6,0,1.2,0,1.8-0.1c1.3,0,2.7-0.1,4-0.2c7.1-0.5,14.7-1.7,22.5-3.8c6.8-1.8,13.6-4.2,21-7.4c11.8-5,22.8-11,33.4-16.8
					c1.6-0.899,3.2-1.7,4.8-2.6c12.3-6.7,24.4-13,36.5-17.4c13-4.8,25.6-6.899,37.5-6.399c0.6,0,1.2,0.1,1.8,0.1
					c1,0.1,2,0.1,3.1,0.2l3,0.399l-0.7,5.5l-2.9-0.399c-0.9-0.101-1.8-0.2-2.8-0.2c-0.6,0-1.3-0.1-1.8-0.1
					c-11-0.5-22.9,1.6-35.2,6.1C216.8-73.2,205-67,192.8-60.4c-1.6,0.9-3.2,1.7-4.8,2.601c-10.8,5.8-21.9,11.899-33.9,17
					c-7.6,3.3-14.8,5.8-21.8,7.7c-8.1,2.199-16.1,3.5-23.6,4c-1.4,0.1-2.8,0.1-4.2,0.199c-0.6,0-1.2,0-1.8,0.101c-1.1,0-2,0-3.1,0
					L96.7-28.9c-1.3,0-2.7-0.1-4-0.199c-0.6,0-1.3-0.101-2-0.101c-1.5-0.1-2.9-0.3-4.4-0.399l-1.5-0.2C67.9-32,55.9-37.6,48.1-43.1
					l0,0l-0.6-1c-0.8-1.301-1.5-2.5-2.1-3.7l-0.2-0.3c-0.6-1-1.1-2.101-1.7-3.301c-0.3-0.5-0.5-1.1-0.8-1.6
					c-0.2-0.4-0.3-0.8-0.5-1.2c10.1,9.101,23.2,16.4,43.2,19H87z"/>
				<path d="M87.2-47.6c6.7,0.8,13.5,1.1,20.4,0.699c12.3-0.8,25.2-4.199,39.5-10.3c11.2-4.8,22.1-10.7,32.7-16.5l4.4-2.399
					c13.2-7.2,25.2-13.5,38.2-18.2c7.1-2.601,14-4.5,20.6-5.601c7.2-1.3,14.4-1.8,21.5-1.5c0.6,0,1.3,0.101,1.9,0.101
					c1.2,0.1,2.4,0.1,3.7,0.3l5.5,0.7l-0.7,5.5l-5.4-0.7c-1.1-0.1-2.2-0.2-3.4-0.3c-0.7,0-1.3-0.101-1.9-0.101
					c-6.7-0.3-13.5,0.2-20.3,1.4c-6.3,1.1-12.9,2.9-19.7,5.4c-12.6,4.6-24.4,10.8-37.4,17.899l-4.4,2.4
					C171.7-63,160.7-56.9,149.2-52.1C134.3-45.7,120.8-42.2,107.9-41.4c-7.2,0.4-14.4,0.2-21.4-0.699C62.4-45.3,47.7-55.2,37.6-68.5
					c-0.9-3.6-1.7-7.3-2.4-11.3c-0.1-0.7-0.2-1.4-0.3-2.101V-82C44.7-64.1,60.9-51.1,87.2-47.6z"/>
				<path d="M270.7-107.9c-1.3-0.1-2.7-0.199-4.1-0.3c-0.7,0-1.4-0.1-2-0.1c-7.6-0.3-15.3,0.2-23,1.6c-7,1.2-14.3,3.2-21.8,6
					c-14.4,5.3-27.5,12.4-39.1,18.601l-4,2.199C165.5-73.8,155-68.1,144.2-63.4c-13.6,5.801-25.7,9-37.2,9.7
					c-0.9,0.101-1.9,0.101-2.8,0.101c-0.6,0-1.2,0-1.7,0.1c-0.9,0-1.8,0-2.5,0h-2.3c-1,0-2.1-0.1-3.1-0.2c-0.6,0-1.1-0.1-1.8-0.1
					c-1-0.101-2-0.2-3-0.3c-0.5-0.101-1.1-0.101-1.7-0.2c-6.4-0.9-12.4-2.4-18-4.5C47.2-68,34.6-87.4,34.6-111v-8.3v-50h5.5v50v8.3
					c-0.1,21,10.4,38.3,32,47c5.1,2,10.7,3.4,16.6,4.2c0.6,0.1,1.1,0.1,1.7,0.2c1,0.1,1.9,0.199,2.8,0.3c0.6,0,1.2,0.1,1.8,0.1
					c1,0.101,1.9,0.101,2.8,0.101h2.4c0.7,0,1.4,0,2.1,0c0.6,0,1.2,0,1.9-0.101c0.9,0,1.8,0,2.6-0.1c10.9-0.7,22.4-3.8,35.4-9.3
					c10.6-4.5,21-10.2,32.1-16.2l4-2.2c11.7-6.4,25-13.5,39.8-18.9c7.8-2.8,15.4-4.899,22.7-6.199c8.1-1.4,16.2-2,24.2-1.7
					c0.7,0,1.3,0.1,2,0.1c1.4,0.101,2.9,0.2,4.4,0.3l3.8,0.5l-0.7,5.5L270.7-107.9z"/>
			</g>
		</g>
	</g>
</symbol>
<symbol  id="_x7E__Wordmark_Black" viewBox="-124.05 -62.05 248.1 124.101">
	<g>
		<path d="M113.95-55.35h0.2v-5.9h9.9v3.7h-5.5v44.8h-10.2v-3.6h5.5v-6c0-1.7,0-8.4,0.2-11.7h-0.2c-2.1,4.4-6.1,6.601-11.2,6.601
			c-8.2,0-14.8-6.801-14.8-17.2c0-10.601,6.4-17.3,14.6-17.3C107.55-61.949,111.85-59.75,113.95-55.35 M113.95-45.05
			c0-8.2-4.7-12.899-10.6-12.899s-10.6,4.899-10.6,13.3c0,8.2,4.7,13.3,10.6,13.3s10.6-4.9,10.6-13.3V-45.05z M69.95-57.449v-3.7
			h15.1v3.7h-5.3v16.5c0,10-5.3,13.5-11.8,13.5c-4.7,0-8.7-2-10.7-6.101h-0.2v5.4h-9.7v-3.7h5.3v-25.6h-5.3v-3.7h15.1v3.7h-5.2v13.5
			c0,8,4.3,12.6,9.8,12.6c4.9,0,8.2-2.7,8.2-10.2v-15.899H69.95z M26.35-27.449c-7.8,0-12.7-4.601-12.9-11.601h4.4
			c0.2,5.101,3.4,7.8,8.5,7.8c5,0,7.7-2.8,7.8-7.8c0-1.7-1.1-2.2-4.4-2.8l-7.1-1.3c-7.3-1.2-10.5-4.4-10.5-9.8
			c0-5.4,4-9.101,10.8-9.101c5.3,0,9.4,2.2,11.3,6.101h0.3v-5.301h9.4v3.7h-5.1v18C38.85-31.85,34.45-27.449,26.35-27.449
			 M34.25-43.449v-3.601c0-7.7-4.9-11-10.4-11c-4.7,0-7.1,2.3-7.1,5.7c0,3.3,2,5.4,6.7,6.1l6.9,1.2
			C32.149-44.85,33.45-44.35,34.25-43.449 M4.05-12.649h-10.1v-3.7h5.5v-41.1h-5.5v-3.7h15.6v3.7h-5.5V-12.649z M-8.25-57.449h-4.6
			l-10.8,13.399l11,12.2h4.1v3.7h-14.6v-3.601h5.1l-11-12.399v-0.101l13.5-16.899h7.4v3.7H-8.25z M-31.25-12.649h-9.9v-3.7h5.3
			v-41.1h-5.3v-3.7h15.1v3.7h-5.2V-12.649z M-61.851-27.449c-7.8,0-12.7-4.601-12.9-11.601h4.4c0.2,5.101,3.4,7.8,8.5,7.8
			c5,0,7.7-2.8,7.8-7.8c0-1.7-1.1-2.2-4.4-2.8l-7.1-1.3c-7.3-1.2-10.5-4.4-10.5-9.8c0-5.4,4-9.101,10.8-9.101
			c5.3,0,9.4,2.2,11.3,6.101h0.3v-5.301h9.4v3.7h-5.1v18C-49.351-31.85-53.75-27.449-61.851-27.449 M-53.95-43.449v-3.601
			c0-7.7-4.9-11-10.4-11c-4.7,0-7.1,2.3-7.1,5.7c0,3.3,2,5.4,6.7,6.1l6.9,1.2C-56.05-44.85-54.65-44.35-53.95-43.449
			 M-102.05-18.149c10.2,0,17-8.2,17-19.8c0-11.601-6.9-19.801-17-19.801s-17,8.2-17,19.801
			C-119.05-26.35-112.15-18.149-102.05-18.149 M-102.05-61.949c13.1,0,22,10,22,24s-8.9,24-22,24s-22-10-22-24
			C-124.05-52.05-115.15-61.949-102.05-61.949"/>
		<path d="M40.45,17.25v-3.699h16.1v3.699h-6.1v25.601h8.4v3.7h-8.4v5.6c0,4.1,1.4,6,4.9,6h3.6v3.9h-3.6c-6.2,0-9.5-3-9.5-9.7v-5.8
			h-5.9v-3.7h5.9V17.25H40.45z M10.149,30.051c0,8,4.5,13.3,10.9,13.3c6.4,0,10.9-5.2,10.9-13.3c0-8.101-4.5-13.301-10.9-13.301
			C14.649,16.75,10.149,21.95,10.149,30.051 M5.35,30.051c0-10.5,6.3-17.2,15.7-17.2c9.3,0,15.7,6.8,15.7,17.2
			c0,10.5-6.3,17.199-15.7,17.199C11.75,47.25,5.35,40.45,5.35,30.051 M-11.65,42.851h3.9v3.7h-13.7v-3.7h5.3l-8.5-23.601h-0.1
			l-9.3,23.5h5.4v3.7h-14.3v-3.7h3.9l12.1-29.3l-4-10.2h-5.9v-3.6h8.8L-11.65,42.851z M-59.15,55.45v-9h-6.3v-3.7h6.3V23.551
			c0-6.7,3.6-10,10.5-10h3.9v3.899h-3.9c-4.2,0-5.9,2-5.9,6.3v19.101h9.4v3.7h-9.4v9h-4.6V55.45z M-71.95,46.45h-10v-3.7h5.5v-25.5
			h-5.5v-3.699h15.6v3.699h-5.5v29.2H-71.95z M-76.95,53.851h5.3v5.899h-5.3V53.851z M-86.95,20.95c-4-2.399-9-4-13.6-4
			c-11.2,0-18.5,8.2-18.5,19.7s7.1,19.8,18.1,19.8c3.6,0,7.1-0.8,10.3-2.2v-7.899h4.4V56.75c-4.2,2.801-9.5,4-14.6,4
			c-13.9,0-23.1-10-23.1-24s9.4-24,23.5-24c4.8,0,9.9,1.101,13.8,3.801v4.399H-86.95z"/>
	</g>
</symbol>
<g>
	<g>
		
			<use xlink:href="#_x7E__Tree_Black"  width="556.2" height="339" id="XMLID_153_" x="-278.1" y="-169.5" transform="matrix(0.3753 0 0 -0.3753 228.4434 967.2656)" overflow="visible"/>
	</g>
	<polygon fill="none" points="0,1150.3 700.3,1150.3 700.3,792 0,792 	"/>
	<polygon fill="none" points="332.9,1001 362.7,1001 362.7,1030.8 332.9,1030.8 	"/>
	<polygon fill="none" points="362.7,1001 392.5,1001 392.5,1030.8 362.7,1030.8 	"/>
	<polygon fill="none" points="670.5,1001 700.3,1001 700.3,1030.8 670.5,1030.8 	"/>
	<polygon fill="none" points="640.6,1001 670.5,1001 670.5,1030.8 640.6,1030.8 	"/>
	<polygon fill="none" points="64.4,1001 94.2,1001 94.2,1030.8 64.4,1030.8 	"/>
	<polygon fill="none" points="94.2,1001 124,1001 124,1030.8 94.2,1030.8 	"/>
	<polygon fill="none" points="0,1001 29.8,1001 29.8,1030.8 0,1030.8 	"/>
	<polygon fill="none" points="29.8,1001 59.7,1001 59.7,1030.8 29.8,1030.8 	"/>
	
		<use xlink:href="#_x7E__Wordmark_Black"  width="248.1" height="124.101" id="XMLID_152_" x="-124.05" y="-62.05" transform="matrix(0.9992 0 0 -0.9992 516.6016 969.6719)" overflow="visible"/>
	
		<use xlink:href="#_x7E__Green_Bar"  width="4.6" height="238.801" id="XMLID_102_" x="-2.3" y="-119.4" transform="matrix(1 0 0 -1 62.0649 911.4209)" overflow="visible"/>
</g>
<use xlink:href="#_x7E__Lock-up_Black_Top"  width="700.3" height="358.3" id="XMLID_4_" x="-350.15" y="-179.149" transform="matrix(1 0 0 -1 350.1504 971.1494)" overflow="visible"/>
</svg>
