<?xml version="1.0" encoding="UTF-8" standalone="no"?>
<svg width="349px" height="83px" viewBox="0 0 349 83" version="1.1" xmlns="http://www.w3.org/2000/svg" xmlns:xlink="http://www.w3.org/1999/xlink" xmlns:sketch="http://www.bohemiancoding.com/sketch/ns">
    <!-- Generator: Sketch 3.5.2 (25235) - http://www.bohemiancoding.com/sketch -->
    <title>coo-logo-spanish</title>
    <desc>Created with Sketch.</desc>
    <defs></defs>
    <g id="Page-1" stroke="none" stroke-width="1" fill="none" fill-rule="evenodd" sketch:type="MSPage">
        <g id="coo-logo-spanish" sketch:type="MSLayerGroup" fill="#000000">
            <g id="_Lock-Up_Black_Bottom_Spanish_2" sketch:type="MSShapeGroup">
                <g id="_Tree_Black_2-3" transform="translate(0.690000, 0.900000)">
                    <g id="_Tree_Black_2">
                        <path d="M36.3672,26.4192 L36.7872,26.5512 L36.8112,26.5512 C36.8832,26.108 36.9568,25.6696 37.032,25.236 L36.7704,25.152 L36.4248,25.044 C36.2688,24.996 36.1152,24.948 35.9616,24.8976 C35.808,24.8472 35.6232,24.7632 35.4528,24.6984 C35.1004344,24.5714091 34.7551379,24.4255994 34.4184,24.2616 L34.3968,24.2616 L33.9888,24.072 C33.8734422,24.0220788 33.7612342,23.9651733 33.6528,23.9016 L32.8992,23.4864 C32.76,23.4072 32.6232,23.3184 32.4768,23.2224 L32.196,23.04 L32.052,22.9488 L31.8552,22.8216 L31.1544,22.32 C31.0505926,22.2458878 30.9512219,22.1657502 30.8568,22.08 L30.2088,21.5352 L29.9688,21.2952 C29.6376,20.9832 29.3256,20.6904 29.0328,20.3568 C28.2695284,19.5396219 27.5901293,18.6479608 27.0048,17.6952 L26.9904,17.6736 C26.8752,17.4984 26.7696,17.3088 26.6568,17.1072 C26.5872,16.98 26.5152,16.8528 26.4408,16.728 C26.34,16.5384 26.2464,16.3464 26.1504,16.1544 L26.1384,16.128 L24.9528,16.7088 L24.9648,16.7328 C25.068,16.944 25.1712,17.1528 25.2816,17.3592 L25.296,17.3832 C25.3656,17.5008 25.4328,17.6232 25.5,17.7432 C25.6152,17.952 25.74,18.1704 25.8768,18.384 C26.5001756,19.403877 27.2237599,20.3590083 28.0368,21.2352 C28.3608,21.6048 28.7112,21.936 29.052,22.2552 L29.3112,22.4952 L29.3424,22.524 L29.9904,23.0688 C30.1147437,23.178686 30.2453636,23.2812586 30.3816,23.376 L31.0776,23.8896 L31.0992,23.904 C31.1808,23.9592 31.2624,24.012 31.3392,24.0648 L31.4808,24.156 L31.7472,24.3264 C31.9032,24.4272 32.064,24.5328 32.244,24.636 L32.988,25.044 C33.1321173,25.128128 33.2811892,25.2034655 33.4344,25.2696 L33.8184,25.4472 C34.1943835,25.6276302 34.5797319,25.7878583 34.9728,25.9272 C35.1408,25.992 35.3064,26.0544 35.472,26.1216 L35.52,26.16 C35.6904,26.2176 35.8608,26.2704 36.0336,26.3232 L36.3672,26.4192 Z" id="Shape"></path>
                        <path d="M36.0288,29.424 L36.3744,29.508 C36.3912,29.3736 36.408,29.2368 36.4248,29.1 C36.4656,28.7952 36.5112,28.4952 36.5544,28.1928 L36.3624,28.1448 L35.9016,28.0008 L35.556,27.8928 C35.3592,27.8304 35.16,27.7704 34.9656,27.7032 L34.4352,27.4968 C33.9957191,27.3375216 33.5647465,27.15568 33.144,26.952 L32.664,26.7336 C32.5260407,26.672876 32.3914464,26.6047777 32.2608,26.5296 L31.3824,26.0496 C31.2096,25.9512 31.0392,25.8408 30.8592,25.7232 L30.5568,25.5288 L30.4008,25.428 L30.1608,25.2744 L29.3376,24.6696 C29.2136624,24.5821958 29.0943046,24.4884719 28.98,24.3888 L28.2312,23.76 L28.0152,23.556 C27.6,23.1648 27.2064,22.7976 26.8392,22.3824 C25.9436868,21.4193541 25.145417,20.3702684 24.456,19.2504 C24.3144,19.032 24.1848,18.8016 24.048,18.5544 C23.9712,18.4176 23.8968,18.2808 23.808,18.1464 C23.6808,17.9064 23.568,17.6664 23.4408,17.4264 C23.3712,17.2848 23.3016,17.1408 23.2296,16.9992 L22.0512,17.5944 C22.1208,17.7312 22.188,17.8704 22.2552,18.0096 C22.3848,18.2712 22.512,18.5328 22.6512,18.7896 L22.6512,18.8112 C22.728,18.9408 22.8024,19.0752 22.8744,19.2072 C23.04,19.44 23.184,19.704 23.34,19.9416 C24.0691829,21.1264307 24.9132547,22.2365861 25.86,23.256 C26.2584,23.7072 26.6928,24.1152 27.1128,24.5088 L27.3528,24.7248 L27.3816,24.7512 L28.1448,25.392 C28.2867479,25.5155209 28.4349429,25.6316737 28.5888,25.74 L29.424,26.3544 C29.52,26.4192 29.6184,26.484 29.7168,26.5464 L29.8728,26.6448 L30.1656,26.832 C30.3528,26.9544 30.5472,27.072 30.7608,27.2016 L31.6344,27.6816 C31.797717,27.7760957 31.9659558,27.8618174 32.1384,27.9384 L32.58,28.1448 C33.0351726,28.3654115 33.5013881,28.5624717 33.9768,28.7352 L34.5048,28.9392 L34.5384,28.9512 C34.7496,29.0232 34.9632,29.088 35.1768,29.1552 L35.5176,29.2608 L35.9976,29.412 L36.0288,29.424 Z" id="Shape"></path>
                        <path d="M36.192,31.1616 L35.568,31.008 L34.7064,30.7392 C34.4664,30.6624 34.2264,30.588 33.9864,30.4992 L33.4512,30.2928 C32.916,30.0888 32.4096,29.8944 31.908,29.6448 L31.3776,29.4048 C31.2024,29.3256 31.0512,29.2488 30.8976,29.1648 L29.8944,28.6104 C29.6856,28.4904 29.4816,28.3704 29.2656,28.2192 L28.9464,28.0152 L28.7784,27.9072 C28.6752,27.8424 28.5744,27.7776 28.4904,27.72 L27.552,27.0312 C27.3864,26.9112 27.2568,26.8104 27.1344,26.7048 L26.2608,25.9704 L26.1024,25.824 C25.5912,25.344 25.1088,24.8952 24.6624,24.384 C23.6377276,23.2835099 22.7237315,22.0849452 21.9336,20.8056 C21.7632,20.5416 21.6096,20.2656 21.4536,19.9752 C21.372,19.8288 21.2904,19.6824 21.2136,19.5552 C21.0696,19.284 20.9328,19.0128 20.7864,18.7104 L19.6008,19.2912 C19.7544,19.6056 19.896,19.8888 20.0616,20.1984 C20.1432,20.3376 20.22,20.4792 20.3016,20.6184 C20.4672,20.916 20.64,21.2232 20.8248,21.5088 C21.6508226,22.85338 22.6065876,24.1138001 23.6784,25.272 C24.1584,25.8144 24.6864,26.3064 25.1976,26.784 L25.368,26.9424 L25.3944,26.9664 L26.2728,27.7056 C26.4168,27.8328 26.5776,27.9456 26.7696,28.0968 L27.7296,28.7976 C27.84,28.8744 27.9552,28.9464 28.068,29.0208 L28.236,29.1288 L28.5504,29.3304 C28.7712,29.4744 28.9992,29.6208 29.2488,29.7648 L30.252,30.3168 C30.4224,30.4152 30.6096,30.5088 30.816,30.6024 L31.3248,30.8424 C31.8696,31.1136 32.4312,31.3224 32.9712,31.536 L33.5064,31.7424 L33.5376,31.7424 C33.7944,31.8288 34.0536,31.9104 34.3128,31.9824 L35.1936,32.256 L35.2296,32.256 L36.0792,32.4648 C36.1096,32.0504 36.1472,31.616 36.192,31.1616 L36.192,31.1616 Z" id="Shape"></path>
                        <path d="M49.476,15.468 L49.4616,15.4272 C49.3968,15.2424 49.3296,15.06 49.2648,14.8824 L49.0944,14.4024 C48.5784,14.4432 48.0816,14.4792 47.5776,14.484 C46.0813922,14.5420872 44.5830179,14.4617454 43.1016,14.244 C41.6724049,14.036306 40.2687974,13.6799747 38.9136,13.1808 C37.5915223,12.6698955 36.3340922,12.0053344 35.1672,11.2008 L34.4784,10.7208 L34.368,10.6296 L33.6984,10.08 L32.8632,11.1024 L33.5208,11.64 L33.684,11.772 L33.708,11.7888 L34.4136,12.2832 C35.6692343,13.1494883 37.0225631,13.8648192 38.4456,14.4144 C39.8869492,14.945931 41.3798353,15.3255874 42.9,15.5472 C44.1273283,15.7308194 45.3670372,15.8190834 46.608,15.8112 C46.928,15.8112 47.2584,15.8064 47.5992,15.7968 C48.2112,15.7968 48.828,15.7416 49.4256,15.6936 L49.5624,15.6936 C49.536,15.6168 49.5048,15.5424 49.476,15.468 L49.476,15.468 Z" id="Shape"></path>
                        <path d="M50.2176,17.292 L50.1744,17.292 L49.6272,17.3352 C48.984,17.388 48.3216,17.4408 47.664,17.448 C45.9946285,17.5130839 44.3228073,17.4247127 42.6696,17.184 C41.0253499,16.9444549 39.410864,16.532588 37.8528,15.9552 C36.3085569,15.3606057 34.8399765,14.5856335 33.4776,13.6464 L32.6808,13.0848 L32.5416,12.972 L31.44,12.0672 L30.6024,13.0872 L31.7112,13.9968 C31.7712,14.0472 31.8336,14.0976 31.896,14.1456 L31.92,14.16 L32.736,14.736 C34.187152,15.7369325 35.7516245,16.5626711 37.3968,17.196 C39.0409256,17.8065608 40.7446919,18.2425577 42.48,18.4968 C43.8495956,18.7011006 45.2328725,18.7997915 46.6176,18.792 C46.9696,18.792 47.3296,18.7864 47.6976,18.7752 C48.3888,18.7752 49.0752,18.7128 49.74,18.6576 L50.2968,18.6144 L50.328,18.6144 L50.7816,18.5592 C50.5864,18.1384 50.3984,17.716 50.2176,17.292 L50.2176,17.292 Z" id="Shape"></path>
                        <path d="M51.5184,20.1288 L51.0144,20.1888 L50.472,20.2536 L49.9416,20.2968 C49.2216,20.3544 48.5016,20.4144 47.7528,20.424 C45.9077223,20.4947672 44.0600378,20.3967596 42.2328,20.1312 C40.3735926,19.8605258 38.5482355,19.3939295 36.7872,18.7392 C35.0215363,18.059933 33.3426214,17.1737495 31.7856,16.0992 L30.888,15.4656 L30.72,15.3264 L30.0672,14.7912 L29.2296,15.8112 L29.8848,16.3464 C29.9544,16.4016 30.0216,16.4592 30.1104,16.5264 L31.0368,17.1816 C32.6803244,18.3173673 34.4526906,19.2543045 36.3168,19.9728 C38.1647501,20.6600805 40.0802019,21.1500049 42.0312,21.4344 C43.5406783,21.6590908 45.0651084,21.7682079 46.5912,21.7608 C46.972,21.7608 47.3608,21.7552 47.7576,21.744 C48.528,21.744 49.2888,21.672 50.0256,21.612 L50.5656,21.5688 L50.5944,21.5688 L51.1464,21.504 L52.1304,21.384 C51.9264,20.9448 51.7152,20.5296 51.5184,20.1288 L51.5184,20.1288 Z" id="Shape"></path>
                        <path d="M131.784,50.3472 L130.1928,49.98 L129.1824,49.6584 L128.976,49.5936 C128.8824,49.5648 128.7888,49.536 128.6952,49.5024 L127.7136,49.1016 L127.5408,49.032 C127.454438,49.0008456 127.370251,48.9639637 127.2888,48.9216 L127.26,48.9048 L126.3,48.4248 L126.2736,48.4128 C126.158293,48.3562169 126.04685,48.2920773 125.94,48.2208 L125.0064,47.6448 L123.9888,46.8888 L123.048,46.0584 L122.3472,45.3216 L122.3256,45.3 C122.231663,45.2035334 122.144269,45.1009054 122.064,44.9928 L121.7304,44.5752 C121.6848,44.5152 121.6368,44.4576 121.5888,44.4024 C121.538447,44.3455639 121.491943,44.2854303 121.4496,44.2224 L121.4328,44.1984 L121.1424,43.7664 C120.413131,42.6761574 119.847147,41.4851667 119.4624,40.2312 L119.2464,39.4032 L119.0496,39.4656 L117.9888,39.8112 L118.188,40.5744 L118.188,40.6008 C118.613995,41.9832439 119.24068,43.2956427 120.048,44.496 L120.3288,44.9184 C120.400523,45.0353271 120.480739,45.1468271 120.5688,45.252 C120.6024,45.2928 120.636,45.3312 120.6792,45.3888 L121.0176,45.8088 C121.133087,45.9620717 121.258984,46.1072145 121.3944,46.2432 L122.1144,46.992 L122.1552,47.0328 L123.1392,47.9016 L123.1872,47.94 L124.2432,48.7224 L124.2936,48.756 L125.2392,49.3392 C125.392869,49.4410849 125.553232,49.5324922 125.7192,49.6128 L126.6504,50.0928 C126.782768,50.1638042 126.919896,50.2255521 127.0608,50.2776 L127.2072,50.3376 L128.2056,50.7456 L128.2296,50.7456 C128.3472,50.7888 128.4696,50.8272 128.5896,50.8632 L128.7768,50.9208 L129.8184,51.252 L129.8712,51.2664 L131.5104,51.6456 L131.5632,51.6456 L133.2984,51.912 L133.5,50.6064 L131.784,50.3472 Z" id="Shape"></path>
                        <path d="M131.2272,53.2632 L129.4104,52.8432 L128.244,52.4736 L128.0232,52.404 C127.9056,52.368 127.7832,52.3296 127.692,52.296 L126.54,51.816 L126.3504,51.7392 C126.23957,51.6978385 126.131369,51.649749 126.0264,51.5952 L126,51.6 L124.86,51.0216 C124.712197,50.9501339 124.568746,50.8699942 124.4304,50.7816 L123.3408,50.1072 L122.124,49.2 L121.884,49.0008 C119.399933,46.9226408 117.56689,44.1730773 116.604,41.0808 L116.4864,40.6296 L116.4144,40.32 L116.1,40.4256 L115.1592,40.74 L115.2168,40.9632 L115.3368,41.4192 L115.3368,41.448 C116.374645,44.7841434 118.351945,47.7505096 121.032,49.992 L121.272,50.1984 L121.3128,50.232 L122.5728,51.168 L122.6184,51.1992 L123.7272,51.8856 C123.90464,52.0015194 124.088982,52.1065142 124.2792,52.2 L125.388,52.764 C125.537961,52.8430559 125.692654,52.9127883 125.8512,52.9728 L126.0216,53.0424 L127.2072,53.5224 C127.344,53.5728 127.4832,53.616 127.6248,53.6592 L127.8336,53.7264 L129.0336,54.1056 L129.084,54.12 L130.9512,54.552 L130.9992,54.552 L132.42,54.768 L132.6192,53.4624 L131.2272,53.2632 Z" id="Shape"></path>
                        <path d="M130.668,56.1816 L128.6256,55.7016 L127.3032,55.284 L127.0632,55.2096 C126.924,55.1664 126.7848,55.1208 126.6672,55.08 L125.3544,54.5448 L125.148,54.4608 C125.007813,54.407016 124.870793,54.3453168 124.7376,54.276 L123.4392,53.616 C123.259541,53.5254638 123.084889,53.4253188 122.916,53.316 L121.68,52.56 L120.264,51.5088 L119.9952,51.2688 C117.06062,48.8226255 114.89538,45.5805997 113.76,41.9328 L113.6832,41.6424 L113.5824,41.2632 L113.4816,41.2968 L112.32,41.6736 L112.4016,41.9832 L112.4808,42.2832 L112.4808,42.3072 C113.685633,46.199275 115.989178,49.6604261 119.1144,52.2744 L119.3904,52.5144 L119.4264,52.5432 L120.8904,53.6304 L120.9336,53.6592 L122.2056,54.4488 C122.41072,54.5812936 122.623048,54.7022803 122.8416,54.8112 L124.128,55.44 C124.299913,55.5303891 124.477022,55.6105291 124.6584,55.68 L124.848,55.7592 L126.1944,56.3064 C126.3504,56.364 126.5112,56.4144 126.6744,56.4648 L126.9144,56.5368 L128.268,56.964 L128.316,56.976 L130.4112,57.456 L130.4568,57.456 L131.7624,57.6552 L131.9592,56.3496 L130.668,56.1816 Z" id="Shape"></path>
                        <path d="M91.8432,35.8008 C90.8251758,35.573107 89.8268384,35.2649385 88.8576,34.8792 C88.824,35.0712 88.7856,35.2728 88.7304,35.4912 L88.6728,35.7312 C88.6368,35.8824 88.5984,36.0312 88.56,36.1824 C89.5366234,36.5609433 90.5402314,36.8657963 91.5624,37.0944 C92.7979087,37.3526548 94.0525112,37.5091791 95.3136,37.5624 C95.4744,37.1496 95.6328,36.72 95.7936,36.2616 C94.4655521,36.2280955 93.1433046,36.07386 91.8432,35.8008 L91.8432,35.8008 Z" id="Shape"></path>
                        <path d="M125.8824,29.1168 C125.5608,29.16 125.2392,29.2032 124.908,29.256 L124.428,29.34 C124.1112,29.3952 123.7824,29.4528 123.468,29.52 C120.192,30.1944 117.1704,31.2 114.2496,32.16 L113.28,32.496 C110.856,33.3072 108.5424,34.0776 106.236,34.7136 L106.0536,35.3448 L105.8136,36.1944 C108.4128,35.5128 110.9904,34.6536 113.7024,33.7464 L114.6624,33.4224 C117.5424,32.4624 120.528,31.4712 123.7368,30.8088 C124.032,30.744 124.332,30.6936 124.6512,30.6384 L125.1192,30.5568 C125.424,30.5088 125.7336,30.4656 126.0408,30.4248 L125.8824,29.1168 Z" id="Shape"></path>
                        <path d="M126.72,32.0016 L126.264,32.064 C125.976,32.1024 125.688,32.1408 125.3832,32.1888 L124.9296,32.2704 C124.6488,32.3184 124.3584,32.3688 124.0752,32.4312 C120.9744,33.0672 117.9408,34.0776 115.008,35.0544 L114.1128,35.3544 C111.2712,36.3144 108.3312,37.2864 105.384,38.0136 L105.2736,38.04 C105.1488,38.4408 105.0216,38.8416 104.8848,39.24 L104.796,39.5064 C105.096,39.4368 105.3936,39.3696 105.7008,39.2928 C108.6984,38.5536 111.6648,37.5624 114.5328,36.6048 L115.428,36.3072 C118.3248,35.3472 121.32,34.344 124.3512,33.7224 C124.6152,33.6648 124.8792,33.6192 125.1576,33.5712 L125.6112,33.4896 C125.8872,33.4464 126.1632,33.408 126.4392,33.372 L126.9072,33.3096 L126.72,32.0016 Z" id="Shape"></path>
                        <path d="M91.2,38.7 C90.1386572,38.4621108 89.0959312,38.1476888 88.08,37.7592 C87.9336,38.1696 87.768,38.5776 87.5856,38.9832 C88.6739053,39.4003437 89.7912923,39.7372443 90.9288,39.9912 C91.9323359,40.2040557 92.947771,40.3563309 93.9696,40.4472 C94.0128,40.3704 94.056,40.2936 94.0992,40.2072 C94.2672,39.9 94.44,39.5544 94.6224,39.1704 C93.4719338,39.0945095 92.3282785,38.9373171 91.2,38.7 L91.2,38.7 Z" id="Shape"></path>
                        <path d="M126.3696,35.04 C126.204,35.0616 126.0384,35.0856 125.8536,35.1168 L125.424,35.1936 C125.184,35.2368 124.9176,35.28 124.6632,35.3376 C121.7328,35.9352 118.8,36.9144 115.692,37.9512 L114.9504,38.1912 C112.1016,39.1512 109.1544,40.128 106.092,40.884 C105.4104,41.052 104.7528,41.1984 104.1072,41.3328 C104.0064,41.5728 103.9008,41.8464 103.788,42.12 L103.7736,42.1512 C103.6752,42.3792 103.5768,42.5952 103.4808,42.8088 C104.4216,42.6288 105.4008,42.4176 106.4064,42.1656 C109.5264,41.3976 112.4928,40.404 115.368,39.444 L116.1096,39.204 C119.1768,38.1792 122.076,37.212 124.9344,36.6288 C125.1744,36.5784 125.4,36.5376 125.6544,36.4944 L126.0864,36.4176 L126.552,36.3504 L126.3696,35.04 Z" id="Shape"></path>
                        <path d="M90.5736,41.6016 C89.3024707,41.3189262 88.0548301,40.9394188 86.8416,40.4664 C86.624,40.8568 86.3928,41.2384 86.148,41.6112 C87.4929875,42.1482668 88.8790754,42.5760519 90.2928,42.8904 C90.8928,43.0184 91.5016,43.1272 92.1192,43.2168 L92.2536,43.0368 C92.3328,42.9312 92.4216,42.8136 92.5176,42.6864 L92.5392,42.66 C92.664,42.504 92.8152,42.2808 92.9904,42.024 L93.0048,42.0048 C92.1816,41.9064 91.368,41.772 90.5736,41.6016 L90.5736,41.6016 Z" id="Shape"></path>
                        <path d="M110.2872,22.536 L110.5464,22.4664 C111.302332,21.4163281 112.11222,20.4061711 112.9728,19.44 C113.3328,19.0176 113.736,18.5976 114.1224,18.192 L114.2592,18.048 L113.2992,17.136 L113.1624,17.28 C112.7616,17.7 112.3488,18.132 111.9624,18.5736 C110.761525,19.9158968 109.658683,21.3427732 108.6624,22.8432 C109.2192,22.7688 109.7592,22.6656 110.2872,22.536 L110.2872,22.536 Z" id="Shape"></path>
                        <path d="M104.2872,32.5992 L104.2656,32.6736 C104.0784,33.2976 103.8936,33.936 103.7088,34.5936 C103.5,35.3136 103.2864,36.0672 103.056,36.8208 C102.627595,38.2757543 102.121264,39.7066199 101.5392,41.1072 C100.9366,42.5468783 100.214057,43.9333588 99.3792,45.252 C98.9472,45.9336 98.4672,46.6128 97.9392,47.2872 C98.4,47.3976 98.8584,47.5272 99.3168,47.652 C99.732,47.0904 100.1232,46.524 100.4832,45.972 C101.360226,44.5917593 102.119699,43.1402509 102.7536,41.6328 C103.354682,40.1844709 103.877043,38.7047127 104.3184,37.2 C104.5584,36.4368 104.7672,35.6832 104.976,34.9536 C105.1608,34.3104 105.3432,33.6792 105.528,33.0552 L105.6528,32.6424 C105.2016,32.64 104.7456,32.6208 104.2872,32.5992 L104.2872,32.5992 Z" id="Shape"></path>
                        <path d="M106.56,23.0568 L106.596,23.0568 C107.076,22.2624 107.5752,21.5016 108.084,20.796 C108.913574,19.6462516 109.802791,18.5407377 110.748,17.484 C111.144,17.0232 111.576,16.5696 111.996,16.1304 L112.524,15.5736 L111.564,14.6712 L111.0432,15.2184 C110.6112,15.6696 110.1648,16.1376 109.7592,16.6128 C108.786738,17.7001796 107.871886,18.8377372 107.0184,20.0208 C106.316775,20.9986231 105.664752,22.011101 105.0648,23.0544 C105.5664,23.0712 106.08,23.076 106.56,23.0568 L106.56,23.0568 Z" id="Shape"></path>
                        <path d="M101.3208,32.3112 L101.28,32.3112 C101.1376,32.7912 100.996,33.276 100.8552,33.7656 C100.2624,35.8272 99.6552,37.956 98.8032,39.948 C98.2610789,41.2370048 97.6115936,42.478172 96.8616,43.6584 C96.1817678,44.7147806 95.4295669,45.7227939 94.6104,46.6752 C95.1192,46.7408 95.6272,46.8208 96.1344,46.9152 C96.7955552,46.1034814 97.410142,45.2549188 97.9752,44.3736 C98.7651315,43.1316658 99.4491452,41.8254566 100.02,40.4688 C100.8984,38.4048 101.5224,36.2328 102.1248,34.1352 C102.2848,33.5848 102.4448,33.0344 102.6048,32.484 C102.1728,32.4264 101.7432,32.3736 101.3208,32.3112 L101.3208,32.3112 Z" id="Shape"></path>
                        <path d="M102.7392,22.848 C102.9048,22.872 103.0752,22.8912 103.2456,22.9104 C103.97821,21.5832946 104.789247,20.3010222 105.6744,19.0704 C106.562792,17.8387016 107.51447,16.6539101 108.5256,15.5208 C108.9576,15.0168 109.4232,14.5296 109.8768,14.0568 L109.9248,14.0064 L108.9648,13.0944 L108.9168,13.1448 C108.4536,13.6248 107.9736,14.1312 107.5296,14.6496 C106.491293,15.813416 105.513983,17.0302471 104.6016,18.2952 C103.680034,19.5771175 102.836121,20.9131124 102.0744,22.296 C102.0024,22.428 101.9304,22.56 101.8584,22.692 C102.1536,22.752 102.4464,22.8 102.7392,22.848 L102.7392,22.848 Z" id="Shape"></path>
                        <path d="M98.3568,31.7064 C98.2392,32.1096 98.1168,32.508 98.0088,32.9064 C97.404,35.0112 96.8304,36.9864 96.0672,38.7864 C95.589963,39.9257985 95.0166977,41.0225498 94.3536,42.0648 C93.6849513,43.1070748 92.937147,44.096391 92.1168,45.024 L91.8096,45.36 C91.6488,45.5376 91.488,45.7152 91.3296,45.8856 L90.7776,46.44 L91.5432,46.44 L91.8192,46.44 L91.8528,46.44 L92.1672,46.44 L92.5752,46.4544 L92.7936,46.2144 L93.1032,45.876 C93.9719376,44.8928398 94.7646247,43.8450166 95.4744,42.7416 C96.1771371,41.6383093 96.7849204,40.4773388 97.2912,39.2712 C98.0856,37.4112 98.6688,35.3856 99.2856,33.2424 C99.4056,32.8272 99.5256,32.4048 99.6528,31.98 C99.2192,31.9064 98.7872,31.8152 98.3568,31.7064 L98.3568,31.7064 Z" id="Shape"></path>
                        <path d="M119.04,19.044 L118.6968,19.3512 C118.5288,19.5024 118.3632,19.6536 118.1976,19.7904 L117.54,20.3232 L117.3144,20.4864 C114.203508,22.7804534 110.471011,24.0790045 106.608,24.2112 C104.655337,24.2844886 102.701713,24.0939699 100.8,23.6448 C100.1616,23.4936 99.5352,23.3112 98.9184,23.1072 C98.544,23.4384 98.1528,23.7672 97.74,24.0912 C98.641026,24.4277167 99.5619799,24.708251 100.4976,24.9312 C102.222985,25.3357084 103.988645,25.5434331 105.7608,25.5504 C106.0632,25.5504 106.364,25.544 106.6632,25.5312 C110.783017,25.3844774 114.762425,23.9966619 118.08,21.5496 L118.32,21.3816 L118.3488,21.36 L119.0256,20.8128 C119.2128,20.6568 119.3928,20.496 119.5728,20.3328 L119.9016,20.04 L119.04,19.044 Z" id="Shape"></path>
                        <path d="M120.7824,21.4632 L120.7152,21.5232 C120.504,21.7152 120.3024,21.8952 120.1008,22.0632 L119.3448,22.6752 L119.0856,22.8648 C115.497607,25.5239508 111.18649,27.0304563 106.7232,27.1848 C104.500299,27.2688752 102.276221,27.052522 100.1112,26.5416 C98.7648284,26.2223259 97.4474553,25.7912294 96.1728,25.2528 C95.7504,25.548 95.3136,25.8336 94.8672,26.1168 C96.4537816,26.8506163 98.1101073,27.423094 99.8112,27.8256 C101.760769,28.2827896 103.755953,28.517091 105.7584,28.524 C106.0992,28.524 106.4384,28.5168 106.776,28.5024 C111.502491,28.3429127 116.069313,26.7528521 119.8728,23.9424 L120.1392,23.748 L120.1656,23.7288 L120.9432,23.1 C121.1832,22.9104 121.392,22.7112 121.6056,22.5192 L121.6728,22.4592 L120.7824,21.4632 Z" id="Shape"></path>
                        <path d="M122.496,23.9184 C122.3328,24.0624 122.1696,24.2064 122.016,24.3408 L121.1592,25.032 L120.8616,25.2504 C119.853247,26.0074185 118.785828,26.6823805 117.6696,27.2688 C117.1728,27.54 116.6616,27.7752 116.1216,28.0224 L115.86,28.1376 C115.3008,28.3776 114.7704,28.5864 114.216,28.7688 C113.027918,29.1787505 111.810952,29.4996381 110.5752,29.7288 C109.342971,29.9519953 108.096813,30.0899227 106.8456,30.1416 C102.106448,30.325259 97.3999285,29.2846008 93.18,27.12 C92.724,27.3808 92.2632,27.6344 91.7976,27.8808 L91.824,27.8952 C96.1003417,30.2521198 100.904357,31.4865651 105.7872,31.4832 C106.1544,31.4832 106.524,31.4832 106.8936,31.4616 C108.206837,31.4069925 109.514743,31.2618479 110.808,31.0272 C112.106566,30.7850006 113.3853,30.446465 114.6336,30.0144 C115.224,29.8176 115.8,29.5824 116.3568,29.352 L116.484,29.2992 L116.508,29.2992 L116.664,29.2272 C117.2016,28.9872 117.756,28.7256 118.2888,28.4352 C119.463712,27.8189534 120.587313,27.1094794 121.6488,26.3136 L121.9488,26.0928 L121.9728,26.076 L122.8512,25.356 C123.0312,25.2072 123.2064,25.0536 123.3792,24.8976 L122.496,23.9184 Z" id="Shape"></path>
                        <path d="M65.7432,20.0592 C66.7296,21.216 67.6632,22.308 68.508,23.4336 C69.1752,24.3144 69.8016,25.2192 70.3704,26.1216 C70.7064,26.6592 71.0376,27.2376 71.3736,27.8568 C71.7216,27.5904 72.0816,27.3288 72.4488,27.072 C72.1296,26.4864 71.8104,25.9368 71.4888,25.4208 C70.9008,24.4848 70.2504,23.5488 69.5688,22.6392 C68.7,21.4848 67.7568,20.376 66.756,19.2048 C66.192,18.5448 65.6088,17.8608 65.028,17.1528 C64.2072545,16.1651269 63.4413039,15.1331767 62.7336,14.0616 C62.0023324,12.9471535 61.3687739,11.7715773 60.84,10.548 C60.3163404,9.32189636 59.8956871,8.05431695 59.5824,6.7584 C59.2839569,5.49379456 59.0682993,4.21107286 58.9368,2.9184 L58.8984,2.4648 C58.8696,2.1432 58.8408,1.8192 58.8216,1.5048 L58.7784,0.5928 L57.4608,0.6552 L57.504,1.5792 C57.5256,1.9104 57.5544,2.2416 57.5856,2.5752 L57.6264,3.0408 C57.7640113,4.3957206 57.9900938,5.74019017 58.3032,7.0656 C58.6338661,8.4329239 59.0777995,9.7703434 59.6304,11.064 C60.1885966,12.3568823 60.8574854,13.5991043 61.6296,14.7768 C62.3638424,15.8891897 63.1586399,16.9604037 64.0104,17.9856 C64.5888,18.7056 65.1744,19.3944 65.7432,20.0592 L65.7432,20.0592 Z" id="Shape"></path>
                        <path d="M66.2952,16.1064 C66.8472,16.7784 67.4208,17.4504 67.9752,18.0984 C68.9496,19.2408 69.9576,20.4216 70.872,21.636 C71.592,22.596 72.2736,23.5704 72.888,24.5472 C73.208,25.0544 73.5208,25.5904 73.8264,26.1552 C74.1976,25.9232 74.576,25.6976 74.9616,25.4784 C74.6448,24.9048 74.328,24.3624 74.0016,23.8464 C73.3656,22.836 72.6648,21.8232 71.9208,20.8392 C70.9824,19.5936 69.9624,18.3984 68.9736,17.2392 C68.424,16.596 67.8552,15.9288 67.3104,15.2664 C66.5574313,14.3608516 65.8547728,13.4146263 65.2056,12.432 C64.5686284,11.4573511 64.0169807,10.4295358 63.5568,9.36 C63.1002666,8.2882201 62.7334092,7.18042318 62.46,6.048 C62.1930787,4.91287554 61.9998752,3.76167133 61.8816,2.6016 C61.8696,2.4456 61.8552,2.2872 61.8408,2.1216 C61.8168,1.8432 61.7904,1.5648 61.7736,1.3008 L61.7112,0 L60.3936,0.0624 L60.456,1.3944 C60.4752,1.6824 60.5016,1.9704 60.5256,2.256 C60.54,2.4096 60.552,2.5632 60.5664,2.736 C60.6905136,3.95914801 60.8941444,5.17291597 61.176,6.3696 C61.4669684,7.57259893 61.8571027,8.74942389 62.3424,9.888 C62.8346441,11.0253992 63.4240262,12.1182452 64.104,13.1544 C64.7797191,14.1778338 65.5112241,15.1633226 66.2952,16.1064 L66.2952,16.1064 Z" id="Shape"></path>
                        <path d="M65.0712,8.712 C65.8224,10.476 66.9072,12.1776 68.5944,14.232 C69.1104,14.8608 69.6432,15.4848 70.2072,16.152 C71.2128,17.3304 72.2544,18.552 73.2384,19.8552 C74.016,20.8824 74.748,21.9384 75.3984,22.9896 C75.7344,23.5288 76.0664,24.0968 76.3944,24.6936 C76.7832,24.4872 77.1744,24.2848 77.568,24.0864 C77.22,23.4552 76.872,22.86 76.5168,22.2912 C75.8352,21.204 75.0768,20.1168 74.28,19.0608 C73.272,17.724 72.2184,16.4904 71.1984,15.2976 C70.6392,14.6424 70.1088,14.0232 69.6024,13.404 C67.9992,11.4552 66.9624,9.8544 66.2736,8.2104 C65.8836588,7.29373424 65.5698001,6.34653895 65.3352,5.3784 C65.0996014,4.3727971 64.9288498,3.35309715 64.824,2.3256 C64.824,2.16 64.8,1.992 64.8,1.8336 C64.7784,1.5936 64.7568,1.3536 64.7424,1.128 L64.7136,0.5136 L63.396,0.576 L63.42,1.2 C63.4368,1.44 63.4584,1.6968 63.48,1.944 C63.4944,2.0976 63.5064,2.2512 63.5208,2.424 C63.6315053,3.51536369 63.8126835,4.59842442 64.0632,5.6664 C64.3147693,6.70762256 64.6519156,7.72628596 65.0712,8.712 L65.0712,8.712 Z" id="Shape"></path>
                        <path d="M89.1504,4.38 C88.9834405,4.89123698 88.7862941,5.39211713 88.56,5.88 C87.7950954,7.57458668 86.6745384,9.08476029 85.2744,10.308 C85.2536,10.8776 85.2536,11.4376 85.2744,11.988 C87.2256378,10.558224 88.7721143,8.64621665 89.7624,6.4392 C90.0067379,5.90590382 90.2191135,5.35853574 90.3984,4.8 L89.1504,4.38 Z" id="Shape"></path>
                        <path d="M92.16,4.7352 C91.9080791,5.547782 91.6034326,6.34306967 91.248,7.116 L91.236,7.1448 C91.116,7.428 90.9696,7.7016 90.8136,7.992 C90.7464,8.1192 90.6792,8.244 90.6144,8.3712 C90.5496,8.4984 90.4632,8.6112 90.3888,8.7432 C90.2208,9.024 90.0648,9.2904 89.8872,9.5352 L89.8704,9.5616 C89.3565236,10.3249249 88.7732465,11.0391582 88.128,11.6952 L87.6216,12.192 C87.516,12.2904 87.4032,12.384 87.2928,12.4776 L87.0936,12.648 L86.8344,12.8688 C86.7816,12.912 86.724,12.9528 86.6688,12.9936 L85.9992,13.488 L85.368,13.8864 C85.4144,14.3664 85.4744,14.8408 85.548,15.3096 L85.764,15.1944 L85.788,15.18 L86.004,15.0456 L86.724,14.5896 L86.7624,14.5632 L87.4464,14.0568 C87.516,14.0064 87.5856,13.9536 87.672,13.8864 L87.9528,13.6464 L88.14,13.4856 C88.2672,13.3776 88.3944,13.2696 88.5288,13.1448 L89.0592,12.624 C89.7629246,11.9097279 90.3992233,11.1320295 90.96,10.3008 C91.1712,10.0104 91.3488,9.7104 91.5216,9.4176 C91.596,9.2928 91.6704,9.1776 91.7472,9.0432 L91.7736,8.9952 C91.8384,8.8656 91.908,8.7384 91.9752,8.6112 C92.1336,8.3112 92.2992,8.004 92.4408,7.6728 C92.8194524,6.85162939 93.1441416,6.00663583 93.4128,5.1432 L92.16,4.7352 Z" id="Shape"></path>
                        <path d="M94.7808,6.2712 C94.5430723,6.98547369 94.2633858,7.68509064 93.9432,8.3664 L93.9432,8.3904 C93.792,8.7408 93.6096,9.0816 93.4176,9.444 L93.2016,9.84 L92.9616,10.2264 C92.7528,10.5768 92.5584,10.908 92.3328,11.22 L92.3184,11.2416 C91.7049169,12.1491898 91.0091809,12.9983734 90.24,13.7784 L89.6328,14.3736 C89.4936,14.5032 89.3496,14.6136 89.2056,14.748 L89.0016,14.9232 L88.6848,15.192 C88.6152,15.2472 88.5408,15.3024 88.4688,15.3552 L87.6744,15.9408 L86.8392,16.4712 L86.6184,16.608 L86.0592,16.908 L85.8696,17.0088 C85.9632,17.436 86.0712,17.8752 86.1936,18.3288 L86.6736,18.0696 L87.264,17.76 L87.2856,17.748 C87.3768,17.6952 87.4632,17.64 87.552,17.5824 L88.4088,17.04 L88.4448,17.0136 L89.2584,16.4136 C89.3448,16.3488 89.4312,16.2864 89.5296,16.2072 L89.8656,15.9216 L90.0672,15.7488 C90.228,15.612 90.3864,15.4776 90.5472,15.324 L91.1784,14.7048 C92.0074747,13.8628485 92.7570551,12.946159 93.4176,11.9664 C93.6744,11.6088 93.8976,11.2464 94.104,10.8864 C94.1808,10.7568 94.26,10.6248 94.344,10.4952 L94.3656,10.4544 L94.5744,10.0584 C94.7688,9.6936 94.9704,9.3144 95.1432,8.9184 C95.4833041,8.19405336 95.7806149,7.45037546 96.0336,6.6912 L94.7808,6.2712 Z" id="Shape"></path>
                        <path d="M4.8552,40.9128 L5.652,41.2608 C5.8416,41.3424 6.0192,41.4216 6.1992,41.5176 L7.02,41.9376 C7.1928,42.0288 7.3632,42.132 7.5456,42.24 L7.8072,42.3936 L8.196,42.6336 L8.568,42.8736 L8.808,43.0464 C8.9784,43.164 9.1512,43.2864 9.3168,43.404 C10.3038178,44.1463176 11.2161311,44.9830737 12.0408,45.9024 C12.8474669,46.833464 13.5642591,47.8387409 14.1816,48.9048 C14.6075332,49.6755772 14.9881787,50.4705253 15.3216,51.2856 C15.8664,51.4224 16.392,51.5616 16.8888,51.6936 C16.4632293,50.5066693 15.9414974,49.3564512 15.3288,48.2544 C14.6655841,47.1079224 13.89492,46.0270639 13.0272,45.0264 C12.1431858,44.0398535 11.1649434,43.1419925 10.1064,42.3456 C9.924,42.2088 9.7368,42.0816 9.5496,41.9544 L9.3096,41.784 L8.9208,41.52 L8.88,41.5008 L8.4696,41.2608 L8.2152,41.1096 C8.028,40.9968 7.8336,40.8816 7.6224,40.7712 L6.8016,40.3512 C6.5856,40.236 6.3744,40.1448 6.1704,40.0536 L5.3568,39.6984 C5.0208,39.564 4.6848,39.4392 4.356,39.3192 L3.9384,39.1656 L3.4752,40.4016 L3.912,40.56 C4.2288,40.6728 4.56,40.8 4.8552,40.9128 L4.8552,40.9128 Z" id="Shape"></path>
                        <path d="M4.1616,43.8504 C4.4184,43.9608 4.6632,44.064 4.9128,44.1936 C5.83829965,44.6464204 6.72176811,45.1805172 7.5528,45.7896 C8.37442999,46.4089635 9.134716,47.1057584 9.8232,47.8704 C10.4945041,48.6478058 11.0922638,49.4857941 11.6088,50.3736 L11.6568,50.4648 C12.0192,50.5344 12.3768,50.6088 12.756,50.688 L13.3128,50.808 C13.1424,50.4528 12.96,50.088 12.7584,49.7232 C12.1959922,48.7549725 11.5443609,47.8414032 10.812,46.9944 C10.0620033,46.160637 9.23337006,45.4011235 8.3376,44.7264 C7.44475377,44.072106 6.49540262,43.4986401 5.5008,43.0128 C5.2272,42.8712 4.9488,42.7512 4.6824,42.6384 L4.2672,42.456 L4.2408,42.456 C3.972,42.348 3.6984,42.2472 3.4272,42.1464 L2.9928,41.9856 L2.5248,43.2 L2.9688,43.3656 C3.2256,43.4592 3.48,43.5552 3.7344,43.656 L4.1616,43.8504 Z" id="Shape"></path>
                        <path d="M3.6,46.8552 L4.1976,47.16 C4.308,47.2176 4.416,47.2824 4.5216,47.3472 L4.7616,47.4816 L5.0304,47.64 L5.2704,47.808 L5.4984,47.964 C5.5992,48.0336 5.7024,48.1008 5.7984,48.1728 C6.45438419,48.6677469 7.06190862,49.2238407 7.6128,49.8336 L7.6632,49.8936 C7.9832,49.9224 8.3128,49.956 8.652,49.9944 C8.9232,50.0256 9.2064,50.0616 9.492,50.1024 C9.20993486,49.7058853 8.9071126,49.3245535 8.5848,48.96 C7.97520539,48.2839714 7.30256382,47.6675842 6.576,47.1192 C6.4608,47.0328 6.336,46.9536 6.2232,46.8792 L6,46.7256 L5.7264,46.5384 L5.688,46.5144 L5.3928,46.3416 L5.184,46.2192 C5.0544,46.1424 4.9272,46.0632 4.7832,45.9792 L4.1976,45.6816 C4.0392,45.5952 3.8832,45.528 3.732,45.4608 L3.1176,45.192 L2.5872,46.392 L3.2064,46.6632 C3.36,46.7376 3.4728,46.8 3.6,46.8552 L3.6,46.8552 Z" id="Shape"></path>
                        <path d="M31.44,45.5784 C31.1352,45.6216 30.8304,45.66 30.5304,45.696 C29.3952,47.376 28.3968,49.3344 27.3552,51.3768 L27.1728,51.732 C25.8192,54.372 24.4224,57.12 22.4112,59.6928 C21.3885623,61.0196036 20.2141761,62.2221816 18.912,63.276 C17.5765365,64.3489032 16.0942863,65.2249988 14.5104,65.8776 C12.9456496,66.5033312 11.3141325,66.9470459 9.648,67.2 L8.412,67.3392 L8.172,67.3632 C8.0472,67.3776 7.932,67.392 7.8072,67.3992 L6.828,67.44 C6.54,67.452 6.2496,67.464 5.9616,67.4712 L4.0416,67.428 L3.3456,67.3728 L3.24,68.688 L3.96,68.7456 L3.996,68.7456 L5.9544,68.7912 L6,68.7912 C6.3,68.7912 6.6024,68.772 6.9048,68.7576 L7.8912,68.7168 C8.04,68.7168 8.1912,68.6928 8.3424,68.676 L8.5584,68.652 L9.8208,68.5104 L9.852,68.5104 C11.6218077,68.2423092 13.3548346,67.7712029 15.0168,67.1064 C16.7180371,66.4066203 18.310219,65.4666672 19.7448,64.3152 C21.1314977,63.1980139 22.3824362,61.9221049 23.472,60.5136 C25.56,57.84 26.988,55.044 28.3704,52.3392 L28.5528,51.9816 C29.7912,49.5504 30.9672,47.2536 32.3688,45.4392 C32.0544,45.4848 31.752,45.5328 31.44,45.5784 L31.44,45.5784 Z" id="Shape"></path>
                        <path d="M26.9016,45.924 L26.6976,46.2792 C26.0064,47.5032 25.3608,48.7704 24.7368,49.9944 L24.5952,50.2728 C23.3472,52.7256 21.9336,55.5024 20.0832,57.864 C19.2003501,59.0104488 18.1862391,60.0495299 17.0616,60.96 C15.9418274,61.8517249 14.7005102,62.5790592 13.3752,63.12 C12.0358797,63.6519614 10.6405709,64.0303775 9.216,64.248 L8.1264,64.368 L7.9152,64.392 C7.8096,64.404 7.704,64.4184 7.6056,64.4232 L5.9472,64.488 L4.2048,64.4472 L2.2512,64.2888 L2.1432,65.616 L4.1184,65.7768 L4.1568,65.7768 L5.9376,65.8176 L5.976,65.8176 L7.656,65.7504 C7.7904,65.7504 7.9248,65.7288 8.0568,65.712 L8.2512,65.6904 L9.3648,65.568 L9.3984,65.568 C10.9262434,65.3382433 12.4230403,64.9356621 13.86,64.368 C15.3037403,63.7738453 16.6550347,62.9761614 17.8728,61.9992 C19.081448,61.0228804 20.1713063,59.9080512 21.12,58.6776 C23.04,56.2176 24.492,53.3784 25.7688,50.8728 L25.92,50.592 C26.5368,49.38 27.1776,48.1248 27.8544,46.9272 C28.0656,46.5552 28.2696,46.2072 28.4712,45.876 C27.9384,45.9048 27.4152,45.9208 26.9016,45.924 L26.9016,45.924 Z" id="Shape"></path>
                        <path d="M24.024,45.7992 L23.5944,45.7512 C23.0712,46.7112 22.5864,47.6712 22.1136,48.5952 L21.9456,48.9264 C20.568,51.6432 19.3056,54.0528 17.7408,56.0352 C16.1256,58.1064 14.3256,59.52 12.24,60.3864 C11.1246175,60.8250572 9.96386945,61.1381855 8.7792,61.32 L7.836,61.4232 L7.6464,61.4448 C7.56,61.4448 7.4712,61.4664 7.3896,61.4712 L5.9208,61.5288 L4.356,61.4928 L2.5704,61.3464 L2.4648,62.6616 L4.2696,62.808 L4.32,62.808 L5.9232,62.844 L5.9664,62.844 L7.4592,62.784 C7.5816,62.784 7.6992,62.7648 7.8192,62.7504 L7.9848,62.7312 L8.9448,62.6256 L8.9808,62.6256 C10.2684084,62.4276271 11.5298446,62.0863068 12.7416,61.608 C15.0144,60.6768 17.0472,59.0736 18.7824,56.8488 C20.4144,54.7728 21.7128,52.3032 23.124,49.524 L23.28,49.2 C23.832,48.1176 24.4032,47.0016 25.0224,45.8808 C24.6936,45.8544 24.3552,45.84 24.024,45.7992 L24.024,45.7992 Z" id="Shape"></path>
                        <path d="M22.5456,29.1288 C23.4742666,30.2323885 24.315988,31.406305 25.0632,32.64 C25.7838607,33.8145182 26.377598,35.062332 26.8344,36.3624 C27.2824,36.3624 27.7408,36.3448 28.2096,36.3096 C27.7093559,34.7852264 27.0319215,33.3248357 26.1912,31.9584 C25.4071858,30.669683 24.5245469,29.4436173 23.5512,28.2912 C21.6496997,26.0177555 19.4609955,24.0008883 17.04,22.2912 C16.38,21.8304 15.708,21.3984 15.0456,21.012 L14.3832,22.152 C15.0144,22.5216 15.6552,22.932 16.284,23.3712 C18.6115625,25.0113461 20.7163514,26.9467193 22.5456,29.1288 L22.5456,29.1288 Z" id="Shape"></path>
                        <path d="M20.268,31.0344 C21.0977516,32.0147775 21.8503981,33.0578911 22.5192,34.1544 C22.8945554,34.7733567 23.2319764,35.4145369 23.5296,36.0744 C24.0096,36.1584 24.4656,36.2232 24.936,36.2688 L25.0488,36.2688 C24.6620623,35.2990189 24.1939941,34.3636853 23.6496,33.4728 C22.9463816,32.314809 22.1544066,31.2131051 21.2808,30.1776 C19.5462878,28.1080876 17.549474,26.2734392 15.3408,24.72 C14.6006942,24.199242 13.833192,23.7185517 13.0416,23.28 L12.4056,24.4368 C13.1549573,24.8512407 13.8815965,25.3054904 14.5824,25.7976 C16.6972046,27.288602 18.6085231,29.0490481 20.268,31.0344 L20.268,31.0344 Z" id="Shape"></path>
                        <path d="M18,32.9424 C18.5232,33.5696 18.9912,34.1888 19.404,34.8 L19.5432,34.8624 C19.6992,34.9344 19.8456,35.0016 19.9848,35.0568 L20.88,35.388 C21.064,35.4504 21.2464,35.5088 21.4272,35.5632 C21.3264,35.3808 21.2208,35.1984 21.1104,35.0184 C20.4854277,33.9916416 19.7825631,33.0143709 19.008,32.0952 C17.4399017,30.2263194 15.6369875,28.5677996 13.644,27.1608 C12.9919295,26.7025068 12.3157592,26.2794999 11.6184,25.8936 L10.9824,27.0504 C11.6385937,27.4160492 12.274707,27.8166244 12.888,28.2504 C14.7867972,29.5879156 16.5049951,31.164947 18,32.9424 L18,32.9424 Z" id="Shape"></path>
                        <path d="M98.2176,9.3288 L98.1048,9.6576 C97.9555197,10.1294833 97.7759466,10.5912425 97.5672,11.04 L97.5552,11.0664 C96.9739695,12.4322058 96.1961408,13.705678 95.2464,14.8464 C94.2659428,16.0103443 93.1491324,17.0522171 91.92,17.9496 C89.3976,19.8168 86.4,21.2448 83.0136,22.7856 L82.5888,22.98 C81.0792,23.6712 79.5192,24.3864 77.952,25.1808 C76.1622149,26.0684931 74.4414051,27.0889453 72.804,28.2336 C71.2324726,29.3365863 69.8004296,30.6259891 68.5392,32.0736 L68.6208,32.2848 C68.7744,32.6904 68.9208,33.0984 69.0624,33.5064 L69.1272,33.4224 C70.4113509,31.8538859 71.9053849,30.4696835 73.5672,29.3088 C75.1519516,28.2010531 76.8174051,27.2134937 78.5496,26.3544 C80.0928,25.572 81.6408,24.8616 83.1384,24.1776 L83.5632,23.9832 C87.012,22.4112 90.0816,20.952 92.7048,19.0104 C94.0205967,18.0523987 95.2163852,16.9396063 96.2664,15.696 C97.2938367,14.4647513 98.1362949,13.0902993 98.7672,11.616 C98.9976457,11.1172892 99.1956574,10.6042224 99.36,10.08 L99.4704,9.7584 L98.2176,9.3288 Z" id="Shape"></path>
                        <path d="M101.1336,9.9792 C101.0688,10.1664 101.004,10.3512 100.9416,10.5384 C100.757951,11.1194881 100.538327,11.6885874 100.284,12.2424 L100.284,12.264 C99.5907156,13.8796754 98.6684571,15.3871355 97.5456,16.74 C96.4082113,18.0912637 95.1116006,19.3000369 93.684,20.34 C90.7176,22.5288 87.2832,24.1008 84.2496,25.4856 L83.5992,25.7832 C80.5296,27.192 77.3592,28.6464 74.5296,30.6504 C72.9875056,31.7264772 71.6008892,33.0097233 70.4088,34.464 C70.1544,34.7784 69.9144,35.1024 69.6888,35.424 C69.8488,35.9888 70.004,36.5568 70.1544,37.128 C70.5396283,36.4843118 70.9694807,35.8684039 71.4408,35.2848 C72.5567809,33.9247711 73.8545453,32.7247226 75.2976,31.7184 C78.024,29.7864 81.1416,28.3584 84.156,26.9736 L84.8064,26.676 C87.8952,25.2648 91.3992,23.664 94.4736,21.396 C95.9819521,20.2943404 97.3518543,19.0146906 98.5536,17.5848 C99.7544047,16.1389485 100.741284,14.5280968 101.484,12.8016 C101.761613,12.2025641 102.002068,11.5869988 102.204,10.9584 C102.2664,10.776 102.3288,10.5936 102.3912,10.4136 L101.1336,9.9792 Z" id="Shape"></path>
                        <path d="M104.0256,10.7016 C103.944,10.9416 103.8624,11.1696 103.7856,11.4048 C103.563351,12.1057554 103.298867,12.792612 102.9936,13.4616 C102.190979,15.329281 101.124069,17.0718994 99.8256,18.636 C98.5341228,20.1731624 97.060965,21.5480022 95.4384,22.7304 C93.8721737,23.867548 92.2218254,24.8840727 90.5016,25.7712 C88.8864,26.6208 87.2592,27.36 85.68,28.08 L85.152,28.32 C81.9024,29.808 78.8328,31.2 76.2408,33.0552 C74.9155367,33.9770105 73.7235383,35.076944 72.6984,36.324 C71.8971164,37.321197 71.2164023,38.4095341 70.6704,39.5664 C70.8384,40.4496 70.9728,41.2128 71.0832,42.0576 C71.9736,39.7128 72.6744,38.4576 73.7232,37.1544 C74.6722298,36.0015919 75.7753762,34.984856 77.0016,34.1328 C79.4928,32.3592 82.5072,30.9816 85.6992,29.52 L86.2272,29.28 C87.8184,28.56 89.4624,27.7944 91.1064,26.928 C92.8860565,26.0101074 94.5933738,24.958278 96.2136,23.7816 C97.9211385,22.5336562 99.4708736,21.0830461 100.8288,19.4616 C102.204971,17.8087264 103.336531,15.9667084 104.1888,13.992 C104.513328,13.2816298 104.794641,12.5523011 105.0312,11.808 C105.108,11.568 105.1872,11.3496 105.2712,11.1216 L104.0256,10.7016 Z" id="Shape"></path>
                        <path d="M125.6016,46.6368 C125.8056,46.7712 126.0144,46.8984 126.2184,47.0232 L126.684,47.3136 L126.9528,47.4504 C127.128,47.4024 127.3032,47.352 127.476,47.3064 C128.328,47.0832 129.156,46.8984 129.9144,46.7568 C130.5576,46.6368 131.1336,46.5504 131.6712,46.4928 L131.5296,45.18 C130.9584,45.2424 130.3512,45.3336 129.6768,45.4584 C128.88,45.6048 128.0256,45.7968 127.1424,46.0296 C126.5784,46.176 126.0072,46.3392 125.4336,46.5096 L125.6016,46.6368 Z" id="Shape"></path>
                        <path d="M116.052,50.8992 C115.9032,50.7408 115.776,50.5896 115.6632,50.448 C115.3896,50.5896 115.1184,50.7312 114.8544,50.8752 C113.665654,51.5108747 112.519262,52.2227602 111.4224,53.0064 L112.5576,53.6232 L112.7136,53.7096 C113.496,53.1744 114.4152,52.62 115.4856,52.0296 C115.844,51.836 116.2112,51.644 116.5872,51.4536 L116.052,50.8992 Z" id="Shape"></path>
                        <path d="M114.1104,48.3744 L113.964,48.156 L113.88,48.0288 L113.436,48.2688 C111.77319,49.1479774 110.19457,50.1778961 108.72,51.3456 L108.5592,51.4824 C108.9912,51.7048 109.416,51.9272 109.8336,52.1496 C111.169805,51.1264097 112.588225,50.2153135 114.0744,49.4256 L114.6288,49.1304 L114.1104,48.3744 Z" id="Shape"></path>
                        <path d="M122.9496,44.244 C123.0096,44.3208 123.072,44.4024 123.1104,44.4432 L123.8568,45.2256 L123.9,45.2616 L124.1112,45.192 C124.9848,44.9112 125.8656,44.6568 126.7296,44.4336 C127.6608,44.1936 128.5272,43.9944 129.3696,43.8384 C130.211793,43.6777877 131.061728,43.5608316 131.916,43.488 L131.8104,42.1728 C130.911061,42.248843 130.016262,42.3714071 129.1296,42.54 C128.2488,42.7008 127.3536,42.9024 126.3912,43.1568 C125.5056,43.3968 124.6008,43.6368 123.7056,43.9344 C123.4392,44.0184 123.1728,44.1096 122.9064,44.1984 L122.9496,44.244 Z" id="Shape"></path>
                        <path d="M121.3512,41.8536 L121.8312,42.7032 L121.8936,42.7968 C122.3368,42.6448 122.7784,42.4992 123.2184,42.36 C124.1424,42.0648 125.0736,41.7936 125.988,41.5584 C126.9888,41.2968 127.9224,41.0784 128.8392,40.9176 C129.6672,40.764 130.4088,40.656 131.1096,40.5816 L130.9704,39.2688 C130.236,39.3456 129.4608,39.4608 128.5992,39.6192 C127.6392,39.7944 126.6792,40.0104 125.6544,40.2816 C124.7184,40.5216 123.7632,40.8 122.8176,41.1024 C122.2968,41.268 121.776,41.4432 121.2504,41.6256 L121.3512,41.8536 Z" id="Shape"></path>
                        <path d="M112.7448,46.0488 L112.464,45.4344 L112.464,45.42 L112.0224,45.66 C110.189272,46.6310082 108.449866,47.7694553 106.8264,49.0608 C106.4568,49.3704 106.0752,49.7016 105.6936,50.0784 C106.1136,50.2728 106.5384,50.4744 106.9728,50.6856 C107.196,50.4816 107.4264,50.2824 107.6688,50.0784 C109.225957,48.8388966 110.895628,47.7477451 112.656,46.8192 L113.0568,46.6056 L112.7448,46.0488 Z" id="Shape"></path>
                        <path d="M43.5432,6.4536 L43.6224,6.6456 L43.9104,7.3464 C44.6406418,9.25544551 45.090121,11.260317 45.2448,13.2984 L45.2448,13.2984 C45.708,13.3248 46.152,13.3344 46.5696,13.3368 L46.5696,13.1856 C46.4035154,11.0165189 45.923304,8.88305443 45.144,6.852 L44.8464,6.132 L44.7696,5.9496 C44.6947778,5.75765681 44.6090378,5.57015057 44.5128,5.388 L44.2728,4.9392 L43.0992,5.5416 L43.3392,6.0072 C43.4154451,6.15209223 43.4835508,6.30112361 43.5432,6.4536 L43.5432,6.4536 Z" id="Shape"></path>
                        <path d="M44.7672,30.2112 C44.9592,28.7712 45.2064,27.3312 45.4704,25.8048 C45.6336,24.8448 45.7992,23.8848 45.9504,22.9056 C45.5208,22.9056 45.0768,22.8792 44.6208,22.8528 C44.4744,23.7744 44.3184,24.684 44.1648,25.5792 C43.8984,27.12 43.6488,28.5744 43.4448,30.0336 C42.8976,34.0368 42.9384,37.2336 43.5768,40.0848 C44.1709219,42.7503445 45.2983515,45.2680803 46.8912,47.4864 L47.2896,47.4672 C47.5896,47.4504 47.8752,47.4672 48.1272,47.4672 L48.432,47.4672 L48.516,47.4672 C46.6512,45.0072 45.4248,42.4272 44.868,39.7872 C44.2776,37.104 44.2416,34.056 44.7672,30.2112 L44.7672,30.2112 Z" id="Shape"></path>
                        <path d="M40.6632,7.2912 C40.7231439,7.40628324 40.7760414,7.52490171 40.8216,7.6464 L40.8936,7.8216 L41.1336,8.4192 C41.6878612,9.86942158 42.0524779,11.3851621 42.2184,12.9288 L42.8928,13.0608 L43.2576,13.1088 L43.5672,13.1496 C43.409457,11.3618686 43.0056444,9.60447612 42.3672,7.9272 L42.1128,7.308 L42.0456,7.1472 C41.9807633,6.9778652 41.9054167,6.81274396 41.82,6.6528 L41.4528,5.9328 L40.2792,6.5352 L40.6512,7.2552 L40.6632,7.2912 Z" id="Shape"></path>
                        <path d="M41.4288,35.1696 C41.4388828,33.3786683 41.5711903,31.5905129 41.8248,29.8176 C42.0312,28.2864 42.3048,26.7312 42.5568,25.2264 C42.6984,24.4008 42.8424,23.5608 42.9768,22.716 C42.6144,22.6776 42.2568,22.632 41.88,22.5768 L41.6688,22.56 C41.5368,23.3856 41.3976,24.2064 41.2584,25.0128 C40.9968,26.5296 40.728,28.0968 40.5192,29.652 C40.2587337,31.4806467 40.1232196,33.3249215 40.1136,35.172 C40.1070833,37.0386917 40.3018082,38.9006474 40.6944,40.7256 C41.2539802,43.2576688 42.2417726,45.6756092 43.6152,47.8752 L43.9104,47.8128 L43.9752,47.8008 C44.2368,47.7576 44.5032,47.7192 44.7672,47.6832 L45.0264,47.6472 C43.5844598,45.4512361 42.553328,43.0116498 41.9832,40.4472 C41.6091778,38.713051 41.4233027,36.9436166 41.4288,35.1696 L41.4288,35.1696 Z" id="Shape"></path>
                        <path d="M41.5896,47.6928 C41.4136397,47.3974715 41.2534161,47.0930466 41.1096,46.7808 L41.0928,46.7448 C40.1839458,44.9523049 39.5096048,43.0502762 39.0864,41.0856 C38.6666741,39.1417526 38.458264,37.1582352 38.4648,35.1696 C38.4734579,33.2422755 38.6137846,31.3177943 38.8848,29.4096 C39.1056,27.78 39.3816,26.1792 39.648,24.6312 C39.7872,23.8152 39.9216,23.0232 40.0488,22.2312 L39.7704,22.176 C39.4224,22.0992 39.0888,22.0128 38.76,21.936 C38.6304,22.7472 38.4912,23.568 38.3448,24.4104 C38.076,25.9704 37.8,27.5832 37.5744,29.2368 C37.2956957,31.2006698 37.1513602,33.1812727 37.1424,35.1648 C37.1359785,37.2486862 37.35485,39.3271606 37.7952,41.364 C38.2421793,43.4334374 38.9527785,45.4369883 39.9096,47.3256 C40.0717678,47.6739666 40.2520132,48.0136289 40.4496,48.3432 L40.6224,48.648 C41.0384,48.5152 41.4728,48.3888 41.9256,48.2688 L41.8128,48.0696 C41.736,47.9496 41.664,47.8224 41.5896,47.6928 L41.5896,47.6928 Z" id="Shape"></path>
                        <path d="M37.9848,8.5704 C38.0300962,8.65638191 38.0693901,8.7453944 38.1024,8.8368 C38.124,8.892 38.1456,8.9472 38.1672,8.9952 L38.3712,9.4896 C38.6860906,10.3055514 38.9270587,11.1481363 39.0912,12.0072 L39.3144,12.1008 C39.5304,12.1824 39.7584,12.2568 39.9888,12.3408 L40.5048,12.516 L40.5048,12.516 C40.3352999,11.313918 40.0318114,10.1345793 39.6,9 L39.3864,8.484 L39.3312,8.3496 C39.2766069,8.20354792 39.2116412,8.061586 39.1368,7.9248 L38.64,6.96 L37.464,7.56 L37.968,8.544 L37.9848,8.5704 Z" id="Shape"></path>
                        <path d="M54.0528,4.8336 C54.4606666,7.81695903 55.2286681,10.7398776 56.34,13.5384 C56.8841376,14.9150063 57.4977253,16.2631371 58.1784,17.5776 C58.536,17.292 58.8984,17.0112 59.2296,16.7328 C58.6248,15.5328 58.056,14.3088 57.5688,13.056 C56.4941801,10.3493344 55.7519559,7.52227407 55.3584,4.6368 C55.272,4.116 55.2216,3.5928 55.1688,3.036 C55.1424,2.7648 55.116,2.4912 55.0848,2.2224 L53.772,2.3688 C53.8008,2.6328 53.8272,2.8968 53.8536,3.1632 C53.9088,3.7152 53.964,4.2864 54.0528,4.8336 L54.0528,4.8336 Z" id="Shape"></path>
                        <path d="M51.12,5.2464 C51.5562623,8.46572768 52.3823233,11.6200718 53.58,14.64 C54.2351189,16.2935022 54.9810547,17.9095629 55.8144,19.4808 C56.1632,19.1944 56.512,18.912 56.8608,18.6336 C56.0971916,17.179047 55.4114246,15.68494 54.8064,14.1576 C53.6403476,11.2333641 52.8344258,8.17811446 52.4064,5.0592 C52.3128,4.4856 52.2576,3.912 52.2,3.3048 C52.1736,3.0264 52.1472,2.748 52.116,2.472 L50.8032,2.616 C50.832,2.8872 50.8584,3.1608 50.8848,3.432 C50.9544,4.0224 51.0144,4.644 51.12,5.2464 L51.12,5.2464 Z" id="Shape"></path>
                        <path d="M48.1704,5.6568 C48.6384673,9.10751902 49.524992,12.4884015 50.8104,15.7248 C51.5983981,17.6906836 52.503212,19.6077029 53.52,21.4656 C53.8464,21.1632 54.1824,20.8608 54.5328,20.556 C53.6026002,18.8332187 52.7724248,17.058278 52.0464,15.24 C50.7963667,12.0972267 49.9340095,8.81382174 49.4784,5.4624 C49.3776,4.8336 49.3128,4.1808 49.2528,3.5424 L49.2,3.132 L47.8872,3.2616 L47.928,3.6768 C48,4.32 48.0648,5.0016 48.1704,5.6568 L48.1704,5.6568 Z" id="Shape"></path>
                        <path d="M68.1048,9.2592 L68.16,9.36 C68.4137777,8.65563967 68.6159125,7.9337296 68.7648,7.2 C68.8003888,7.0594578 68.8268441,6.91675954 68.844,6.7728 C68.844,6.7248 68.856,6.6792 68.8656,6.6216 L69.024,5.5704 L69.024,5.5152 L69.06,4.9704 C69.06,4.8288 69.0792,4.6872 69.0912,4.548 C69.108,4.3248 69.1248,4.1016 69.1344,3.876 L69.1344,3.8448 L69.1344,2.7264 L69.1344,2.5248 L69.1344,2.0976 L69.0144,0.3072 L67.6968,0.396 L67.8168,2.1744 L67.8168,2.5176 L67.8168,2.736 L67.8168,3.8256 C67.8168,4.032 67.7904,4.236 67.776,4.4424 C67.776,4.5888 67.7544,4.7352 67.7448,4.8792 L67.7112,5.3928 L67.5576,6.4128 C67.5576,6.4704 67.5408,6.528 67.5312,6.588 C67.521031,6.67933562 67.504998,6.76992261 67.4832,6.8592 C67.4832,6.8784 67.4832,6.8952 67.4712,6.9144 C67.4232,7.1544 67.368,7.3944 67.3056,7.6344 C67.5406041,8.19088573 67.8074454,8.73338298 68.1048,9.2592 L68.1048,9.2592 Z" id="Shape"></path>
                        <path d="M49.08,32.9472 C49.4043251,31.6141012 49.8877964,30.3248444 50.52,29.1072 C51.4024785,27.4590953 52.5125703,25.9434241 53.8176,24.6048 C55.0422091,23.352396 56.3456699,22.1796019 57.72,21.0936 C58.224,20.6856 58.7232,20.2872 59.2152,19.8936 C60.0312,19.2456 60.7992,18.6336 61.5504,18.0048 C61.7568,17.8344 61.9512,17.6664 62.1432,17.5008 C61.8624,17.136 61.6008,16.7808 61.356,16.4376 C61.1472,16.62 60.9312,16.8048 60.7032,16.9944 C59.9664,17.6136 59.2032,18.2184 58.3944,18.8616 C57.9,19.2552 57.396,19.6536 56.8896,20.0616 C55.4719301,21.1823445 54.1275727,22.3928273 52.8648,23.6856 C51.4749879,25.1129346 50.2929938,26.7287844 49.3536,28.4856 C48.6327081,29.8660317 48.0892002,31.3320514 47.736,32.8488 C48.192,32.8696 48.64,32.9024 49.08,32.9472 L49.08,32.9472 Z" id="Shape"></path>
                        <path d="M70.1784,12.24 C70.8642528,10.8170818 71.3674432,9.31315553 71.676,7.764 C71.7146233,7.60580157 71.7442706,7.4455458 71.7648,7.284 C71.7648,7.2288 71.7792,7.1736 71.7912,7.1088 L71.9736,5.8824 L71.9736,5.832 L72.0168,5.2104 C72.0168,5.0688 72.036,4.9272 72.048,4.7856 C72.0696,4.5096 72.0888,4.236 72.1008,3.96 L72.1008,3.9312 L72.1008,2.6856 L72.1008,2.4624 L72.1008,1.9824 L72.024,0.8568 L70.7064,0.9456 L70.7832,2.0616 L70.7832,2.4552 L70.7832,2.6952 L70.7832,3.9192 C70.7832,4.176 70.752,4.4328 70.7328,4.6896 C70.7328,4.836 70.7112,4.98 70.7016,5.124 L70.6608,5.7168 L70.4832,6.9168 C70.4832,6.9816 70.464,7.044 70.4544,7.1088 C70.4404866,7.2275146 70.4196511,7.3453152 70.392,7.4616 L70.392,7.5072 C70.1505624,8.73114529 69.7771821,9.92531823 69.2784,11.0688 C69.5424,11.4312 69.84,11.8248 70.1784,12.24 L70.1784,12.24 Z" id="Shape"></path>
                        <path d="M51.6384,33.384 L51.984,33.4656 L52.0104,33.4656 C52.2771114,32.4331409 52.6612152,31.4346322 53.1552,30.4896 C53.9088581,29.083901 54.8565468,27.791231 55.9704,26.6496 C57.5184,25.0344 59.3136,23.6088 61.0512,22.2288 C61.848,21.5976 62.6712,20.9448 63.4632,20.2776 L64.0224,19.7976 C63.744,19.468 63.4616,19.1304 63.1752,18.7848 C62.9952,18.9408 62.808,19.0992 62.616,19.2648 C61.836,19.92 61.02,20.568 60.2304,21.1848 C58.4592,22.5912 56.6304,24.0456 55.0152,25.7256 C53.8163377,26.9536371 52.795964,28.3440276 51.984,29.856 C51.4374158,30.9011499 51.0137902,32.0061201 50.7216,33.1488 C51.0288,33.24 51.3336,33.312 51.6384,33.384 L51.6384,33.384 Z" id="Shape"></path>
                        <path d="M72.0864,14.5296 L72.24,14.7144 C72.384,14.4552 72.5256,14.196 72.6576,13.9344 C73.5490721,12.168977 74.195051,10.2899859 74.5776,8.3496 C74.620794,8.16909839 74.6544407,7.98644484 74.6784,7.8024 C74.6784,7.74 74.6976,7.6752 74.7096,7.6032 L74.916,6.204 L74.916,6.1584 L74.9688,5.4576 C74.9784,5.3152 74.9888,5.172 75,5.028 C75.024,4.7016 75.048,4.3776 75.06,4.0512 L75.06,4.0224 L75.06,2.64 L75.06,2.4 L75.06,1.8768 L75.012,1.1568 L73.6944,1.2432 L73.7424,1.9488 L73.7424,2.3976 L73.7424,2.6376 L73.7424,3.996 C73.7304,4.3032 73.7064,4.6104 73.6848,4.9176 C73.6848,5.064 73.6632,5.2104 73.6536,5.3496 L73.6032,6.0216 L73.4016,7.3848 C73.4016,7.4568 73.38,7.5264 73.368,7.5984 C73.3500131,7.74127122 73.3243763,7.88307489 73.2912,8.0232 L73.2912,8.064 C72.9299886,9.89313288 72.3194945,11.6640504 71.4768,13.3272 C71.4264,13.4256 71.3736,13.524 71.3208,13.6224 L72.0864,14.5296 Z" id="Shape"></path>
                        <path d="M54.2544,34.1856 C54.444,34.2552 54.6384,34.3296 54.8352,34.4112 C55.0511025,33.5313196 55.3734812,32.6810458 55.7952,31.8792 C56.4200184,30.719625 57.2062596,29.6546036 58.1304,28.716 C59.472,27.3048 61.1328,25.9848 62.892,24.5856 C63.7032,23.94 64.5432,23.2728 65.3832,22.572 L65.9544,22.092 C65.6808,21.772 65.3968,21.436 65.1024,21.084 L64.536,21.564 C63.708,22.2552 62.8752,22.9176 62.0712,23.5584 C60.276,24.9864 58.5792,26.3352 57.1752,27.8112 C56.1659562,28.8382432 55.3077778,30.0034911 54.6264,31.272 C54.1818314,32.1244395 53.8379206,33.025695 53.6016,33.9576 C53.8056,34.0224 54.024,34.0968 54.2544,34.1856 L54.2544,34.1856 Z" id="Shape"></path>
                        <path d="M18.072,53.208 C16.5168,52.788 14.9064,52.3512 13.2456,51.9768 C11.4712493,51.5626134 9.67244942,51.2612102 7.86,51.0744 C5.95263482,50.8764959 4.03024679,50.8700638 2.1216,51.0552 C1.4904,51.12 0.8304,51.216 0.1584,51.3408 L0.3984,52.6392 C1.0344,52.5216 1.6584,52.4304 2.2512,52.3704 C4.07214719,52.1948674 5.90609466,52.2021035 7.7256,52.392 C9.48706868,52.5714083 11.2353804,52.8623928 12.96,53.2632 C14.5152,53.6136 16.032,54.0216 17.5032,54.4176 L17.628,54.2376 C17.7696,54.0432 17.916,53.8128 18.0696,53.568 L18.2688,53.256 L18.2688,53.256 L18.072,53.208 Z" id="Shape"></path>
                        <path d="M35.8368,53.1576 L36.0408,53.0712 C37.5096,52.4544 39.0288,51.8136 40.6512,51.2592 C42.3950924,50.6324902 44.2068008,50.2135981 46.0488,50.0112 L47.5296,49.9392 C48.0672,49.9392 48.5208,49.9536 48.9552,49.9896 C49.9325796,50.0613295 50.9013873,50.2219941 51.8496,50.4696 C54.2016,51.0816 55.74,52.0872 57.4704,53.6952 C57.6552,53.8656 57.8352,54.048 58.0128,54.2328 C57.8688,53.4456 57.708,52.7112 57.5328,52.0128 C56.0081922,50.6479956 54.1695455,49.6816755 52.1808,49.2 C51.158747,48.9321366 50.1144424,48.7578181 49.0608,48.6792 C48.612,48.6432 48.1464,48.6264 47.5992,48.6264 L47.4816,48.6264 L45.9696,48.7008 L45.9384,48.7008 C43.9891407,48.9120786 42.0717774,49.3535555 40.2264,50.016 C38.5608,50.5872 37.02,51.2352 35.532,51.8616 L35.328,51.948 C33.9744,52.5192 32.4072,53.1672 30.9192,53.6592 C30.0696,53.9376 29.328,54.1392 28.6512,54.3048 C28.4808,54.6312 28.308,54.96 28.128,55.296 C28.0392,55.4616 27.9456,55.6344 27.8544,55.8048 C29.0353006,55.6003294 30.1981406,55.3025974 31.332,54.9144 C32.8632,54.3984 34.4592,53.736 35.8368,53.1576 L35.8368,53.1576 Z" id="Shape"></path>
                        <path d="M12.5928,54.8736 C8.64,53.9784 5.4096,53.7024 2.424,54 C1.60924752,54.0889458 0.800019213,54.2227489 0,54.4008 L0.2904,55.68 C1.03988085,55.5154219 1.79781709,55.3920369 2.5608,55.3104 C5.3976,55.02 8.4936,55.2864 12.3024,56.1504 C13.3344,56.3904 14.3712,56.6496 15.3984,56.9208 C15.7591988,56.5752099 16.1005244,56.2098472 16.4208,55.8264 C15.1608,55.4976 13.8768,55.1616 12.5928,54.8736 L12.5928,54.8736 Z" id="Shape"></path>
                        <path d="M58.4832,57.384 L58.4832,57.2928 C56.5632,54.4512 54.4032,52.8408 51.432,52.0608 C49.7325248,51.6254436 47.9705384,51.4874078 46.224,51.6528 C44.5086682,51.8420766 42.8217476,52.2335968 41.1984,52.8192 C39.66,53.3472 38.1456,53.9808 36.6816,54.5976 C35.1144,55.2552 33.492,55.9368 31.8624,56.472 C30.3277381,57.01091 28.7366812,57.3732458 27.12,57.552 L27.072,57.552 C27,57.564 26.9208,57.5712 26.832,57.5784 C26.7144,57.7776 26.592,57.9768 26.472,58.1784 L26.4408,58.2264 C26.3472,58.3704 26.2536,58.5168 26.1624,58.6632 L25.9872,58.9392 L26.6328,58.9104 C26.840812,58.9058619 27.048374,58.8890326 27.2544,58.86 C28.9609246,58.6704492 30.640453,58.2880063 32.2608,57.72 C33.9408,57.1656 35.5872,56.4768 37.1784,55.8 C38.6184,55.1928 40.116,54.5664 41.6112,54.0552 C43.1359834,53.5035622 44.7205426,53.1338049 46.332,52.9536 C47.9255997,52.8025918 49.5333118,52.928448 51.084,53.3256 C53.4624,53.9472 56.4072,55.5384 58.572,59.8296 C58.6344,59.9544 58.692,60.0864 58.752,60.216 C58.68,59.232 58.5888,58.2888 58.4832,57.384 L58.4832,57.384 Z" id="Shape"></path>
                        <path d="M2.7288,56.9616 C1.95634599,57.0445497 1.18942702,57.1727702 0.432,57.3456 L0.72,58.6344 C1.42759999,58.4733871 2.14402824,58.3539823 2.8656,58.2768 C5.3736,58.02 8.1648,58.2768 11.6496,59.0592 L12.1296,59.1744 C12.6023031,58.9608877 13.0587252,58.713024 13.4952,58.4328 C13.5984,58.3656 13.7016,58.2936 13.8048,58.224 C13.1784,58.0656 12.5544,57.912 11.9328,57.7704 C8.3088,56.9448 5.3832,56.688 2.7288,56.9616 L2.7288,56.9616 Z" id="Shape"></path>
                        <path d="M47.5992,54.5568 L47.5056,54.5568 C47.1856,54.576 46.8592,54.592 46.5264,54.6048 L46.488,54.6048 C45.0077549,54.775577 43.5523843,55.117875 42.1512,55.6248 C40.776,56.0928 39.396,56.6712 37.9344,57.2856 C36.2952,57.9744 34.5984,58.6848 32.7768,59.292 C32.0568,59.532 31.236,59.772 30.1752,60.036 L28.8,60.3216 L27.36,60.5136 C27.1570137,60.540614 26.9527158,60.5566374 26.748,60.5616 L25.9776,60.5976 L25.7112,60.5976 C25.5624,60.5976 25.4184,60.612 25.2696,60.5976 L25.0128,60.5976 L24.828,60.5976 L24.3816,61.2 C24.2136,61.4208 24.036,61.6392 23.856,61.8576 C24.048,61.8744 24.24,61.8912 24.4272,61.9032 C24.6144,61.9152 24.8112,61.9248 24.996,61.9272 L25.236,61.9272 L25.7952,61.9272 L26.0352,61.9272 L26.82,61.8912 C27.0689737,61.8843635 27.3173658,61.8635306 27.564,61.8288 L29.004,61.6368 L29.052,61.6368 L30.4512,61.3464 L30.4752,61.3464 C31.5816,61.0752 32.448,60.8256 33.1968,60.5664 C35.0592,59.9472 36.78,59.2248 38.4408,58.5288 C39.8808,57.924 41.2392,57.3528 42.5736,56.9016 C43.8722952,56.4283103 45.2211849,56.1061874 46.5936,55.9416 C46.9136,55.9288 47.2336,55.9128 47.5536,55.8936 C53.136,55.8576 57.1752,60.024 57.1752,67.6536 L57.1752,81.348 L58.4952,81.348 L58.4952,67.6368 C58.5048,59.2656 54,54.5568 47.5992,54.5568 L47.5992,54.5568 Z" id="Shape"></path>
                        <path d="M11.244,32.4288 C11.4624,32.6232 11.6904,32.8248 11.9232,32.9976 L13.1736,33.984 L13.2,34.008 L13.9584,34.536 C14.4744,34.92 15.0096,35.256 15.5256,35.5608 C15.7176,35.6784 15.9096,35.8008 16.1016,35.916 L16.1304,35.9328 C17.582111,36.7559306 19.1150675,37.4266996 20.7048,37.9344 C22.2828117,38.426908 23.9163555,38.7195913 25.5672,38.8056 C27.2524666,38.8843258 28.9413613,38.789426 30.6072,38.5224 C32.4432,38.2464 34.2528,37.8024 35.7792,37.4208 L36.0456,37.3512 C36.0152,36.9144 36,36.464 36,36 L35.472,36.1368 C33.9768,36.5184 32.2056,36.9432 30.432,37.212 C28.854224,37.4650239 27.2546074,37.5550978 25.6584,37.4808 C24.1167329,37.4005502 22.5912223,37.1272162 21.1176,36.6672 C19.6180748,36.1947827 18.171231,35.5690771 16.8,34.8 L16.224,34.4448 C15.7104,34.1304 15.2232,33.8352 14.7408,33.4848 L13.98,32.9544 L12.72,31.9512 C12.5184,31.8024 12.3216,31.6272 12.1152,31.4424 L11.8344,31.2 L11.52,30.9168 L10.6512,31.92 L10.968,32.1984 L11.244,32.4288 Z" id="Shape"></path>
                        <path d="M47.1984,35.3304 L47.5944,35.3304 L47.8344,35.3304 L48.8064,35.3928 C48.96,35.3928 49.1256,35.4264 49.3008,35.4528 L49.5696,35.4912 L49.8576,35.5344 C50.0352,35.5584 50.2008,35.5824 50.3544,35.616 L51.5712,35.9016 L51.9312,36.0096 C52.2216,36.0936 52.4424,36.1632 52.6512,36.2376 C52.86,36.312 53.1312,36.3984 53.3712,36.4944 C54.3661596,36.8608713 55.3260464,37.3163155 56.2392,37.8552 C57.1828168,38.4195195 58.0561244,39.0938355 58.8408,39.864 C59.9236273,40.9925803 60.8590783,42.2538263 61.6248,43.6176 C61.5264,42.8376 61.4064,42.0792 61.2648,41.3424 C61.2096,41.0496 61.1472,40.7568 61.0824,40.464 C60.6761846,39.9220104 60.2292931,39.4117357 59.7456,38.9376 C58.8959629,38.0902053 57.9494374,37.3458738 56.9256,36.72 C55.9475016,36.1423272 54.9193454,35.653953 53.8536,35.2608 C53.5824,35.1552 53.3232,35.0688 53.0784,34.9872 C52.8336,34.9056 52.5984,34.8312 52.3008,34.7472 L51.9264,34.6368 L51.8928,34.6368 L50.6448,34.344 C50.4336,34.296 50.232,34.2672 50.0352,34.2408 L49.752,34.2 L49.4904,34.164 C49.2936,34.1352 49.0896,34.104 48.8808,34.092 L47.9208,34.0296 C47.8176,34.0296 47.7144,34.0176 47.604,34.0152 L47.1768,34.0152 C46.6536,34.0152 46.1232,34.0368 45.5808,34.0728 C45.5616,34.5352 45.5536,34.9768 45.5568,35.3976 C46.1088,35.3568 46.6488,35.3328 47.1792,35.3328 L47.2008,35.3328 L47.1984,35.3304 Z" id="Shape"></path>
                        <path d="M9.312,34.6848 C9.552,34.8936 9.792,35.112 10.0488,35.3016 L11.4072,36.3696 L11.436,36.3912 L12.2712,36.9744 C12.852,37.404 13.4712,37.7784 14.0616,38.1408 L14.64,38.496 L14.6664,38.5104 C16.3079298,39.4424364 18.0420891,40.20093 19.8408,40.7736 C21.6523655,41.3395831 23.5278406,41.675814 25.4232,41.7744 C27.3081274,41.8641083 29.1972828,41.7595573 31.0608,41.4624 C32.8627321,41.1710758 34.648964,40.7897994 36.4128,40.32 C36.3376,39.8848 36.2728,39.4472 36.2184,39.0072 C34.4522825,39.4769767 32.6636144,39.8574591 30.8592,40.1472 C29.0837166,40.430085 27.2838672,40.5298085 25.488,40.4448 C23.7026349,40.3516979 21.936021,40.0348201 20.2296,39.5016 C18.5228016,38.9576581 16.8771604,38.2377906 15.3192,37.3536 L14.7456,37.0008 C14.1504,36.6384 13.5864,36.2952 13.0392,35.8896 L12.2064,35.3064 L10.8528,34.2408 C10.6272,34.0728 10.4136,33.8832 10.188,33.6816 L9.8856,33.4176 L8.8944,32.5464 L8.0232,33.5376 L9.0192,34.4136 L9.312,34.6848 Z" id="Shape"></path>
                        <path d="M61.968,49.7736 L61.9488,48.5568 C61.1784,45.6768 59.5632,42.7488 57.7272,41.0184 C56.3086897,39.7090153 54.6400506,38.6999948 52.8216,38.052 C52.596,37.9632 52.3704,37.8888 52.1448,37.812 C51.9192,37.7352 51.732,37.6752 51.4584,37.596 L51.1272,37.4976 L51.0888,37.4976 L50.0784,37.2576 C49.9032,37.2168 49.7376,37.1952 49.5792,37.1736 L49.356,37.1424 L49.3296,37.1424 L49.1088,37.1112 C48.942773,37.0823828 48.7753397,37.0623549 48.6072,37.0512 L47.7984,36.9984 C47.7096,36.9984 47.6232,36.9864 47.5248,36.9864 L47.184,36.9864 C46.68,36.9864 46.1616,37.008 45.6312,37.0488 C45.668,37.4888 45.72,37.9256 45.7872,38.3592 C46.2672,38.3232 46.7184,38.3064 47.1648,38.3064 L47.52,38.3064 L47.7,38.3064 L47.8272,38.3064 L48.5256,38.352 C48.6408,38.352 48.7656,38.3784 48.9,38.3976 L49.14,38.4336 L49.38,38.4696 C49.5144,38.4888 49.644,38.5056 49.7568,38.532 L50.7456,38.772 L51.0624,38.8656 C51.3192,38.94 51.5112,39 51.6888,39.0624 L51.7152,39.0624 C51.924,39.132 52.1232,39.1968 52.3272,39.2784 C53.9839392,39.8653011 55.5048381,40.7812692 56.7984,41.9712 C59.4384,44.4696 60.9264,48.7728 61.9488,52.9248 L61.9488,51.3648 L61.9488,50.7792 C61.9704,50.4456 61.9728,50.1024 61.968,49.7736 L61.968,49.7736 Z" id="Shape"></path>
                        <path d="M31.3008,43.0944 C29.3273695,43.4048829 27.3275189,43.5142434 25.332,43.4208 C23.3013968,43.316252 21.2920162,42.9566277 19.3512,42.3504 C17.4324218,41.7454029 15.5823201,40.9410108 13.8312,39.9504 L13.2864,39.6 C12.6336,39.204 11.9592,38.7936 11.3424,38.3376 L10.4352,37.7016 L8.9784,36.5544 C8.7384,36.3672 8.4984,36.1632 8.2584,35.9472 L7.944,35.6712 L7.3584,35.1576 L6.48,36.1512 L7.0704,36.6696 L7.3752,36.9384 C7.6296,37.1616 7.8912,37.3944 8.1672,37.6032 L9.6312,38.7552 L9.6576,38.7744 L10.5672,39.4128 C11.22,39.8928 11.9184,40.32 12.5952,40.7304 L13.1568,41.0736 L13.1808,41.088 C15.0136241,42.1287191 16.9506396,42.9741524 18.96,43.6104 C21.0052299,44.2490201 23.1226311,44.6279914 25.2624,44.7384 C27.3485737,44.8363286 29.4392998,44.7221428 31.5024,44.3976 C33.444,44.1048 35.2896,43.6776 37.0776,43.224 C36.9576,42.8032 36.8472,42.3776 36.7464,41.9472 C34.9896,42.3936 33.1848,42.8112 31.3008,43.0944 L31.3008,43.0944 Z" id="Shape"></path>
                        <path d="M60,51.72 C59.9712,51.6072 59.9424,51.4944 59.9136,51.3792 C59.8392,51.0816 59.7624,50.7744 59.6736,50.484 L59.5008,49.884 L59.5008,49.8576 L59.3112,49.2888 C59.2224,49.0032 59.1216,48.7368 59.0208,48.48 C58.9752,48.36 58.9272,48.24 58.8744,48.096 C58.8216,47.952 58.7736,47.856 58.7232,47.7384 L58.6392,47.5416 C58.5456,47.3184 58.4592,47.1264 58.38,46.9752 C57.7272013,45.5557807 56.8175007,44.2693436 55.6968,43.1808 C54.5653374,42.1426011 53.2354346,41.3441695 51.7872,40.8336 C51.6,40.7592 51.4104,40.6968 51.2256,40.6344 L51.2112,40.6344 C50.9928,40.5576 50.7744,40.4928 50.6136,40.4472 L50.3256,40.3608 L50.2824,40.3608 L49.5144,40.1832 C49.3821809,40.1532256 49.2483651,40.1307894 49.1136,40.116 L48.936,40.092 L48.9024,40.092 L48.732,40.0656 C48.5995238,40.0413096 48.4656656,40.0252787 48.3312,40.0176 L47.688,39.9768 L47.448,39.9768 L47.172,39.9768 C46.8296,39.9768 46.4768,39.988 46.1136,40.0104 C46.224,40.4568 46.3536,40.8912 46.488,41.3136 C46.728,41.3136 46.9536,41.2968 47.1768,41.2968 L47.4528,41.2968 L47.58,41.2968 L47.6928,41.2968 L48.2616,41.3328 C48.347795,41.3388535 48.4335491,41.3500736 48.5184,41.3664 L48.732,41.3976 L48.9456,41.4288 C49.032669,41.4377427 49.119194,41.4513624 49.2048,41.4696 L49.968,41.6472 L50.2392,41.7288 C50.388,41.772 50.5848,41.8296 50.7816,41.8992 L50.808,41.8992 C50.9808,41.9568 51.144,42.0096 51.3096,42.0768 C52.5968634,42.5273592 53.779756,43.2335028 54.7872,44.1528 C55.7909304,45.1353216 56.6045753,46.2947656 57.1872,47.5728 C57.2592,47.7096 57.3312,47.8704 57.4104,48.0528 L57.504,48.2688 C57.5496,48.3744 57.5976,48.48 57.6336,48.5712 C57.6816,48.7008 57.7296,48.8304 57.78,48.9576 C57.876,49.1976 57.9648,49.4376 58.044,49.6944 L58.2336,50.2656 L58.4064,50.8632 C58.488,51.1296 58.5576,51.4056 58.632,51.6984 C58.6608,51.816 58.6896,51.9384 58.7184,52.0392 C59.1106815,53.6922457 59.4040025,55.3672207 59.5968,57.0552 C59.989406,60.5700267 60.173728,64.1050021 60.1488,67.6416 L60.1488,81.3216 L61.4688,81.3216 L61.4688,67.6416 C61.4937185,64.0528558 61.3061905,60.4657828 60.9072,56.8992 C60.7082443,55.1562693 60.4053043,53.4267863 60,51.72 L60,51.72 Z" id="Shape"></path>
                        <path d="M64.4088,47.0808 C0.024,3.55271368e-15 64.4088,47.0616 64.4088,47.0544 L64.308,45.36 C64.1918165,43.8603422 63.9915011,42.368393 63.708,40.8912 L63.6,40.32 C63.576,40.2 63.5472,40.08 63.5184,39.9624 L63.4728,39.7632 C63.4416,39.6312 63.4104,39.5016 63.3816,39.3696 C63.3288,39.1296 63.276,38.9064 63.2136,38.6664 L62.9208,37.6128 C62.856,37.3728 62.7792,37.1328 62.7024,36.8928 C62.6616,36.7704 62.6208,36.6528 62.58,36.5112 C62.1134622,35.0776505 61.5629092,33.6728188 60.9312,32.304 C60.4392,31.2312 59.8992,30.1728 59.3304,29.1144 C58.9776,29.4648 58.6632,29.8008 58.3704,30.1296 C58.8504,31.0368 59.3064,31.944 59.7264,32.8584 C60.3357436,34.1772653 60.8670594,35.5307982 61.3176,36.912 C61.3584,37.044 61.4016,37.176 61.4448,37.308 C61.5168,37.5264 61.584,37.7328 61.6416,37.9488 L61.9344,39 C61.9896,39.2184 62.04,39.4368 62.0904,39.6576 C62.1216,39.792 62.1528,39.9288 62.184,40.056 L62.232,40.2576 C62.2584,40.3656 62.2824,40.4736 62.304,40.5672 L62.4072,41.1216 C62.6804569,42.5496794 62.873559,43.9919356 62.9856,45.4416 L63.084,47.1072 L63.1152,48.7872 L63.1152,49.5288 L63.1152,49.956 L63.1152,81.3288 L64.4352,81.3288 L64.4352,49.9656 L64.4352,49.5432 L64.4352,48.7704 L64.4088,47.0808 Z" id="Shape"></path>
                        <path d="M66.624,40.32 L66.5112,39.72 C66.4848,39.588 66.4536,39.4584 66.4224,39.3264 L66.3744,39.12 C66.3432,38.9856 66.312,38.8488 66.2808,38.7144 C66.2208,38.4576 66.1632,38.1984 66.0936,37.932 L65.7768,36.7872 C65.7072,36.5184 65.6208,36.2592 65.5368,36.0096 C65.4936,35.88 65.4504,35.748 65.4072,35.6064 C64.9042097,34.0652894 64.3120097,32.5547387 63.6336,31.0824 C63.012,29.7288 62.3232,28.3992 61.608,27.0936 C61.3488,27.3072 61.0944,27.5208 60.8544,27.7296 L60.5832,27.9696 C61.2384,29.1696 61.8672,30.396 62.436,31.6344 C63.0911459,33.0552361 63.6633072,34.5128852 64.1496,36 C64.1928,36.1392 64.2384,36.276 64.2816,36.4128 C64.3608,36.6528 64.4352,36.8928 64.5,37.1328 L64.8168,38.2752 C64.8792,38.5152 64.9368,38.7552 64.992,39.012 C65.0232,39.1512 65.0568,39.2904 65.088,39.4224 L65.136,39.6336 C65.1648,39.7536 65.1936,39.8736 65.2152,39.9816 L65.328,40.5792 C65.6220407,42.1184503 65.8303616,43.6728442 65.952,45.2352 C66.0552,46.692 66.1032,48.24 66.096,49.9728 L66.096,81.3288 L67.416,81.3288 L67.416,49.9728 C67.416,48.2112 67.3752,46.6296 67.2696,45.1272 C67.143844,43.5140537 66.92831,41.9091667 66.624,40.32 L66.624,40.32 Z" id="Shape"></path>
                        <path d="M70.3824,48.7464 L70.3464,46.848 C0.024,3.55271368e-15 70.3464,46.8312 70.3464,46.824 L70.2336,44.904 C70.099129,43.1788637 69.8683694,41.4625886 69.5424,39.7632 L69.4176,39.12 C69.3888,38.976 69.3552,38.832 69.3216,38.6904 L69.2712,38.4744 C69.2376,38.3376 69.2064,38.1984 69.1752,38.0616 C69.1104,37.776 69.0432,37.4904 68.9688,37.1976 L68.6256,35.9616 C68.5488,35.6712 68.4576,35.3904 68.3688,35.1192 C68.3232,34.98 68.2776,34.8432 68.232,34.6944 C67.6937128,33.045314 67.0598396,31.4289774 66.3336,29.8536 C65.5944,28.2456 64.7856,26.7072 63.96,25.2144 L63.5472,25.5432 L62.9112,26.0472 C63.6888,27.456 64.4448,28.9032 65.1336,30.4056 C65.8365986,31.9311032 66.4504316,33.4961367 66.972,35.0928 C67.0176,35.2392 67.0632,35.3832 67.1112,35.5272 C67.1976,35.7936 67.2792,36.0432 67.3512,36.3048 L67.692,37.5384 C67.7616,37.8096 67.824,38.0832 67.8888,38.3568 C67.9224,38.4984 67.9536,38.6376 67.9848,38.772 L68.0352,38.9904 C68.0664,39.1224 68.0976,39.2568 68.124,39.3768 L68.244,40.0176 C68.5595612,41.6654817 68.7831073,43.3296583 68.9136,45.0024 L69.0264,46.8936 L69.0624,48.78 L69.0624,49.5456 L69.0624,49.9752 L69.0624,81.3288 L70.3824,81.3288 L70.3824,49.9656 L70.3824,49.5408 C70.3872,49.284 70.3872,49.0248 70.3824,48.7464 L70.3824,48.7464 Z" id="Shape"></path>
                        <path d="M83.6088,18.1848 C83.8248,19.0848 84.0888,19.9872 84.3672,20.8824 C84.7776,20.6904 85.1784,20.4984 85.5672,20.3088 C85.3272,19.4976 85.0872,18.6816 84.888,17.8752 C84.5317243,16.4570081 84.2909366,15.0122818 84.168,13.5552 C83.9557456,10.585126 84.1617584,7.5999597 84.78,4.6872 C84.8808,4.1448 85.02,3.588 85.1328,3.0672 L83.8488,2.7624 C83.7216,3.3 83.5872,3.8736 83.484,4.4424 C82.8425655,7.47204977 82.6300876,10.5768114 82.8528,13.6656 C82.9823233,15.1899468 83.2351506,16.7012922 83.6088,18.1848 L83.6088,18.1848 Z" id="Shape"></path>
                        <path d="M80.724,18.888 C80.9904,19.992 81.3144,21.072 81.648,22.1328 L82.4784,21.7536 L82.524,21.732 L82.8576,21.5784 C82.548,20.5896 82.2504,19.5888 82.0056,18.576 C81.6131393,17.0048353 81.3490694,15.4043629 81.216,13.7904 C80.9808719,10.5458289 81.203046,7.28431267 81.876,4.1016 C81.9984,3.4416 82.1592,2.7672 82.3128,2.1168 L82.4448,1.5552 L81.1584,1.2552 L81.0264,1.812 C80.868,2.4792 80.7024,3.168 80.5776,3.852 C79.8816694,7.15244467 79.6530335,10.5343177 79.8984,13.8984 C80.0381242,15.581201 80.314231,17.2498817 80.724,18.888 L80.724,18.888 Z" id="Shape"></path>
                        <path d="M79.1616,43.5336 C79.5504,43.1256 79.9416,42.72 80.3232,42.3072 C80.9208,41.664 81.4752,41.016 81.9792,40.3704 C82.5005711,39.6870354 82.9691267,38.9649463 83.3808,38.2104 C84.1857942,36.6722215 84.7138455,35.0043915 84.9408,33.2832 C85.0328397,32.5581377 85.0753383,31.8276439 85.068,31.0968 C84.612,31.308 84.168,31.5144 83.7408,31.716 C83.7264,32.196 83.6904,32.6592 83.6328,33.1056 C83.427192,34.6714378 82.9478967,36.1889356 82.2168,37.5888 C81.8386217,38.2811044 81.4085938,38.9437966 80.9304,39.5712 C80.4504,40.176 79.9272,40.7952 79.3536,41.412 C78.9744,41.82 78.5904,42.2232 78.2064,42.624 C77.4576,43.4088 76.6728,44.2128 75.9624,45.0648 C73.9724267,47.431528 72.4692872,50.1678454 71.5392,53.1168 L71.5392,56.9352 C72.7392,52.536 74.2968,49.044 76.968,45.9216 C77.664,45.1008 78.4248,44.304 79.1616,43.5336 L79.1616,43.5336 Z" id="Shape"></path>
                        <path d="M77.8392,19.5936 C78.1584,20.9184 78.5424,22.1784 78.9336,23.4024 C79.3352,23.2088 79.7352,23.0184 80.1336,22.8312 C79.7688,21.684 79.4136,20.5056 79.116,19.2816 C78.6873174,17.5587931 78.3975873,15.8043614 78.2496,14.0352 C77.9926121,10.5168156 78.2317544,6.97977201 78.96,3.528 C79.0824,2.8752 79.2312,2.2344 79.3872,1.5816 L78.1032,1.2768 C77.9448,1.9464 77.7888,2.604 77.664,3.276 C76.9156722,6.84672571 76.673298,10.5049591 76.944,14.1432 C77.096191,15.9810129 77.395551,17.8036575 77.8392,19.5936 L77.8392,19.5936 Z" id="Shape"></path>
                        <path d="M78.2064,40.2888 C78.7464,39.7056 79.2288,39.1464 79.6872,38.5608 C80.1130845,38.0019129 80.495791,37.4114056 80.832,36.7944 C81.1498398,36.1947378 81.4102011,35.5663349 81.6096,34.9176 C81.816505,34.2528268 81.9682194,33.5721186 82.0632,32.8824 C82.0776,32.7696 82.0896,32.6544 82.1016,32.5416 C81.6008,32.7928 81.1208,33.044 80.6616,33.2952 C80.5875349,33.7093441 80.4865202,34.118213 80.3592,34.5192 L80.3592,34.5432 C80.1840015,35.1113418 79.9557982,35.6617617 79.6776,36.1872 C79.3765197,36.7359875 79.034764,37.2614569 78.6552,37.7592 C78.228,38.3016 77.7696,38.8368 77.2536,39.3936 C76.9032,39.7704 76.5336,40.1544 76.1592,40.5504 C73.6152,43.2096 72.0792,45.4272 71.5152,46.9464 C71.5392,47.5176 71.5512,48.8664 71.5536,49.548 C72.8328,46.5024 73.968,44.748 77.112,41.4624 C77.4816,41.0616 77.8536,40.6704 78.2064,40.2888 L78.2064,40.2888 Z" id="Shape"></path>
                        <path d="M88.0344,30.5712 C88.0224,30.3024 88.0032,30.0312 87.9792,29.7576 L86.6976,30.348 C86.6976,30.4392 86.712,30.5304 86.7144,30.6216 C86.7464241,31.5837175 86.7006753,32.5468497 86.5776,33.5016 C86.4470251,34.456707 86.2366901,35.3992008 85.9488,36.3192 C85.6630845,37.2436471 85.2902101,38.138867 84.8352,38.9928 C84.3810128,39.831554 83.8626687,40.6339442 83.2848,41.3928 C82.7568,42.0696 82.1664,42.7584 81.5328,43.4424 C81.1248,43.8816 80.7216,44.3016 80.3328,44.712 C79.5792,45.5016 78.864,46.248 78.2184,47.0112 C77.2302702,48.1443241 76.3594277,49.3746002 75.6192,50.6832 C74.8925105,51.9979942 74.2937623,53.3795354 73.8312,54.8088 C73.3677895,56.2724744 73.0061272,57.7664364 72.7488,59.28 C72.2434105,62.4150282 72.0025618,65.5870053 72.0288,68.7624 L72.0288,81.3216 L73.3488,81.3216 L73.3488,68.7696 C73.3231031,65.6722199 73.5575266,62.578151 74.0496,59.52 C74.2957202,58.0577087 74.6429532,56.614246 75.0888,55.2 C75.5231303,53.8517011 76.085703,52.5481396 76.7688,51.3072 C77.4667916,50.0746573 78.2877779,48.9159489 79.2192,47.8488 C79.8408,47.1144 80.5416,46.3824 81.2808,45.6072 C81.6768,45.1944 82.0824,44.7672 82.4952,44.3232 C83.1552,43.6032 83.7696,42.8832 84.3288,42.1776 C84.9546696,41.3623341 85.5163544,40.4997466 86.0088,39.5976 C86.4996598,38.671359 86.901463,37.7006025 87.2088,36.6984 C87.5174163,35.711755 87.7430019,34.7010348 87.8832,33.6768 C88.0171202,32.6473582 88.0676845,31.6087824 88.0344,30.5712 L88.0344,30.5712 Z" id="Shape"></path>
                        <path d="M87.6,49.1064 C87.9408,49.068 88.284,49.0296 88.608,49.0032 L89.088,48.9744 C89.4,48.9528 89.6928,48.9336 89.9856,48.9264 L90.6792,48.912 L91.3392,48.912 L91.776,48.9264 C92.0976,48.9264 92.4192,48.9432 92.736,48.9624 C94.5613008,49.0899228 96.3693969,49.3986417 98.1336,49.884 C99.8532459,50.3578114 101.537408,50.9520799 103.1736,51.6624 C106.0032,52.8624 108.6384,54.3024 111.1872,55.6992 L112.3296,56.3208 C115.2816,57.9216 118.1736,59.4408 121.0896,60.5064 C124.2096,61.6488 127.2312,62.1648 130.0776,62.0448 L130.5048,62.0184 C130.7448,62.004 130.9848,61.992 131.2512,61.9632 L131.9712,61.872 L131.8032,60.5616 L131.1024,60.6504 C130.8888,60.6744 130.6704,60.6864 130.44,60.6984 L130.008,60.7248 C127.368,60.8376 124.512,60.3456 121.5504,59.2632 C118.7184,58.236 115.8744,56.736 112.968,55.1592 L111.828,54.5376 C109.2528,53.1336 106.5888,51.6816 103.7016,50.4576 C102.006189,49.7227739 100.261059,49.1084495 98.4792,48.6192 C96.6293133,48.1122755 94.7335734,47.7906911 92.82,47.6592 C92.4864,47.64 92.1504,47.6304 91.8144,47.6208 L91.392,47.6088 L90.648,47.6088 L89.9544,47.6232 C89.6328,47.6232 89.3088,47.652 88.9944,47.6736 L88.5144,47.7048 C88.1616,47.7336 87.8064,47.772 87.4536,47.8128 L87.084,47.8536 C83.04,48.372 80.16,49.6992 78.288,51.024 L78.288,51.024 L78.144,51.264 C77.9544,51.576 77.7768,51.8712 77.6328,52.1568 L77.5896,52.236 C77.4552,52.476 77.328,52.7424 77.1936,53.028 C77.1312,53.16 77.0712,53.2896 77.0064,53.4192 C76.9656,53.5128 76.9272,53.6064 76.8888,53.7024 C79.3128,51.5184 82.4664,49.7736 87.252,49.1424 L87.6,49.1064 Z" id="Shape"></path>
                        <path d="M87.6432,52.08 C89.2660354,51.8766734 90.9041174,51.8228473 92.5368,51.9192 C95.4816,52.1112 98.5824,52.9176 102.012,54.3864 C104.7,55.5336 107.3232,56.964 109.86,58.3464 L110.9184,58.9224 C114.0936,60.6432 116.976,62.1576 120.0816,63.288 C121.692263,63.8842949 123.351157,64.3411733 125.04,64.6536 C126.745878,64.9605302 128.48005,65.0812383 130.212,65.0136 L130.6656,64.9848 C130.9536,64.968 131.2512,64.9512 131.5656,64.9176 L132.8736,64.7496 L132.7056,63.4416 L131.4072,63.6072 C131.1408,63.636 130.8744,63.6528 130.5912,63.6672 L130.1376,63.696 C128.507017,63.7610361 126.874198,63.6483724 125.268,63.36 C123.655446,63.0641927 122.071239,62.6306032 120.5328,62.064 C117.5136,60.9648 114.6768,59.472 111.5496,57.7776 L110.4936,57.2016 C107.9304,55.8024 105.2784,54.3576 102.5328,53.1864 C98.964,51.6576 95.724,50.8176 92.6208,50.616 C90.9040059,50.5147151 89.1815319,50.571756 87.4752,50.7864 C81.6864,51.5544 78.1728,53.9376 75.7392,57.132 C75.5184,57.9888 75.3288,58.8936 75.1656,59.856 C75.1392,60.0288 75.1128,60.1992 75.084,60.3672 L75.084,60.3864 C77.46,56.0472 81.36,52.9248 87.6432,52.08 L87.6432,52.08 Z" id="Shape"></path>
                        <path d="M131.7048,66.5616 C131.3856,66.5976 131.0664,66.6144 130.728,66.6336 L130.248,66.6624 C128.399511,66.735481 126.548565,66.6067195 124.728,66.2784 C122.946837,65.9487921 121.197226,65.4670266 119.4984,64.8384 C116.0376,63.576 112.8888,61.8744 110.112,60.372 L109.152,59.8512 C106.476,58.392 103.9464,57.012 101.3424,55.9032 C98.0856,54.5088 95.1648,53.7432 92.4024,53.5656 C92.1768,53.5536 91.9536,53.5464 91.728,53.5392 L91.308,53.5272 L90.6984,53.5272 L90.1344,53.5272 C89.8944,53.5272 89.6376,53.5488 89.4024,53.5656 L88.9728,53.592 C88.7328,53.6112 88.4928,53.6376 88.2528,53.664 L87.8448,53.7072 C86.3671873,53.896554 84.9171306,54.2598737 83.5248,54.7896 C78.0312,57.0024 74.9952,61.6416 74.9952,67.3128 L74.9952,81.312 L76.32,81.312 L76.32,67.3296 C76.32,62.2704 78.8352,58.1232 84.0144,56.0352 C85.3001747,55.5464022 86.6389676,55.2104957 88.0032,55.0344 L88.4016,54.9912 C88.6416,54.9672 88.8624,54.9408 89.0736,54.924 L89.5056,54.8976 C89.7456,54.8808 89.9544,54.8664 90.1752,54.864 L90.744,54.864 L91.2576,54.864 L91.7064,54.8784 C91.9176,54.8784 92.1288,54.8784 92.3376,54.9024 C94.9416,55.0704 97.7232,55.8024 100.8408,57.1368 C103.3896,58.2216 105.8808,59.5872 108.5376,61.0296 L109.4976,61.5528 C112.3152,63.0768 115.4976,64.8048 119.0616,66.1008 C120.831725,66.7516237 122.654403,67.2494475 124.5096,67.5888 C126.426467,67.9296533 128.374743,68.060826 130.32,67.98 L130.8,67.9512 C131.1408,67.932 131.4936,67.9104 131.8584,67.872 L132.7632,67.7568 L132.5952,66.4464 L131.7048,66.5616 Z" id="Shape"></path>
                    </g>
                </g>
                <g id="_Wordmark_Spanish_Black-3" transform="translate(168.770000, 2.680000)">
                    <g id="_Wordmark_Spanish_Black">
                        <path d="M149.5683,74.6739 L149.6943,74.6739 L149.6943,78.3594 L155.9124,78.3594 L155.9124,76.041 L152.46,76.041 L152.46,47.88 L146.0907,47.88 L146.0907,50.1984 L149.5746,50.1984 L149.5746,53.9784 C149.5746,55.0557 149.5746,59.283 149.7006,61.3116 L149.5746,61.3116 C148.2453,58.5333 145.719,57.1662 142.5312,57.1662 C137.3526,57.1662 133.2072,61.4376 133.2072,67.9833 C133.2072,74.655 137.2266,78.8445 142.4052,78.8445 C145.5993,78.8445 148.2516,77.4774 149.5746,74.6613 L149.5683,74.6739 Z M149.5746,68.1975 C149.5746,73.3383 146.5884,76.3182 142.9029,76.3182 C139.2174,76.3182 136.2312,73.2123 136.2312,67.9896 C136.2312,62.7669 139.1733,59.661 142.9029,59.661 C146.6325,59.661 149.5746,62.7291 149.5746,67.9896 L149.5746,68.1975 L149.5746,68.1975 Z M121.9302,76.041 L121.9302,78.3594 L131.418,78.3594 L131.418,76.041 L128.0601,76.041 L128.0601,65.6838 C128.0601,59.4279 124.7022,57.1851 120.645,57.1851 C117.7029,57.1851 115.1766,58.4451 113.9292,61.0407 L113.8032,61.0407 L113.8032,57.6387 L107.73,57.6387 L107.73,59.9571 L111.0879,59.9571 L111.0879,76.041 L107.73,76.041 L107.73,78.3594 L117.18,78.3594 L117.18,76.041 L113.904,76.041 L113.904,67.5864 C113.904,62.5464 116.6004,59.6736 120.0339,59.6736 C123.1398,59.6736 125.1747,61.3746 125.1747,66.0555 L125.1747,76.041 L121.8987,76.041 L121.9302,76.041 Z M94.5315,57.1851 C89.6427,57.1851 86.5305,60.0453 86.4486,64.4805 L89.1828,64.4805 C89.3088,61.2486 91.3374,59.5476 94.5315,59.5476 C97.7256,59.5476 99.3825,61.2864 99.4644,64.4805 C99.4644,65.5578 98.8029,65.8917 96.6861,66.2193 L92.2131,67.0068 C87.6519,67.7502 85.6233,69.741 85.6233,73.143 C85.6233,76.545 88.1118,78.8634 92.421,78.8634 C95.7348,78.8634 98.3493,77.4963 99.5085,75.0519 L99.6723,75.0519 L99.6723,78.3657 L105.6006,78.3657 L105.6006,76.041 L102.3687,76.041 L102.3687,64.701 C102.3687,59.9319 99.6345,57.141 94.5378,57.141 L94.5315,57.1851 Z M99.4707,67.221 L99.4707,69.5016 C99.4707,74.3526 96.4026,76.4316 92.9628,76.4316 C90.0207,76.4316 88.5528,74.9826 88.5528,72.8658 C88.5528,70.749 89.8128,69.4701 92.7801,69.0102 L97.1334,68.2668 C98.017657,68.209946 98.853839,67.8442558 99.4959,67.2336 L99.4707,67.221 Z M80.5266,47.88 L74.1825,47.88 L74.1825,50.1984 L77.6664,50.1984 L77.6664,76.0284 L74.1825,76.0284 L74.1825,78.3468 L84.0042,78.3468 L84.0042,76.041 L80.5203,76.041 L80.5203,47.88 L80.5266,47.88 Z M72.8154,76.041 L69.93,76.041 L63.0945,67.5864 L69.9741,59.9634 L72.5445,59.9634 L72.5445,57.6387 L63.3465,57.6387 L63.3465,59.9193 L66.5406,59.9193 L59.724,67.6683 L59.724,67.7502 L68.1786,78.3594 L72.8217,78.3594 L72.8217,76.041 L72.8154,76.041 Z M58.3128,47.88 L52.0947,47.88 L52.0947,50.1984 L55.44,50.1984 L55.44,76.0284 L52.0947,76.0284 L52.0947,78.3468 L61.5888,78.3468 L61.5888,76.041 L58.3128,76.041 L58.3128,47.88 L58.3128,47.88 Z M39.123,57.1851 C34.2342,57.1851 31.122,60.0453 31.0401,64.4805 L33.7743,64.4805 C33.9003,61.2486 35.9289,59.5476 39.123,59.5476 C42.3171,59.5476 43.974,61.2864 44.0559,64.4805 C44.0559,65.5578 43.3944,65.8917 41.2776,66.2193 L36.8046,67.0068 C32.2434,67.7502 30.24,69.741 30.24,73.143 C30.24,76.545 32.7285,78.8634 37.0377,78.8634 C40.3515,78.8634 42.966,77.4963 44.1252,75.0519 L44.289,75.0519 L44.289,78.3657 L50.2173,78.3657 L50.2173,76.041 L46.9539,76.041 L46.9539,64.701 C46.9539,59.9319 44.2197,57.141 39.123,57.141 L39.123,57.1851 Z M44.0559,67.221 L44.0559,69.5016 C44.0559,74.3526 40.9878,76.4316 37.548,76.4316 C34.6059,76.4316 33.138,74.9826 33.138,72.8658 C33.138,70.749 34.398,69.4701 37.3653,69.0102 L41.7186,68.2668 C42.602857,68.209946 43.439039,67.8442558 44.0811,67.2336 L44.0559,67.221 Z M13.86,51.3387 C20.2419,51.3387 24.57,56.5173 24.57,63.7749 C24.57,71.0325 20.223,76.23 13.86,76.23 C7.497,76.23 3.15,71.0262 3.15,63.7749 C3.15,56.5236 7.4592,51.3387 13.86,51.3387 L13.86,51.3387 Z M13.86,78.8571 C22.05,78.8571 27.72,72.5571 27.72,63.7686 C27.72,54.9801 22.0878,48.6864 13.86,48.6864 C5.6322,48.6864 0,54.9864 0,63.7749 C0,72.5634 5.5944,78.8634 13.86,78.8634 L13.86,78.8571 Z" id="Shape"></path>
                        <path d="M32.76,10.584 L26.46,10.584 L26.46,12.9024 L29.9439,12.9024 L29.9439,28.98 L26.46,28.98 L26.46,31.2984 L36.2628,31.2984 L36.2628,28.98 L32.76,28.98 L32.76,10.584 L32.76,10.584 Z M29.61,5.9409 L32.9238,5.9409 L32.9238,2.2113 L29.61,2.2113 L29.61,5.9409 L29.61,5.9409 Z M23.31,26.6238 C20.7346002,28.1769921 17.7990069,29.0324831 14.7924,29.106 C7.749,29.106 3.15,23.94 3.15,16.7139 C3.15,9.4878 7.623,4.284 14.49,4.284 C16.7251029,4.27755907 18.9356337,4.75017013 20.9727,5.67 L20.9727,10.6407 L23.7069,10.6407 L23.7069,4.1202 C20.9404262,2.41560842 17.7384632,1.55110031 14.49,1.6317 C5.7456,1.6317 -2.23820962e-15,7.9317 -2.23820962e-15,16.7202 C-2.23820962e-15,25.5087 5.8842,31.8024 14.7924,31.8024 C17.8164,31.8024 21.0105,31.0968 23.4549,29.3958 L23.4549,26.6238 L23.31,26.6238 L23.31,26.6238 Z" id="Shape"></path>
                        <path d="M50.9985,12.789 L50.9985,10.4328 L57.1536,10.4328 L57.1536,28.98 L60.5745,28.98 L60.5745,31.3299 L54.3753,31.3299 L54.3753,27.8838 L54.2493,27.8838 C53.949343,28.4505997 53.5600585,28.9653911 53.0964,29.4084 C52.6320971,29.8449323 52.1055571,30.2101133 51.534,30.492 C50.9337584,30.782513 50.2985011,30.9942655 49.644,31.122 C48.9473911,31.2636721 48.2380608,31.3333385 47.5272,31.3299 C46.5259269,31.3379939 45.5300421,31.1826529 44.5788,30.87 C43.6903745,30.5741742 42.8805072,30.0809306 42.21,29.4273 C41.4820454,28.6897779 40.9325192,27.795451 40.6035,26.8128 C40.1927383,25.580696 39.9966873,24.2871856 40.0239,22.9887 L40.0239,12.789 L36.7542,12.789 L36.7542,10.4328 L42.9093,10.4328 L42.9093,22.554 C42.8909729,23.5284069 43.0140538,24.5003216 43.2747,25.4394 C43.4705967,26.1650873 43.8281193,26.8370575 44.3205,27.405 C44.7750211,27.9032108 45.3498865,28.276331 45.99,28.4886 C46.6864561,28.7203861 47.4169654,28.8332636 48.1509,28.8225 C49.8572704,28.8597766 51.4850837,28.1063316 52.5609,26.7813 C53.1397426,26.054001 53.568061,25.2187803 53.8209,24.3243 C54.1318853,23.2691998 54.2826665,22.1733814 54.2682,21.0735 L54.2682,12.789 L50.9985,12.789 L50.9985,12.789 Z" id="Shape"></path>
                        <path d="M74.8125,2.3499 L74.8125,0 L81.3582,0 L81.3582,28.98 L84.7791,28.98 L84.7791,31.3299 L78.5799,31.3299 L78.5799,27.1593 L78.4539,27.1593 C78.1358876,27.8516312 77.7106625,28.4894689 77.1939,29.0493 C76.7031754,29.5700775 76.1333727,30.0101863 75.5055,30.3534 C74.8591569,30.7020673 74.1681492,30.9606653 73.4517,31.122 C72.6807076,31.296802 71.8923537,31.3834575 71.1018,31.3803 C69.85551,31.3928326 68.619387,31.1550342 67.4667,30.681 C66.3631337,30.2212967 65.3770241,29.5193934 64.5813,28.6272 C63.743914,27.6734908 63.1017855,26.5647489 62.6913,25.3638 C62.216336,23.9819173 61.9840104,22.5282841 62.0046,21.0672 C61.9870872,19.5862744 62.2258044,18.1134743 62.7102,16.7139 C63.1407451,15.463945 63.8249526,14.3164497 64.7199,13.3434 C65.5628865,12.4318657 66.5805561,11.6991435 67.7124,11.1888 C68.8620678,10.6769265 70.1079643,10.4170067 71.3664,10.4265 C72.1270603,10.4221628 72.8864308,10.4896624 73.6344,10.6281 C74.321188,10.7562105 74.9897444,10.967779 75.6252,11.2581 C76.2197539,11.5302713 76.7732355,11.8844147 77.2695,12.3102 C77.7468413,12.7227476 78.1514739,13.2125659 78.4665,13.7592 L78.5925,13.7592 C78.5631,13.293 78.5421,12.7218 78.5295,12.0456 C78.5169,11.3694 78.5022,10.6827 78.4854,9.9855 L78.4854,8.1333 L78.4854,2.3499 L74.8503,2.3499 L74.8125,2.3499 Z M65.0223,21.0294 C65.0011364,22.1458509 65.1694212,23.257809 65.52,24.318 C65.8254677,25.2310208 66.3118558,26.0730936 66.9501,26.7939 C67.5396072,27.4547738 68.269266,27.9756512 69.0858,28.3185 C69.9213379,28.6599896 70.8166144,28.8313343 71.7192,28.8225 C72.5991688,28.8294152 73.471416,28.6579662 74.2833,28.3185 C75.0844842,27.9781266 75.8055469,27.4738119 76.4001,26.838 C77.0396602,26.1447824 77.5344249,25.3308838 77.8554,24.444 C78.2271934,23.4152023 78.4231316,22.3311529 78.435,21.2373 L78.435,20.8719 C78.4490945,19.7425743 78.2766769,18.618667 77.9247,17.5455 C77.6198834,16.6189512 77.1337441,15.762318 76.4946,15.0255 C75.9030161,14.3446381 75.1669204,13.8044042 74.34,13.4442 C73.5101133,13.0886838 72.6157077,12.9085157 71.7129,12.915 C70.8039599,12.9068246 69.9045345,13.1004807 69.0795,13.482 C68.2687181,13.873636 67.5495874,14.4317673 66.969,15.12 C66.322575,15.8714425 65.8302338,16.7426723 65.52,17.6841 C65.1730335,18.7646566 65.0049196,19.8946374 65.0223,21.0294 L65.0223,21.0294 Z" id="Shape"></path>
                        <path d="M86.94,17.64 C86.9570768,16.6134681 87.1709424,15.5997452 87.57,14.6538 C87.9399382,13.7761802 88.501798,12.9925903 89.2143,12.3606 C89.9503749,11.7159324 90.8068577,11.2234548 91.7343,10.9116 C92.8036018,10.562232 93.9232804,10.3919387 95.0481,10.4076 C96.2020158,10.3886649 97.3512382,10.5589201 98.4501,10.9116 C99.371336,11.2090422 100.217861,11.7010581 100.9323,12.3543 C101.616855,13.0042382 102.137238,13.807485 102.4506,14.6979 C102.804453,15.7097626 102.977196,16.7760733 102.9609,17.8479 L102.9609,28.98 L106.2117,28.98 L106.2117,31.3299 L100.2267,31.3299 L100.2267,27.9909 L100.1007,27.9909 C99.809716,28.5250518 99.4256889,29.0029522 98.9667,29.4021 C98.4771554,29.8276021 97.9299473,30.1818027 97.3413,30.4542 C96.6924776,30.7439075 96.0114918,30.9553938 95.3127,31.0842 C94.5389698,31.2382908 93.7517181,31.3142722 92.9628,31.311 C91.9869127,31.3252581 91.0143731,31.1936043 90.0774,30.9204 C89.2906142,30.6917152 88.556414,30.3107017 87.9165,29.799 C87.3367031,29.3333997 86.8748147,28.737693 86.5683,28.0602 C86.2621487,27.3571151 86.109649,26.5967647 86.121,25.83 C86.1100528,25.0774326 86.240408,24.3294926 86.5053,23.625 C86.7639718,22.9657998 87.1740034,22.3766492 87.7023,21.9051 C88.3125033,21.3726299 89.014965,20.9562772 89.775,20.6766 C90.737312,20.3179858 91.7336562,20.0583452 92.7486,19.9017 L97.2405,19.1646 C97.7012413,19.1048052 98.1578213,19.0164349 98.6076,18.9 C98.8972208,18.8254246 99.1765316,18.7153931 99.4392,18.5724 C99.6308334,18.472485 99.7935462,18.3249587 99.9117,18.144 C100.016152,17.9507692 100.068275,17.7335894 100.0629,17.514 C100.047502,16.8249497 99.9242064,16.1425699 99.6975,15.4917 C99.4966444,14.9258332 99.1666061,14.4145975 98.7336,13.9986 C98.2879385,13.5792839 97.7540959,13.2650056 97.1712,13.0788 C96.4866989,12.8631418 95.7719827,12.7589124 95.0544,12.7701 C94.3159127,12.7622012 93.5806387,12.8684547 92.8746,13.0851 C92.2602061,13.2691763 91.6913952,13.5804124 91.2051,13.9986 C90.7371537,14.4165528 90.3708404,14.9358558 90.1341,15.5169 C89.8661064,16.1802942 89.7209464,16.8868819 89.7057,17.6022 L86.94,17.6022 L86.94,17.64 Z M100.0692,22.5288 L100.0692,20.3679 C99.9449889,20.5081728 99.8006101,20.6291962 99.6408,20.727 C99.4642591,20.8350697 99.2787803,20.9278091 99.0864,21.0042 C98.8815696,21.084935 98.6709807,21.1502175 98.4564,21.1995 L97.6878,21.357 L93.2778,22.0311 C92.631496,22.1141785 91.997164,22.2727615 91.3878,22.5036 C90.9138274,22.6852851 90.4747797,22.947435 90.09,23.2785 C89.7633162,23.5619009 89.501221,23.9120773 89.3214,24.3054 C89.1429029,24.7232309 89.0548734,25.1741135 89.0631,25.6284 C89.0556893,26.0987711 89.1502577,26.5651655 89.3403,26.9955 C89.5278626,27.4068262 89.8133946,27.7659043 90.1719,28.0413 C90.5930234,28.357227 91.0727045,28.5863604 91.5831,28.7154 C92.209886,28.8814214 92.8562385,28.9619505 93.5046,28.9548 C94.3589661,28.9581117 95.2088061,28.8306357 96.0246,28.5768 C96.8025942,28.3374186 97.5230962,27.9407136 98.1414,27.4113 C98.7728089,26.8560815 99.2630143,26.1585645 99.5715,25.3764 C99.9307295,24.4620293 100.106273,23.4858369 100.0881,22.5036 L100.0692,22.5288 Z" id="Shape"></path>
                        <path d="M119.5047,2.3499 L119.5047,0 L126.0504,0 L126.0504,28.98 L129.4713,28.98 L129.4713,31.3299 L123.2721,31.3299 L123.2721,27.1593 L123.1461,27.1593 C122.828088,27.8516312 122.402863,28.4894689 121.8861,29.0493 C121.395375,29.5700775 120.825573,30.0101863 120.1977,30.3534 C119.551357,30.7020673 118.860349,30.9606653 118.1439,31.122 C117.372908,31.296802 116.584554,31.3834575 115.794,31.3803 C114.539201,31.385396 113.296316,31.1368192 112.14,30.6495 C111.036434,30.1897967 110.050324,29.4878934 109.2546,28.5957 C108.417214,27.6419908 107.775085,26.5332489 107.3646,25.3323 C106.889636,23.9504173 106.65731,22.4967841 106.6779,21.0357 C106.660387,19.5547744 106.899104,18.0819743 107.3835,16.6824 C107.814045,15.432445 108.498253,14.2849497 109.3932,13.3119 C110.236186,12.4003657 111.253856,11.6676435 112.3857,11.1573 C113.535368,10.6454265 114.781264,10.3855067 116.0397,10.395 C116.80036,10.3906628 117.559731,10.4581624 118.3077,10.5966 C118.994488,10.7247105 119.663044,10.936279 120.2985,11.2266 C120.893054,11.4987713 121.446536,11.8529147 121.9428,12.2787 C122.420141,12.6912476 122.824774,13.1810659 123.1398,13.7277 L123.2658,13.7277 C123.2364,13.2615 123.2154,12.6903 123.2028,12.0141 C123.1902,11.3379 123.1776,10.6512 123.165,9.954 L123.165,8.1018 L123.165,2.3499 L119.5299,2.3499 L119.5047,2.3499 Z M109.7145,21.0294 C109.705509,22.1480133 109.886584,23.2600278 110.25,24.318 C110.555468,25.2310208 111.041856,26.0730936 111.6801,26.7939 C112.269607,27.4547738 112.999266,27.9756512 113.8158,28.3185 C114.651338,28.6599896 115.546614,28.8313343 116.4492,28.8225 C117.329169,28.8294152 118.201416,28.6579662 119.0133,28.3185 C119.814484,27.9781266 120.535547,27.4738119 121.1301,26.838 C121.76966,26.1447824 122.264425,25.3308838 122.5854,24.444 C122.957193,23.4152023 123.153132,22.3311529 123.165,21.2373 L123.165,20.8719 C123.179095,19.7425743 123.006677,18.618667 122.6547,17.5455 C122.349883,16.6189512 121.863744,15.762318 121.2246,15.0255 C120.633016,14.3446381 119.89692,13.8044042 119.07,13.4442 C118.240113,13.0886838 117.345708,12.9085157 116.4429,12.915 C115.53396,12.9068246 114.634535,13.1004807 113.8095,13.482 C112.982855,13.8683463 112.248268,14.4268047 111.6549,15.12 C111.024213,15.8751393 110.546991,16.7461247 110.25,17.6841 C109.890207,18.762522 109.709317,19.8925543 109.7145,21.0294 L109.7145,21.0294 Z" id="Shape"></path>
                        <path d="M151.2,2.3499 L151.2,0 L157.7457,0 L157.7457,28.98 L161.1666,28.98 L161.1666,31.3299 L154.98,31.3299 L154.98,27.1593 L154.854,27.1593 C154.535988,27.8516312 154.110763,28.4894689 153.594,29.0493 C153.103275,29.5700775 152.533473,30.0101863 151.9056,30.3534 C151.259257,30.7020673 150.568249,30.9606653 149.8518,31.122 C149.080808,31.296802 148.292454,31.3834575 147.5019,31.3803 C146.25561,31.3928326 145.019487,31.1550342 143.8668,30.681 C142.763234,30.2212967 141.777124,29.5193934 140.9814,28.6272 C140.144014,27.6734908 139.501885,26.5647489 139.0914,25.3638 C138.616436,23.9819173 138.38411,22.5282841 138.4047,21.0672 C138.387187,19.5862744 138.625904,18.1134743 139.1103,16.7139 C139.540845,15.463945 140.225053,14.3164497 141.12,13.3434 C141.962986,12.4318657 142.980656,11.6991435 144.1125,11.1888 C145.262168,10.6769265 146.508064,10.4170067 147.7665,10.4265 C148.52716,10.4221628 149.286531,10.4896624 150.0345,10.6281 C150.721288,10.7562105 151.389844,10.967779 152.0253,11.2581 C152.619854,11.5302713 153.173336,11.8844147 153.6696,12.3102 C154.146941,12.7227476 154.551574,13.2125659 154.8666,13.7592 L154.98,13.7592 C154.9506,13.293 154.9296,12.7218 154.917,12.0456 C154.9044,11.3694 154.8834,10.6722 154.854,9.954 L154.854,8.1018 L154.854,2.3499 L151.2,2.3499 L151.2,2.3499 Z M141.4035,21.0294 C141.388426,22.1469309 141.563105,23.2589167 141.9201,24.318 C142.225568,25.2310208 142.711956,26.0730936 143.3502,26.7939 C143.939707,27.4547738 144.669366,27.9756512 145.4859,28.3185 C146.321438,28.6599896 147.216714,28.8313343 148.1193,28.8225 C148.999269,28.8294152 149.871516,28.6579662 150.6834,28.3185 C151.484584,27.9781266 152.205647,27.4738119 152.8002,26.838 C153.43976,26.1447824 153.934525,25.3308838 154.2555,24.444 C154.627293,23.4152023 154.823232,22.3311529 154.8351,21.2373 L154.8351,20.8719 C154.849195,19.7425743 154.676777,18.618667 154.3248,17.5455 C154.019983,16.6189512 153.533844,15.762318 152.8947,15.0255 C152.306575,14.3537451 151.577294,13.8202297 150.759,13.4631 C149.929113,13.1075838 149.034708,12.9274157 148.1319,12.9339 C147.22296,12.9257246 146.323535,13.1193807 145.4985,13.5009 C144.675892,13.8824929 143.943655,14.4343551 143.3502,15.12 C142.709091,15.8767737 142.22316,16.752305 141.9201,17.6967 C141.568078,18.7721791 141.393593,19.8978185 141.4035,21.0294 L141.4035,21.0294 Z" id="Shape"></path>
                        <path d="M161.5887,20.8719 C161.571712,19.4284608 161.817201,17.9939512 162.3132,16.6383 C162.765257,15.4060383 163.456859,14.2754937 164.3481,13.3119 C165.211932,12.3849048 166.261717,11.6506992 167.4288,11.1573 C168.623548,10.6478159 169.909972,10.388387 171.2088,10.395 C172.442186,10.3869335 173.667006,10.6003168 174.825,11.025 C175.889443,11.4099755 176.856981,12.0227493 177.66,12.8205 C178.488426,13.6536872 179.132362,14.6517882 179.55,15.75 C179.99103,16.9604411 180.204615,18.2419515 180.18,19.53 L180.18,20.6325 L164.6253,20.6325 C164.639863,21.7621708 164.813777,22.8841339 165.1419,23.9652 C165.424749,24.9052898 165.882121,25.7836994 166.4901,26.5545 C167.056169,27.2681425 167.780997,27.8398073 168.6069,28.224 C169.479146,28.6190459 170.427757,28.8169421 171.3852,28.8036 C172.146411,28.8141594 172.904161,28.6992199 173.628,28.4634 C174.272506,28.2496075 174.874012,27.9232588 175.4046,27.4995 C175.925582,27.0864956 176.354716,26.5693893 176.6646,25.9812 C176.987316,25.3543378 177.190287,24.6727847 177.2631,23.9715 L180.0414,23.9715 C179.900761,26.0368881 178.919309,27.9542482 177.3261,29.2761 C176.526343,29.9408507 175.612799,30.455253 174.6297,30.7944 C173.590786,31.1557612 172.497744,31.3368695 171.3978,31.3299 C169.981479,31.3527846 168.574018,31.1025217 167.2524,30.5928 C166.07242,30.1306716 165.012633,29.4069144 164.1528,28.476 C163.295033,27.5202528 162.650731,26.3927249 162.2628,25.1685 C161.809843,23.7815483 161.582254,22.3309281 161.5887,20.8719 L161.5887,20.8719 Z M171.2088,12.915 C170.435719,12.9108965 169.667969,13.0431202 168.9408,13.3056 C167.507503,13.8197469 166.312689,14.8419515 165.5829,16.1784 C165.189517,16.8977635 164.909043,17.6733187 164.7513,18.4779 L177.2379,18.4779 C177.176371,17.6353842 176.974068,16.809139 176.6394,16.0335 C176.342486,15.3739733 175.913681,14.782222 175.3794,14.2947 C174.860632,13.8101859 174.240994,13.4465793 173.565,13.23 C172.800023,13.0065715 172.005603,12.9003656 171.2088,12.915 L171.2088,12.915 Z" id="Shape"></path>
                    </g>
                </g>
            </g>
        </g>
    </g>
</svg>