<?xml version="1.0" encoding="UTF-8" standalone="no"?>
<svg width="22px" height="22px" viewBox="0 0 22 22" version="1.1" xmlns="http://www.w3.org/2000/svg" xmlns:xlink="http://www.w3.org/1999/xlink">
    <!-- Generator: Sketch 3.7.2 (28276) - http://www.bohemiancoding.com/sketch -->
    <title>instagram copy 2</title>
    <desc>Created with Sketch.</desc>
    <defs></defs>
    <g id="Page-1" stroke="none" stroke-width="1" fill="none" fill-rule="evenodd">
        <g id="Desktop-Copy-5" transform="translate(-982.000000, -1856.000000)" fill="#404040">
            <g id="instagram-copy-2" transform="translate(982.000000, 1856.000000)">
                <path d="M17.4414981,0.5 L4.55850188,0.5 C2.32120179,0.5 0.5,2.31996707 0.5,4.55850188 L0.5,17.4414981 C0.5,19.6800329 2.32120179,21.5 4.55850188,21.5 L17.4414981,21.5 C19.6787982,21.5 21.5,19.6800329 21.5,17.4414981 L21.5,4.55850188 C21.5,2.31996707 19.6787982,0.5 17.4414981,0.5 L17.4414981,0.5 Z M18.6058325,2.92127234 L19.0700847,2.91880292 L19.0700847,6.47848071 L15.5215193,6.48959313 L15.5091722,2.92991533 L18.6058325,2.92127234 L18.6058325,2.92127234 Z M8.00335136,8.84419097 C8.67503528,7.91321731 9.76652164,7.30326905 11,7.30326905 C12.2334784,7.30326905 13.3249647,7.91321731 13.9966486,8.84419097 C14.4349718,9.4516698 14.696731,10.1949671 14.696731,11 C14.696731,13.0372766 13.0385113,14.6954962 11,14.6954962 C8.96272342,14.6954962 7.30450376,13.0372766 7.30450376,11 C7.30450376,10.1949671 7.56626294,9.4516698 8.00335136,8.84419097 L8.00335136,8.84419097 Z M19.4540804,17.4414981 C19.4540804,18.5515052 18.5515052,19.4540804 17.4414981,19.4540804 L4.55850188,19.4540804 C3.44849483,19.4540804 2.54591957,18.5515052 2.54591957,17.4414981 L2.54591957,8.84419097 L5.68209078,8.84419097 C5.4104539,9.51093603 5.2585842,10.238182 5.2585842,11 C5.2585842,14.1658043 7.83419567,16.7426505 11,16.7426505 C14.167039,16.7426505 16.7426505,14.1658043 16.7426505,11 C16.7426505,10.238182 16.5883114,9.51093603 16.3191439,8.84419097 L19.4540804,8.84419097 L19.4540804,17.4414981 L19.4540804,17.4414981 Z" id="Shape"></path>
            </g>
        </g>
    </g>
</svg>