<?xml version="1.0" encoding="UTF-8" standalone="no"?>
<svg width="22px" height="16px" viewBox="0 0 22 16" version="1.1" xmlns="http://www.w3.org/2000/svg" xmlns:xlink="http://www.w3.org/1999/xlink">
    <!-- Generator: Sketch 3.7.2 (28276) - http://www.bohemiancoding.com/sketch -->
    <title>mail copy 2</title>
    <desc>Created with Sketch.</desc>
    <defs></defs>
    <g id="Page-1" stroke="none" stroke-width="1" fill="none" fill-rule="evenodd">
        <g id="Desktop-Copy-5" transform="translate(-922.000000, -1860.000000)" fill="#404040">
            <g id="mail-copy-2" transform="translate(922.000000, 1860.000000)">
                <path d="M2.11154795,4.93191764 C2.38986301,5.11365657 3.22872603,5.65357323 4.62828767,6.55124919 C6.02784932,7.44892515 7.0999726,8.1401747 7.84480822,8.62485834 C7.92663014,8.6779992 8.10052055,8.79348641 8.36647945,8.97145946 C8.63243836,9.14957198 8.85349315,9.29365204 9.02934247,9.40342068 C9.20534247,9.51318932 9.41810959,9.63634779 9.66779452,9.77261712 C9.91747945,9.90888645 10.1528493,10.0112628 10.3737534,10.0791882 C10.5948082,10.1475321 10.7994384,10.1814251 10.9876438,10.1814251 L11,10.1814251 L11.0123562,10.1814251 C11.2005616,10.1814251 11.4051918,10.1475321 11.6262466,10.0791882 C11.8471507,10.0112628 12.0826712,9.90874697 12.3322055,9.77261712 C12.5817397,9.63620831 12.7945068,9.51318932 12.9705068,9.40342068 C13.1465068,9.29365204 13.367411,9.14957198 13.6333699,8.97145946 C13.8993288,8.79334693 14.0733699,8.6779992 14.1551918,8.62485834 C14.9080137,8.14003522 16.8233699,6.90900849 19.9006575,4.93163868 C20.4981233,4.54542602 20.9971918,4.07943233 21.3983151,3.53393657 C21.799589,2.98871977 22,2.41672333 22,1.8182262 C22,1.31820005 21.8054658,0.890144185 21.4166986,0.534058615 C21.0279315,0.177973046 20.5674384,0 20.0356712,0 L1.96417808,0 C1.3340137,0 0.849109589,0.19694196 0.509465753,0.59082588 C0.169821918,0.984849277 0,1.47734365 0,2.06816953 C0,2.54546089 0.225123288,3.06264275 0.675219178,3.61943616 C1.12531507,4.17622958 1.60419178,4.6137699 2.11154795,4.93191764 Z M20.7722192,6.14774134 C18.0879178,7.82941925 16.0497534,9.13632163 14.6586301,10.0681695 C14.1921096,10.3863173 13.813589,10.6345869 13.5229178,10.8124205 C13.2323973,10.990533 12.8457397,11.1722719 12.3627945,11.3579162 C11.88,11.5435605 11.4299041,11.6363129 11.0125068,11.6363129 L11,11.6363129 L10.9876438,11.6363129 C10.5702466,11.6363129 10.12,11.5435605 9.63720548,11.3579162 C9.15441096,11.1722719 8.76760274,10.990533 8.47708219,10.8124205 C8.18656164,10.6345869 7.8080411,10.3863173 7.34152055,10.0681695 C6.23654795,9.31820005 4.20275342,8.01129766 1.2399863,6.14774134 C0.773465753,5.85999965 0.360136986,5.53027529 0,5.15912617 L0,14.1816343 C0,14.6818 0.192273973,15.1097163 0.576972603,15.4658019 C0.961671233,15.822027 1.42412329,16 1.96432877,16 L20.0358219,16 C20.5758767,16 21.0383288,15.822027 21.4230274,15.4658019 C21.8078767,15.1095769 22,14.6818 22,14.1816343 L22,5.15912617 C21.648,5.52260404 21.2388904,5.8523284 20.7722192,6.14774134 Z" id="Shape"></path>
            </g>
        </g>
    </g>
</svg>